<?xml version="1.0" standalone="no"?>
<!DOCTYPE svg PUBLIC "-//W3C//DTD SVG 1.1//EN" "http://www.w3.org/Graphics/SVG/1.1/DTD/svg11.dtd" >
<svg xmlns="http://www.w3.org/2000/svg" xmlns:xlink="http://www.w3.org/1999/xlink" version="1.1">
<metadata></metadata>
<defs>
<font id="avenir_arabicregular" horiz-adv-x="0" >
<font-face units-per-em="1000" ascent="800" descent="-200" />
<missing-glyph horiz-adv-x="260" />
<glyph unicode="&#x627;&#xfedf;&#xfee0;&#xfeea;" horiz-adv-x="1379" arabic-form="isolated" d="M691 790h-5v145h33v-135zM657 638q-31 0 -48.5 18t-17.5 47q0 23 10 47l23 -7q-5 -22 -5 -30q0 -39 38 -39q32 0 32 38q0 13 -2 23l24 7q6 -21 6 -37v-6q13 -16 38 -16q33 0 33 34q0 19 -9 46l24 10q14 -28 14 -56q4 -46 -36 -63t-72 13q-15 -29 -52 -29zM549 0 q-142 0 -167 58q-69 -34 -141 -34q-94 0 -147.5 46t-53.5 129q0 93 61 147.5t168 54.5h159v-250q0 -54 26 -74t95 -20t96.5 32t27.5 108v389h60v-402q0 -127 136 -127q69 0 96.5 32t27.5 108v559h60v-583q0 -173 -184 -173q-119 0 -158 77q-42 -77 -162 -77zM1298 0h-60v756 h60v-756zM246 83q68 0 120 29v232h-108q-73 0 -115 -36t-42 -103q0 -60 37.5 -91t107.5 -31z" />
<glyph unicode="&#xfedf;&#xfe82;" horiz-adv-x="658" arabic-form="isolated" d="M517 201v555h60v-570q0 -89 -51 -137.5t-147 -48.5h-349v57h218v493h60v-493h65q73 0 108.5 35t35.5 109zM197 662q-24 0 -49 -19l-22 26q38 33 73 33q19 0 67 -13q51 -14 69 -14q27 0 56 26l25 -24q-28 -42 -78 -42q-25 0 -76 14q-48 13 -65 13z" />
<glyph unicode="&#xfee0;&#xfe82;" horiz-adv-x="713" arabic-form="final" d="M713 57q20 0 20 -28q0 -29 -20 -29q-123 0 -162 80q-48 -80 -172 -80h-349v57h218v493h60v-493h65q73 0 108.5 35t35.5 109v555h60v-570v-2q0 -127 136 -127zM197 662q-24 0 -49 -19l-22 26q38 33 73 33q19 0 67 -13q51 -14 69 -14q27 0 56 26l25 -24q-28 -42 -78 -42 q-25 0 -76 14q-48 13 -65 13z" />
<glyph unicode="&#xfedf;&#xfe84;" horiz-adv-x="658" arabic-form="isolated" d="M273 658h87v-32h-160v32h39q-16 26 -16 53q0 34 23 54.5t59 20.5q21 0 46 -6l-6 -32q-18 5 -35 5q-37 0 -49 -27.5t12 -67.5zM517 201v555h60v-570q0 -89 -51 -137.5t-147 -48.5h-349v57h218v493h60v-493h65q73 0 108.5 35t35.5 109z" />
<glyph unicode="&#xfee0;&#xfe84;" horiz-adv-x="713" arabic-form="final" d="M273 658h87v-32h-160v32h39q-16 26 -16 53q0 34 23 54.5t59 20.5q21 0 46 -6l-6 -32q-18 5 -35 5q-37 0 -49 -27.5t12 -67.5zM713 57q20 0 20 -28q0 -29 -20 -29q-123 0 -162 80q-48 -80 -172 -80h-349v57h218v493h60v-493h65q73 0 108.5 35t35.5 109v555h60v-570v-2 q0 -127 136 -127z" />
<glyph unicode="&#xfedf;&#xfe88;" horiz-adv-x="658" arabic-form="isolated" d="M517 201v555h60v-570q0 -89 -51 -137.5t-147 -48.5h-349v57h218v493h60v-493h65q73 0 108.5 35t35.5 109zM255 -170q0 -26 16 -48h87v-32h-160v32h38q-15 24 -15 52q0 34 22.5 55t58.5 21q23 0 47 -7l-6 -31q-18 5 -35 5q-24 0 -38.5 -13t-14.5 -34z" />
<glyph unicode="&#xfee0;&#xfe88;" horiz-adv-x="713" arabic-form="final" d="M713 57q20 0 20 -28q0 -29 -20 -29q-123 0 -162 80q-48 -80 -172 -80h-349v57h218v493h60v-493h65q73 0 108.5 35t35.5 109v555h60v-570v-2q0 -127 136 -127zM255 -170q0 -26 16 -48h87v-32h-160v32h38q-15 24 -15 52q0 34 22.5 55t58.5 21q23 0 47 -7l-6 -31 q-18 5 -35 5q-24 0 -38.5 -13t-14.5 -34z" />
<glyph unicode="&#xfedf;&#xfe8e;" horiz-adv-x="658" arabic-form="isolated" d="M517 201v555h60v-570q0 -89 -51 -137.5t-147 -48.5h-349v57h218v493h60v-493h65q73 0 108.5 35t35.5 109z" />
<glyph unicode="&#xfee0;&#xfe8e;" horiz-adv-x="713" arabic-form="final" d="M713 57q20 0 20 -28q0 -29 -20 -29q-123 0 -162 80q-48 -80 -172 -80h-349v57h218v493h60v-493h65q73 0 108.5 35t35.5 109v555h60v-570v-2q0 -127 136 -127z" />
<glyph unicode="&#xfedf;&#xfb51;" horiz-adv-x="658" d="M385 679q0 -29 -9 -53h-239v32h51v99h32v-46q34 52 89 52q35 0 55.5 -23t20.5 -61zM517 201v555h60v-570q0 -89 -51 -137.5t-147 -48.5h-349v57h218v493h60v-493h65q73 0 108.5 35t35.5 109zM306 730q-27 0 -51 -19.5t-38 -52.5h134q3 12 3 22q0 24 -13 37t-35 13z" />
<glyph unicode="&#xfee0;&#xfb51;" horiz-adv-x="713" d="M385 679q0 -29 -9 -53h-239v32h51v99h32v-46q34 52 89 52q35 0 55.5 -23t20.5 -61zM713 57q20 0 20 -28q0 -29 -20 -29q-123 0 -162 80q-48 -80 -172 -80h-349v57h218v493h60v-493h65q73 0 108.5 35t35.5 109v555h60v-570v-2q0 -127 136 -127zM306 730q-27 0 -51 -19.5 t-38 -52.5h134q3 12 3 22q0 24 -13 37t-35 13z" />
<glyph unicode="&#x66e;" horiz-adv-x="998" d="M998 57q20 0 20 -28q0 -29 -20 -29q-120 0 -161 78q-50 -78 -167 -78h-394q-108 0 -169 50t-61 138q0 68 32 156l56 -15q-27 -87 -27 -131q0 -141 177 -141h379q71 0 105 33.5t34 106.5v204h60v-217q0 -127 136 -127z" />
<glyph unicode="&#x66f;" horiz-adv-x="825" d="M708 57h117q20 0 20 -28q0 -29 -20 -29h-120q-14 -89 -90 -126.5t-229 -37.5q-340 0 -340 232q0 58 23 130l56 -15q-18 -55 -18 -107q0 -91 68 -136t211 -45q242 0 259 105h-81q-233 0 -233 201q0 86 53 148t145 62q83 0 131 -52t48 -145v-157zM572 57h76v144 q0 73 -32 112.5t-92 39.5t-95.5 -41t-35.5 -110q0 -76 44 -110.5t135 -34.5z" />
<glyph unicode="&#x6a1;" horiz-adv-x="552" d="M299 411q90 0 138.5 -58t48.5 -156q0 -85 -44 -197h-442v57h145q-56 59 -56 146q0 91 59 150q58 58 151 58zM214 57h186q24 76 24 137q0 75 -34 117t-96 42q-65 0 -104 -42t-39 -109q0 -79 63 -145z" />
<glyph unicode="&#x6a1;" horiz-adv-x="575" d="M458 57h117q20 0 20 -28q0 -29 -20 -29h-112q-103 0 -178 21q-75 -21 -183 -21h-102v57h105q62 0 89 7q-48 28 -76.5 73t-28.5 98q0 77 55 126q56 50 143 50t140 -49t53 -127q0 -111 -106 -172q38 -6 84 -6zM151 235q0 -53 37.5 -94.5t96.5 -60.5q54 16 94 58 q39 42 39 98q0 53 -36.5 85t-95.5 32t-97 -33t-38 -85z" />
<glyph unicode="&#x6a1;" horiz-adv-x="1075" d="M958 57h117q20 0 20 -28q0 -29 -20 -29h-112q-103 0 -178 21q-75 -21 -183 -21h-326q-108 0 -169 50t-61 138q0 68 32 156l56 -15q-27 -87 -27 -131q0 -141 177 -141h321q62 0 89 7q-48 28 -76.5 73t-28.5 98q0 77 55 126q56 50 143 50t140 -49t53 -127q0 -111 -106 -172 q38 -6 84 -6zM651 235q0 -53 37.5 -94.5t96.5 -60.5q54 16 94 58q39 42 39 98q0 53 -36.5 85t-95.5 32t-97 -33t-38 -85z" />
<glyph unicode="&#x6c2;" horiz-adv-x="540" d="M255 574h113v-40h-206v40h50q-21 33 -21 70q0 42 28.5 67.5t74.5 25.5q31 0 62 -7l-8 -39q-35 5 -46 5q-31 0 -50 -15t-19 -43q0 -30 22 -64zM540 57q20 0 20 -28q0 -29 -20 -29h-37q-75 0 -114 36.5t-39 104.5v209h-77q-74 0 -120.5 -39.5t-46.5 -109.5q0 -60 40 -109 l-44 -36q-58 59 -58 146q0 88 62 147q61 58 167 58h140v-247q0 -59 27.5 -81t99.5 -22z" />
<glyph unicode="&#x6c3;" horiz-adv-x="549" d="M201 520q-17 0 -29 11.5t-12 29.5t12 29.5t29 11.5q25 2 35.5 -19.5t0 -43t-35.5 -19.5zM334 520q-26 -2 -36.5 19.5t0 43t36.5 19.5q24 2 34.5 -19.5t0 -43t-34.5 -19.5zM549 57q20 0 20 -28q0 -29 -20 -29q-141 0 -168 57q-71 -33 -140 -33q-94 0 -147.5 46t-53.5 129 q0 93 61 147.5t168 54.5h159v-250q0 -54 26 -74t95 -20zM366 112v232h-108q-73 0 -115 -36t-42 -103q0 -60 37.5 -91t107.5 -31q68 0 120 29z" />
<glyph unicode="&#x6d5;" horiz-adv-x="549" d="M549 57q20 0 20 -28q0 -29 -20 -29q-141 0 -168 57q-71 -33 -140 -33q-94 0 -147.5 46t-53.5 129q0 93 61 147.5t168 54.5h159v-250q0 -54 26 -74t95 -20zM366 112v232h-108q-73 0 -115 -36t-42 -103q0 -60 37.5 -91t107.5 -31q68 0 120 29z" />
<glyph unicode="&#x671;" horiz-adv-x="279" arabic-form="final" d="M218 864q0 -29 -9 -53h-239v32h51v99h32v-46q34 52 89 52q35 0 55.5 -23t20.5 -61zM139 915q-27 0 -51 -19.5t-38 -52.5h134q3 12 3 22q0 23 -13.5 36.5t-34.5 13.5zM279 57q20 0 20 -28q0 -29 -20 -29q-102 0 -150 41.5t-48 127.5v587h60v-583q0 -116 138 -116z" />
<glyph unicode="&#x67e;" horiz-adv-x="998" arabic-form="final" d="M998 57q20 0 20 -28q0 -29 -20 -29q-120 0 -161 78q-50 -78 -167 -78h-394q-108 0 -169 50t-61 138q0 68 32 156l56 -15q-27 -87 -27 -131q0 -141 177 -141h379q71 0 105 33.5t34 106.5v204h60v-217q0 -127 136 -127zM412 -131q0 -19 -11.5 -30.5t-29.5 -11.5 q-17 0 -29 11.5t-12 30.5q0 17 12 28.5t29 11.5q18 0 29.5 -11.5t11.5 -28.5zM504 -91q17 0 28.5 -11.5t11.5 -28.5q0 -19 -11.5 -30.5t-28.5 -11.5q-18 0 -30 11.5t-12 30.5q0 17 12 28.5t30 11.5zM410 -201q19 19 44.5 8.5t25.5 -37.5q0 -17 -11.5 -29t-29.5 -12t-29.5 12 t-11.5 29q0 18 12 29z" />
<glyph unicode="&#x67e;" horiz-adv-x="312" arabic-form="initial" d="M4 0h-4v57h6q64 0 93 33t29 107v204h60v-213q0 -188 -184 -188zM80 -162q-20 -19 -45.5 -8t-25.5 39q0 17 12 28.5t29 11.5q18 0 29.5 -11.5t11.5 -28.5q0 -18 -11 -31zM183 -173q-18 0 -30 11.5t-12 30.5q0 17 12 28.5t30 11.5q17 0 28.5 -11.5t11.5 -28.5 q0 -19 -11.5 -30.5t-28.5 -11.5zM148 -259q-20 -20 -45.5 -9t-25.5 38q-2 25 19.5 35.5t43 0t19.5 -35.5q0 -16 -11 -29z" />
<glyph unicode="&#x67e;" horiz-adv-x="324" arabic-form="medial" d="M324 57q20 0 20 -28q0 -29 -20 -29q-120 0 -160 76q-42 -76 -160 -76h-4v57h6q64 0 93 33t29 107v204h60v-213v-4q0 -127 136 -127zM120 -131q0 -19 -11.5 -30.5t-29.5 -11.5q-17 0 -29 11.5t-12 30.5q0 17 12 28.5t29 11.5q18 0 29.5 -11.5t11.5 -28.5zM212 -91 q17 0 28.5 -11.5t11.5 -28.5q0 -19 -11.5 -30.5t-28.5 -11.5q-18 0 -30 11.5t-12 30.5q0 17 12 28.5t30 11.5zM118 -201q19 19 44.5 8.5t25.5 -37.5q0 -17 -11.5 -29t-29.5 -12t-29.5 12t-11.5 29q0 18 12 29z" />
<glyph unicode="&#x679;" horiz-adv-x="998" arabic-form="final" d="M570 488q0 -25 -9 -52h-247v33h51v168h33v-107q38 50 90 50q38 0 60 -25t22 -67zM486 547q-27 0 -51 -20.5t-38 -57.5h139q2 18 2 19q0 27 -14 43t-38 16zM998 57q20 0 20 -28q0 -29 -20 -29q-120 0 -161 78q-50 -78 -167 -78h-394q-108 0 -169 50t-61 138q0 68 32 156 l56 -15q-27 -87 -27 -131q0 -141 177 -141h379q71 0 105 33.5t34 106.5v204h60v-217q0 -127 136 -127z" />
<glyph unicode="&#x679;" horiz-adv-x="249" arabic-form="initial" d="M197 668q38 0 60 -25t22 -67q0 -25 -9 -52h-247v33h51v168h33v-107q38 50 90 50zM195 635q-27 0 -51 -20.5t-38 -57.5h139q2 18 2 19q0 27 -14 43t-38 16zM128 197v204h60v-213q0 -97 -46.5 -142.5t-141.5 -45.5v57q69 0 98.5 32.5t29.5 107.5z" />
<glyph unicode="&#x679;" horiz-adv-x="324" arabic-form="medial" d="M279 576q0 -25 -9 -52h-247v33h51v168h33v-107q38 50 90 50q38 0 60 -25t22 -67zM195 635q-27 0 -51 -20.5t-38 -57.5h139q2 18 2 19q0 27 -14 43t-38 16zM324 57q20 0 20 -28q0 -29 -20 -29q-120 0 -160 76q-42 -76 -164 -76v57q69 0 98.5 32.5t29.5 107.5v204h60v-213 v-4q0 -127 136 -127z" />
<glyph unicode="&#x6a4;" horiz-adv-x="1075" arabic-form="final" d="M788 632q-18 0 -29.5 12t-11.5 30q0 17 11.5 29t29.5 12q17 0 28.5 -12t11.5 -29q0 -18 -11.5 -30t-28.5 -12zM719 533q-17 0 -29 11.5t-12 29.5q0 17 12 29t29 12q18 0 29.5 -12t11.5 -29q0 -18 -11.5 -29.5t-29.5 -11.5zM810 574q0 17 12 29t30 12q17 0 28.5 -12 t11.5 -29q0 -18 -11.5 -29.5t-28.5 -11.5q-18 0 -30 11.5t-12 29.5zM958 57h117q20 0 20 -28q0 -29 -20 -29h-112q-103 0 -178 21q-75 -21 -183 -21h-326q-108 0 -169 50t-61 138q0 68 32 156l56 -15q-27 -87 -27 -131q0 -141 177 -141h321q62 0 89 7q-48 28 -76.5 73 t-28.5 98q0 77 55 126q56 50 143 50t140 -49t53 -127q0 -111 -106 -172q38 -6 84 -6zM651 235q0 -53 37.5 -94.5t96.5 -60.5q54 16 94 58q39 42 39 98q0 53 -36.5 85t-95.5 32t-97 -33t-38 -85z" />
<glyph unicode="&#x6a4;" horiz-adv-x="552" arabic-form="initial" d="M300 632q-18 0 -29.5 12t-11.5 30q0 17 11.5 29t29.5 12q17 0 28.5 -12t11.5 -29q0 -18 -11.5 -30t-28.5 -12zM231 533q-17 0 -29 11.5t-12 29.5q0 17 12 29t29 12q18 0 29.5 -12t11.5 -29q0 -18 -11.5 -29.5t-29.5 -11.5zM322 574q0 17 12 29t30 12q17 0 28.5 -12 t11.5 -29q0 -18 -11.5 -29.5t-28.5 -11.5q-18 0 -30 11.5t-12 29.5zM299 411q90 0 138.5 -58t48.5 -156q0 -85 -44 -197h-442v57h145q-56 59 -56 146q0 91 59 150q58 58 151 58zM214 57h186q24 76 24 137q0 75 -34 117t-96 42q-65 0 -104 -42t-39 -109q0 -79 63 -145z" />
<glyph unicode="&#x6a4;" horiz-adv-x="575" arabic-form="medial" d="M288 632q-18 0 -29.5 12t-11.5 30q0 17 11.5 29t29.5 12q17 0 28.5 -12t11.5 -29q0 -18 -11.5 -30t-28.5 -12zM219 533q-17 0 -29 11.5t-12 29.5q0 17 12 29t29 12q18 0 29.5 -12t11.5 -29q0 -18 -11.5 -29.5t-29.5 -11.5zM310 574q0 17 12 29t30 12q17 0 28.5 -12 t11.5 -29q0 -18 -11.5 -29.5t-28.5 -11.5q-18 0 -30 11.5t-12 29.5zM458 57h117q20 0 20 -28q0 -29 -20 -29h-112q-103 0 -178 21q-75 -21 -183 -21h-102v57h105q62 0 89 7q-48 28 -76.5 73t-28.5 98q0 77 55 126q56 50 143 50t140 -49t53 -127q0 -111 -106 -172 q38 -6 84 -6zM151 235q0 -53 37.5 -94.5t96.5 -60.5q54 16 94 58q39 42 39 98q0 53 -36.5 85t-95.5 32t-97 -33t-38 -85z" />
<glyph unicode="&#x686;" horiz-adv-x="658" arabic-form="final" d="M536 57h122q20 0 20 -28q0 -29 -20 -29h-444q-54 0 -83.5 -25.5t-29.5 -72.5q0 -50 35 -76.5t99 -26.5q32 0 63 7l12 -57q-34 -9 -82 -9q-85 0 -136.5 43.5t-51.5 117.5q0 72 45.5 114t122.5 42h266q12 45 12 88q0 97 -52.5 152.5t-149.5 55.5q-48 0 -114 -20l-15 54 q65 24 138 24q121 0 186 -69.5t65 -192.5q0 -38 -8 -92zM288 -60q13 0 21 -8t8 -20q0 -13 -8 -21t-21 -8q-12 0 -20.5 8t-8.5 21q0 12 8.5 20t20.5 8zM381 -60q12 0 20 -8t8 -20q0 -13 -8 -21t-20 -8q-13 0 -21 8t-8 21q0 12 8 20t21 8zM335 -128q13 0 21 -8t8 -21 q0 -12 -8 -20.5t-21 -8.5q-12 0 -20 8.5t-8 20.5q0 13 8 21t20 8z" />
<glyph unicode="&#x686;" horiz-adv-x="490" arabic-form="initial" d="M401 0h-401v57h353q10 40 11.5 79.5t-9 79t-32.5 69.5t-63 49t-97 19q-49 0 -114 -20l-15 54q64 24 138 24q160 0 219.5 -114t9.5 -297zM129 -173q-17 0 -29 11.5t-12 30.5q0 17 12 28.5t29 11.5q18 0 29.5 -11.5t11.5 -28.5q0 -19 -11.5 -30.5t-29.5 -11.5zM262 -173 q-18 0 -30 11.5t-12 30.5q0 17 12 28.5t30 11.5q17 0 28.5 -11.5t11.5 -28.5q0 -19 -11.5 -30.5t-28.5 -11.5zM227 -259q-20 -20 -45.5 -9t-25.5 38q-2 25 19.5 35.5t43 0t19.5 -35.5q0 -16 -11 -29z" />
<glyph unicode="&#x686;" horiz-adv-x="536" arabic-form="medial" d="M414 57h122q20 0 20 -28q0 -29 -20 -29h-536v57h353q10 40 11.5 79.5t-9 79t-32.5 69.5t-63 49t-97 19q-49 0 -114 -20l-15 54q64 24 138 24q147 0 210 -96q62 -98 32 -258zM170 -131q0 -19 -11.5 -30.5t-29.5 -11.5q-17 0 -29 11.5t-12 30.5q0 17 12 28.5t29 11.5 q18 0 29.5 -11.5t11.5 -28.5zM262 -91q17 0 28.5 -11.5t11.5 -28.5q0 -19 -11.5 -30.5t-28.5 -11.5q-18 0 -30 11.5t-12 30.5q0 17 12 28.5t30 11.5zM168 -201q19 19 44.5 8.5t25.5 -37.5q0 -17 -11.5 -29t-29.5 -12t-29.5 12t-11.5 29q0 18 12 29z" />
<glyph unicode="&#x688;" horiz-adv-x="555" arabic-form="final" d="M312 582q0 -25 -9 -52h-247v33h51v168h33v-107q38 50 90 50q38 0 60 -25t22 -67zM228 641q-27 0 -51 -20.5t-38 -57.5h139q2 18 2 19q0 27 -14 43t-38 16zM442 57h113q20 0 20 -28q0 -29 -20 -29h-515v57h342v22q0 169 -206 303l36 48q128 -84 179 -170t51 -199v-4z" />
<glyph unicode="&#x698;" horiz-adv-x="336" arabic-form="final" d="M177 622q-18 0 -29.5 12t-11.5 30q0 17 11.5 29t29.5 12q17 0 28.5 -12t11.5 -29q0 -18 -11.5 -30t-28.5 -12zM108 523q-17 0 -29 11.5t-12 29.5q0 17 12 29t29 12q18 0 29.5 -12t11.5 -29q0 -18 -11.5 -29.5t-29.5 -11.5zM199 564q0 17 12 29t30 12q17 0 28.5 -12 t11.5 -29q0 -18 -11.5 -29.5t-28.5 -11.5q-18 0 -30 11.5t-12 29.5zM204 57h132q20 0 20 -28q0 -29 -20 -29h-137v6q-27 -155 -191 -178l-12 56q79 13 114 55.5t35 129.5v332h60v-320q0 -19 -1 -24z" />
<glyph unicode="&#x691;" horiz-adv-x="336" arabic-form="final" d="M296 576q0 -25 -9 -52h-247v33h51v168h33v-107q38 50 90 50q38 0 60 -25t22 -67zM212 635q-27 0 -51 -20.5t-38 -57.5h139q2 18 2 19q0 27 -14 43t-38 16zM204 57h132q20 0 20 -28q0 -29 -20 -29h-137v6q-27 -155 -191 -178l-12 56q79 13 114 55.5t35 129.5v332h60v-320 q0 -19 -1 -24z" />
<glyph unicode="&#x6a9;" horiz-adv-x="914" arabic-form="final" d="M782 57h132q20 0 20 -28q0 -29 -20 -29h-638q-108 0 -169 50t-61 138q0 68 32 156l56 -15q-27 -87 -27 -131q0 -141 177 -141h440v46q0 113 -68 184q-68 68 -237 121v60l283 273l40 -41l-262 -253q170 -56 236 -140q66 -85 66 -214v-36z" />
<glyph unicode="&#x6a9;" horiz-adv-x="466" arabic-form="initial" d="M360 700l-262 -253q170 -56 236 -140q66 -85 66 -214v-93h-400v57h342v46q0 113 -68 184q-68 68 -237 121v60l283 273z" />
<glyph unicode="&#x6a9;" horiz-adv-x="528" arabic-form="medial" d="M400 57h128q20 0 20 -28q0 -29 -20 -29h-528v57h342v46q0 113 -68 184q-68 68 -237 121v60l283 273l40 -41l-262 -253q170 -56 236 -140q66 -85 66 -214v-36z" />
<glyph unicode="&#x6af;" horiz-adv-x="914" arabic-form="final" d="M626 818l40 -40l-253 -242l-41 41zM782 57h132q20 0 20 -28q0 -29 -20 -29h-638q-108 0 -169 50t-61 138q0 68 32 156l56 -15q-27 -87 -27 -131q0 -141 177 -141h440v46q0 113 -68 184q-68 68 -237 121v60l283 273l40 -41l-262 -253q170 -56 236 -140q66 -85 66 -214v-36 z" />
<glyph unicode="&#x6af;" horiz-adv-x="466" arabic-form="initial" d="M284 778l-253 -242l-41 41l254 241zM360 700l-262 -253q170 -56 236 -140q66 -85 66 -214v-93h-400v57h342v46q0 113 -68 184q-68 68 -237 121v60l283 273z" />
<glyph unicode="&#x6af;" horiz-adv-x="528" arabic-form="medial" d="M244 818l40 -40l-253 -242l-41 41zM400 57h128q20 0 20 -28q0 -29 -20 -29h-528v57h342v46q0 113 -68 184q-68 68 -237 121v60l283 273l40 -41l-262 -253q170 -56 236 -140q66 -85 66 -214v-36z" />
<glyph unicode="&#x6ba;" horiz-adv-x="696" arabic-form="final" d="M569 57h127q20 0 20 -28q0 -29 -20 -29h-136q-21 -80 -87 -122t-168 -42q-122 0 -190.5 61.5t-68.5 164.5q0 78 41 177l53 -19q-33 -82 -33 -151q0 -86 52 -130t148 -44q202 0 202 195v238h60v-253v-18z" />
<glyph unicode="&#x6c1;" horiz-adv-x="575" arabic-form="final" d="M87 -8l-47 20q53 113 121.5 177t141.5 64q45 0 76 -23t65 -81q33 -59 58 -75q25 -17 73 -17q20 0 20 -30q0 -27 -20 -27q-69 0 -103 22q-36 22 -73 88q-29 51 -49.5 68.5t-50.5 17.5q-53 0 -109.5 -55t-102.5 -149z" />
<glyph unicode="&#x6c1;" horiz-adv-x="249" arabic-form="initial" d="M0 0v57q69 0 98.5 32.5t29.5 107.5v204h60v-213q0 -97 -46.5 -142.5t-141.5 -45.5zM141 -221l-48 -24q-30 43 -30 102q0 49 24 99l43 -12q-16 -36 -16 -75q0 -47 27 -90z" />
<glyph unicode="&#x6c1;" horiz-adv-x="382" arabic-form="medial" d="M368 57h14q20 0 20 -28q0 -29 -20 -29h-13q-61 0 -95 -40.5t-34 -116.5q0 -38 9 -83q-96 6 -153.5 59.5t-57.5 145.5q0 17 2 35h-41v57h108q-11 -46 -11 -83q0 -114 93 -151q-1 7 -1 29q0 95 50 150t130 55z" />
<glyph unicode="&#x6be;" horiz-adv-x="637" arabic-form="final" d="M506 57h131q20 0 20 -28q0 -29 -20 -29h-87q26 -50 26 -91q0 -68 -48.5 -108.5t-129.5 -40.5q-89 0 -134 46.5t-45 135.5v58h-23q-89 0 -156 29l18 54q63 -26 138 -26h23v132q0 103 46 161t134 58q81 0 126 -53q44 -55 44 -133q0 -105 -63 -165zM279 196v-139h91 q62 0 100.5 45t38.5 115q0 60 -31 96t-84 36q-55 0 -85 -39.5t-30 -113.5zM402 -181q55 0 83.5 25t28.5 70q0 42 -29 86h-206v-53q0 -128 123 -128z" />
<glyph unicode="&#x6be;" horiz-adv-x="619" arabic-form="initial" d="M77 370l9 53q115 -9 200 -29.5t148.5 -57t96 -93t32.5 -132.5q0 -52 -14 -111h-171q-81 0 -145 23q-60 -23 -146 -23h-87v57h87q38 0 76 8q-34 25 -54 65t-20 86q0 47 22.5 86.5t61.5 59.5q-18 3 -96 8zM144 218q0 -47 23.5 -83t63.5 -55q45 18 72.5 54t27.5 85 q0 50 -26.5 82t-66.5 32q-41 0 -67.5 -33t-26.5 -82zM366 57h135q6 29 6 60q0 141 -152 203q31 -43 31 -101q0 -48 -23.5 -89.5t-61.5 -66.5q35 -6 65 -6z" />
<glyph unicode="&#x6be;" horiz-adv-x="506" arabic-form="medial" d="M375 57h131q20 0 20 -28q0 -29 -20 -29h-87q26 -50 26 -91q0 -68 -48.5 -108.5t-129.5 -40.5q-89 0 -134 46.5t-45 135.5v58h-88v57h88v132q0 103 46 161t134 58q81 0 126 -53q44 -55 44 -133q0 -105 -63 -165zM148 196v-139h91q62 0 100.5 45t38.5 115q0 60 -31.5 96 t-84.5 36q-54 0 -84 -39.5t-30 -113.5zM271 -181q55 0 83.5 25t28.5 70q0 42 -29 86h-206v-53q0 -65 30 -96.5t93 -31.5z" />
<glyph unicode="&#x6d2;" horiz-adv-x="414" arabic-form="final" d="M344 -260q-160 0 -235.5 39.5t-75.5 123.5q0 74 55.5 114t156.5 40h169q20 0 20 -28q0 -29 -20 -29h-175q-149 0 -149 -95q0 -57 61.5 -81.5t206.5 -24.5q164 0 367 36l3 -58q-221 -37 -384 -37z" />
<glyph unicode="&#x6d3;" horiz-adv-x="414" arabic-form="final" d="M204 224h113v-40h-206v40h50q-21 33 -21 70q0 42 28.5 67.5t74.5 25.5q31 0 62 -7l-8 -39q-37 5 -46 5q-31 0 -50 -15t-19 -43q0 -30 22 -64zM725 -165l3 -58q-221 -37 -384 -37q-160 0 -235.5 39.5t-75.5 123.5q0 74 55.5 114t156.5 40h169q20 0 20 -28q0 -29 -20 -29 h-175q-149 0 -149 -95q0 -57 61.5 -81.5t206.5 -24.5q164 0 367 36z" />
<glyph unicode="&#x649;" horiz-adv-x="249" arabic-form="initial" d="M0 0v57q69 0 98.5 32.5t29.5 107.5v204h60v-213q0 -97 -46.5 -142.5t-141.5 -45.5z" />
<glyph unicode="&#x649;" horiz-adv-x="324" arabic-form="medial" d="M324 57q20 0 20 -28q0 -29 -20 -29q-120 0 -160 76q-42 -76 -164 -76v57q69 0 98.5 32.5t29.5 107.5v204h60v-213v-4q0 -127 136 -127z" />
<glyph unicode="&#x6cc;" horiz-adv-x="764" arabic-form="final" d="M653 57h111q20 0 20 -28q0 -29 -20 -29h-98q44 -29 44 -83q0 -73 -93 -126q-93 -51 -245 -51q-162 0 -244 58.5t-82 168.5q0 55 23 129l56 -15q-18 -66 -18 -107q0 -89 65 -132t204 -43q127 0 199 34q74 35 74 87q0 66 -128 98l-115 29l15 51l135 -32q38 -9 97 -9z" />
<glyph unicode="&#x6cc;" horiz-adv-x="279" arabic-form="initial" d="M4 0h-4v57h6q64 0 93 33t29 107v204h60v-213q0 -188 -184 -188zM50 -172q-17 0 -29 11.5t-12 29.5t12 29.5t29 11.5q25 2 35.5 -19.5t0 -43t-35.5 -19.5zM183 -172q-26 -2 -36.5 19.5t0 43t36.5 19.5q24 2 34.5 -19.5t0 -43t-34.5 -19.5z" />
<glyph unicode="&#x6cc;" horiz-adv-x="324" arabic-form="medial" d="M324 57q20 0 20 -28q0 -29 -20 -29q-120 0 -160 76q-42 -76 -160 -76h-4v57h6q64 0 93 33t29 107v204h60v-213v-4q0 -127 136 -127zM79 -90q25 2 35.5 -19.5t0 -43t-35.5 -19.5q-17 0 -29 11.5t-12 29.5t12 29.5t29 11.5zM212 -90q24 2 34.5 -19.5t0 -43t-34.5 -19.5 q-26 -2 -36.5 19.5t0 43t36.5 19.5z" />
<glyph unicode="&#xfdfa;" horiz-adv-x="1120" arabic-form="isolated" d="M257 677q-24 0 -24 26q0 11 4 19l16 -4q-3 -8 -3 -11q0 -7 5 -10t10 0t5 10v9l14 2q1 -5 1 -16q4 -4 10 -4q10 0 10 12q0 7 -4 14l17 6q5 -17 5 -24q0 -27 -25 -27q-10 0 -18 7q-9 -9 -23 -9zM108 467q-34 0 -54 17.5t-20 48.5q0 37 24 58t69 21h63v-86q0 -14 7.5 -20 t26.5 -6t27 9t8 30v124h41v-127q0 -36 36 -36q20 0 28 9.5t8 31.5v167h41v-176q0 -39 -18.5 -55.5t-58.5 -16.5q-39 0 -54 23q-17 -23 -60 -23q-44 0 -60 19q-24 -12 -54 -12zM513 353q-50 0 -76 19t-26 52q0 16 7 33l39 -8q-3 -9 -3 -18q0 -38 62 -38q42 0 66.5 12.5 t24.5 33.5q0 12 -13 19t-50 17l10 35q36 -10 71 -10q20 0 28 9.5t8 33.5v165h41v-172q0 -36 38 -36t38 37v57h40v-63q0 -26 22 -30q62 119 142 119q39 0 61 -25t22 -68q0 -31 -12 -67h-201q-37 0 -50 22q-16 -22 -61 -22q-37 0 -52 23q-14 -23 -54 -23q15 -11 15 -29 q0 -34 -37.5 -56t-99.5 -22zM463 708h42v-234h-42v234zM979 582q-52 0 -97 -82l137 -1q6 22 6 31q0 24 -12.5 38t-33.5 14zM149 579h-27q-48 0 -48 -40q0 -35 42 -35q19 0 33 8v67zM971 263q0 -25 15 -41h78v-40h-259q-41 0 -55 23q-15 -23 -60 -23h-156v-203q0 -36 38 -36 h17q33 0 33 35v54h41v-60q0 -29 31 -29t31 35v54h40v-60q0 -29 31 -29t31 36v79h41v-93q0 -62 -66 -62q-32 0 -50 24q-16 -24 -51 -24q-34 0 -51 23q-20 -23 -59 -23h-19q-38 0 -55 24q-17 -24 -61 -24h-187q-23 -23 -65 -23h-35q-12 9 -20 24l-21 -1q-28 -1 -28 -32v-61 h-40v68q0 65 63 65h12q-2 16 -2 20q0 35 22.5 58t59.5 23q35 0 55.5 -22t20.5 -58q0 -3 -2 -21h166q20 0 28.5 9.5t8.5 31.5v198h-140q-40 0 -54 24q-18 -24 -62 -24h-8q-42 0 -60 19q-24 -12 -54 -12q-34 0 -54 17.5t-20 48.5q0 37 24 58t69 21h63v-83q0 -16 8 -22.5 t29 -6.5h2q21 0 30 9.5t9 32.5v70h40v-74q0 -38 40 -38h138v80h42v-80h155q20 0 29 9.5t9 32.5v148h41v-155q0 -35 38 -35h135q-13 22 -13 45q0 34 22 54t61 20q15 0 44 -6l-7 -36q-17 4 -31 4q-46 0 -46 -40zM156 234v67h-28q-48 0 -48 -40q0 -36 42 -36q14 0 34 9z M279 132q0 -10 -6 -16t-15 -6q-22 0 -22 22t22 22q21 0 21 -22zM339 132q0 -22 -20 -22q-22 0 -22 22q0 9 6 15.5t16 6.5q9 0 14.5 -6.5t5.5 -15.5zM982 62q36 0 54.5 -21.5t18.5 -58.5v-58q0 -51 -32 -73t-99 -19l-2 38q91 -4 92 44q-14 -6 -36 -6q-34 0 -54 20t-20 55 q0 34 21.5 56.5t56.5 22.5zM1017 -53v35q0 45 -36 45q-17 0 -27.5 -12.5t-10.5 -32.5q0 -19 11 -30t30 -11q20 0 33 6zM188 -84h16q23 0 36 13t13 35q3 31 -27 40q-29 9 -46 -12q-11 -12 -9 -30q0 -26 17 -46z" />
<glyph unicode="&#x622;" horiz-adv-x="279" arabic-form="final" d="M171 820q-25 0 -76 14q-48 13 -65 13q-24 0 -49 -19l-22 26q37 33 73 33q19 0 67 -13q51 -14 69 -14q27 0 56 26l25 -24q-29 -42 -78 -42zM279 0q-102 0 -150 41.5t-48 127.5v587h60v-583q0 -116 138 -116q20 0 20 -28q0 -29 -20 -29z" />
<glyph unicode="&#x623;" horiz-adv-x="279" arabic-form="final" d="M106 843h87v-32h-160v32h39q-16 26 -16 53q0 34 23 54.5t59 20.5q20 0 46 -6l-6 -32q-18 5 -35 5q-37 0 -49 -27.5t12 -67.5zM279 57q20 0 20 -28q0 -29 -20 -29q-102 0 -150 41.5t-48 127.5v587h60v-583q0 -116 138 -116z" />
<glyph unicode="&#x624;" horiz-adv-x="533" arabic-form="final" d="M232 579h113v-40h-206v40h50q-21 33 -21 70q0 42 28.5 67.5t74.5 25.5q31 0 62 -7l-8 -39q-37 5 -46 5q-31 0 -50 -15t-19 -43q0 -30 22 -64zM432 57h101q20 0 20 -28q0 -29 -20 -29h-103q-23 -173 -272 -173q-28 0 -41 1l-3 55q242 -14 256 117h-77q-118 0 -178 52 t-60 147q0 90 55 151q54 62 141 62q84 0 132.5 -51t48.5 -140v-164zM116 206q0 -76 44.5 -112.5t139.5 -36.5h72v144q0 72 -32 112.5t-91 40.5q-58 0 -95.5 -41.5t-37.5 -106.5z" />
<glyph unicode="&#x625;" horiz-adv-x="279" arabic-form="final" d="M279 57q20 0 20 -28q0 -29 -20 -29q-102 0 -150 41.5t-48 127.5v587h60v-583q0 -116 138 -116zM117 -170q0 -26 16 -48h87v-32h-160v32h38q-15 24 -15 52q0 34 22.5 55t58.5 21q23 0 47 -7l-6 -31q-18 5 -35 5q-24 0 -38.5 -13t-14.5 -34z" />
<glyph unicode="&#x626;" horiz-adv-x="764" arabic-form="final" d="M163 248h113v-40h-206v40h50q-21 33 -21 70q0 42 28.5 67.5t74.5 25.5q31 0 62 -7l-8 -39q-37 5 -46 5q-31 0 -50 -15t-19 -43q0 -30 22 -64zM653 57h111q20 0 20 -28q0 -29 -20 -29h-98q44 -29 44 -83q0 -73 -93 -126q-93 -51 -245 -51q-162 0 -244 58.5t-82 168.5 q0 55 23 129l56 -15q-18 -66 -18 -107q0 -89 65 -132t204 -43q127 0 199 34q74 35 74 87q0 66 -128 98l-115 29l15 51l135 -32q38 -9 97 -9z" />
<glyph unicode="&#x626;" horiz-adv-x="279" arabic-form="initial" d="M140 568h113v-40h-206v40h50q-21 33 -21 70q0 42 28.5 67.5t74.5 25.5q31 0 62 -7l-8 -39q-37 5 -46 5q-31 0 -50 -15t-19 -43q0 -30 22 -64zM128 197v204h60v-213q0 -188 -184 -188h-4v57h6q64 0 93 33t29 107z" />
<glyph unicode="&#x626;" horiz-adv-x="324" arabic-form="medial" d="M140 568h113v-40h-206v40h50q-21 33 -21 70q0 42 28.5 67.5t74.5 25.5q31 0 62 -7l-8 -39q-37 5 -46 5q-31 0 -50 -15t-19 -43q0 -30 22 -64zM324 57q20 0 20 -28q0 -29 -20 -29q-120 0 -160 76q-42 -76 -160 -76h-4v57h6q64 0 93 33t29 107v204h60v-213v-4 q0 -127 136 -127z" />
<glyph unicode="&#x627;" horiz-adv-x="279" arabic-form="final" d="M279 0q-102 0 -150 41.5t-48 127.5v587h60v-583q0 -116 138 -116q20 0 20 -28q0 -29 -20 -29z" />
<glyph unicode="&#x628;" horiz-adv-x="998" arabic-form="final" d="M998 57q20 0 20 -28q0 -29 -20 -29q-120 0 -161 78q-50 -78 -167 -78h-394q-108 0 -169 50t-61 138q0 68 32 156l56 -15q-27 -87 -27 -131q0 -141 177 -141h379q71 0 105 33.5t34 106.5v204h60v-217q0 -127 136 -127zM440 -90q25 0 35 -20.5t0 -41t-35 -20.5 q-26 0 -36.5 20.5t0 41t36.5 20.5z" />
<glyph unicode="&#x628;" horiz-adv-x="249" arabic-form="initial" d="M0 0v57q69 0 98.5 32.5t29.5 107.5v204h60v-213q0 -97 -46.5 -142.5t-141.5 -45.5zM120 -172q-26 0 -36.5 20.5t0 41t36.5 20.5q25 0 35 -20.5t0 -41t-35 -20.5z" />
<glyph unicode="&#x628;" horiz-adv-x="324" arabic-form="medial" d="M324 57q20 0 20 -28q0 -29 -20 -29q-120 0 -160 76q-42 -76 -164 -76v57q69 0 98.5 32.5t29.5 107.5v204h60v-213v-4q0 -127 136 -127zM148 -90q25 0 35 -20.5t0 -41t-35 -20.5q-26 0 -36.5 20.5t0 41t36.5 20.5z" />
<glyph unicode="&#x629;" horiz-adv-x="549" arabic-form="final" d="M201 520q-17 0 -29 11.5t-12 29.5t12 29.5t29 11.5q25 2 35.5 -19.5t0 -43t-35.5 -19.5zM334 520q-26 -2 -36.5 19.5t0 43t36.5 19.5q24 2 34.5 -19.5t0 -43t-34.5 -19.5zM549 57q20 0 20 -28q0 -29 -20 -29q-141 0 -168 57q-71 -33 -140 -33q-94 0 -147.5 46t-53.5 129 q0 93 61 147.5t168 54.5h159v-250q0 -54 26 -74t95 -20zM366 112v232h-108q-73 0 -115 -36t-42 -103q0 -60 37.5 -91t107.5 -31q68 0 120 29z" />
<glyph unicode="&#x62a;" horiz-adv-x="998" arabic-form="final" d="M382 432q-17 0 -29 11.5t-12 29.5t12 29.5t29 11.5q25 2 35.5 -19.5t0 -43t-35.5 -19.5zM515 432q-26 -2 -36.5 19.5t0 43t36.5 19.5q24 2 34.5 -19.5t0 -43t-34.5 -19.5zM998 57q20 0 20 -28q0 -29 -20 -29q-120 0 -161 78q-50 -78 -167 -78h-394q-108 0 -169 50 t-61 138q0 68 32 156l56 -15q-27 -87 -27 -131q0 -141 177 -141h379q71 0 105 33.5t34 106.5v204h60v-217q0 -127 136 -127z" />
<glyph unicode="&#x62a;" horiz-adv-x="279" arabic-form="initial" d="M90 520q-17 0 -29 11.5t-12 29.5t12 29.5t29 11.5q25 2 35.5 -19.5t0 -43t-35.5 -19.5zM223 520q-26 -2 -36.5 19.5t0 43t36.5 19.5q24 2 34.5 -19.5t0 -43t-34.5 -19.5zM4 0h-4v57h6q64 0 93 33t29 107v204h60v-213q0 -188 -184 -188z" />
<glyph unicode="&#x62a;" horiz-adv-x="324" arabic-form="medial" d="M90 520q-17 0 -29 11.5t-12 29.5t12 29.5t29 11.5q25 2 35.5 -19.5t0 -43t-35.5 -19.5zM223 520q-26 -2 -36.5 19.5t0 43t36.5 19.5q24 2 34.5 -19.5t0 -43t-34.5 -19.5zM324 57q20 0 20 -28q0 -29 -20 -29q-120 0 -160 76q-42 -76 -160 -76h-4v57h6q64 0 93 33t29 107 v204h60v-213v-4q0 -127 136 -127z" />
<glyph unicode="&#x62b;" horiz-adv-x="998" arabic-form="final" d="M451 534q-18 0 -29.5 12t-11.5 30q0 17 11.5 29t29.5 12q17 0 28.5 -12t11.5 -29q0 -18 -11.5 -30t-28.5 -12zM382 435q-17 0 -29 11.5t-12 29.5q0 17 12 29t29 12q18 0 29.5 -12t11.5 -29q0 -18 -11.5 -29.5t-29.5 -11.5zM473 476q0 17 12 29t30 12q17 0 28.5 -12 t11.5 -29q0 -18 -11.5 -29.5t-28.5 -11.5q-18 0 -30 11.5t-12 29.5zM998 57q20 0 20 -28q0 -29 -20 -29q-120 0 -161 78q-50 -78 -167 -78h-394q-108 0 -169 50t-61 138q0 68 32 156l56 -15q-27 -87 -27 -131q0 -141 177 -141h379q71 0 105 33.5t34 106.5v204h60v-217 q0 -127 136 -127z" />
<glyph unicode="&#x62b;" horiz-adv-x="279" arabic-form="initial" d="M159 622q-18 0 -29.5 12t-11.5 30q0 17 11.5 29t29.5 12q17 0 28.5 -12t11.5 -29q0 -18 -11.5 -30t-28.5 -12zM90 523q-17 0 -29 11.5t-12 29.5q0 17 12 29t29 12q18 0 29.5 -12t11.5 -29q0 -18 -11.5 -29.5t-29.5 -11.5zM223 523q-18 0 -30 11.5t-12 29.5q0 17 12 29 t30 12q17 0 28.5 -12t11.5 -29q0 -18 -11.5 -29.5t-28.5 -11.5zM4 0h-4v57h6q64 0 93 33t29 107v204h60v-213q0 -188 -184 -188z" />
<glyph unicode="&#x62b;" horiz-adv-x="324" arabic-form="medial" d="M159 622q-18 0 -29.5 12t-11.5 30q0 17 11.5 29t29.5 12q17 0 28.5 -12t11.5 -29q0 -18 -11.5 -30t-28.5 -12zM90 523q-17 0 -29 11.5t-12 29.5q0 17 12 29t29 12q18 0 29.5 -12t11.5 -29q0 -18 -11.5 -29.5t-29.5 -11.5zM181 564q0 17 12 29t30 12q17 0 28.5 -12 t11.5 -29q0 -18 -11.5 -29.5t-28.5 -11.5q-18 0 -30 11.5t-12 29.5zM324 57q20 0 20 -28q0 -29 -20 -29q-120 0 -160 76q-42 -76 -160 -76h-4v57h6q64 0 93 33t29 107v204h60v-213v-4q0 -127 136 -127z" />
<glyph unicode="&#x62c;" horiz-adv-x="658" arabic-form="final" d="M536 57h122q20 0 20 -28q0 -29 -20 -29h-444q-54 0 -83.5 -25.5t-29.5 -72.5q0 -50 35 -76.5t99 -26.5q32 0 63 7l12 -57q-34 -9 -82 -9q-85 0 -136.5 43.5t-51.5 117.5q0 72 45.5 114t122.5 42h266q12 45 12 88q0 97 -52.5 152.5t-149.5 55.5q-48 0 -114 -20l-15 54 q65 24 138 24q121 0 186 -69.5t65 -192.5q0 -38 -8 -92zM257 -68q19 18 42 8t23 -35q0 -17 -10.5 -27.5t-26.5 -10.5q-26 0 -36.5 23.5t8.5 41.5z" />
<glyph unicode="&#x62c;" horiz-adv-x="490" arabic-form="initial" d="M401 0h-401v57h353q10 40 11.5 79.5t-9 79t-32.5 69.5t-63 49t-97 19q-49 0 -114 -20l-15 54q64 24 138 24q160 0 219.5 -114t9.5 -297zM198 -172q-26 0 -36.5 20.5t0 41t36.5 20.5q25 0 35 -20.5t0 -41t-35 -20.5z" />
<glyph unicode="&#x62c;" horiz-adv-x="536" arabic-form="medial" d="M414 57h122q20 0 20 -28q0 -29 -20 -29h-536v57h353q10 40 11.5 79.5t-9 79t-32.5 69.5t-63 49t-97 19q-49 0 -114 -20l-15 54q64 24 138 24q147 0 210 -96q62 -98 32 -258zM198 -90q25 0 35 -20.5t0 -41t-35 -20.5q-26 0 -36.5 20.5t0 41t36.5 20.5z" />
<glyph unicode="&#x62d;" horiz-adv-x="658" arabic-form="final" d="M536 57h122q20 0 20 -28q0 -29 -20 -29h-444q-54 0 -83.5 -25.5t-29.5 -72.5q0 -50 35 -76.5t99 -26.5q39 0 93 14l11 -55q-57 -18 -111 -18q-85 0 -136.5 43.5t-51.5 117.5q0 72 45.5 114t122.5 42h266q12 45 12 88q0 97 -52.5 152.5t-149.5 55.5q-48 0 -114 -20l-15 54 q65 24 138 24q121 0 186 -69.5t65 -192.5q0 -38 -8 -92z" />
<glyph unicode="&#x62d;" horiz-adv-x="490" arabic-form="initial" d="M401 0h-401v57h353q10 40 11.5 79.5t-9 79t-32.5 69.5t-63 49t-97 19q-49 0 -114 -20l-15 54q64 24 138 24q160 0 219.5 -114t9.5 -297z" />
<glyph unicode="&#x62d;" horiz-adv-x="536" arabic-form="medial" d="M414 57h122q20 0 20 -28q0 -29 -20 -29h-536v57h353q10 40 11.5 79.5t-9 79t-32.5 69.5t-63 49t-97 19q-49 0 -114 -20l-15 54q64 24 138 24q147 0 210 -96q62 -98 32 -258z" />
<glyph unicode="&#x62e;" horiz-adv-x="658" arabic-form="final" d="M293 530q-26 0 -36.5 20.5t0 41t36.5 20.5q25 0 35 -20.5t0 -41t-35 -20.5zM536 57h122q20 0 20 -28q0 -29 -20 -29h-444q-54 0 -83.5 -25.5t-29.5 -72.5q0 -50 35 -76.5t99 -26.5q39 0 93 14l11 -55q-57 -18 -111 -18q-85 0 -136.5 43.5t-51.5 117.5q0 72 45.5 114 t122.5 42h266q12 45 12 88q0 97 -52.5 152.5t-149.5 55.5q-48 0 -114 -20l-15 54q65 24 138 24q121 0 186 -69.5t65 -192.5q0 -38 -8 -92z" />
<glyph unicode="&#x62e;" horiz-adv-x="490" arabic-form="initial" d="M172 530q-26 0 -36.5 20.5t0 41t36.5 20.5q25 0 35 -20.5t0 -41t-35 -20.5zM401 0h-401v57h353q10 40 11.5 79.5t-9 79t-32.5 69.5t-63 49t-97 19q-49 0 -114 -20l-15 54q64 24 138 24q160 0 219.5 -114t9.5 -297z" />
<glyph unicode="&#x62e;" horiz-adv-x="536" arabic-form="medial" d="M172 530q-26 0 -36.5 20.5t0 41t36.5 20.5q25 0 35 -20.5t0 -41t-35 -20.5zM414 57h122q20 0 20 -28q0 -29 -20 -29h-536v57h353q10 40 11.5 79.5t-9 79t-32.5 69.5t-63 49t-97 19q-49 0 -114 -20l-15 54q64 24 138 24q147 0 210 -96q62 -98 32 -258z" />
<glyph unicode="&#x62f;" horiz-adv-x="555" arabic-form="final" d="M442 57h113q20 0 20 -28q0 -29 -20 -29h-515v57h342v22q0 169 -206 303l36 48q128 -84 179 -170t51 -199v-4z" />
<glyph unicode="&#x630;" horiz-adv-x="555" arabic-form="final" d="M192 526q-26 0 -36.5 20.5t0 41t36.5 20.5q25 0 35 -20.5t0 -41t-35 -20.5zM442 57h113q20 0 20 -28q0 -29 -20 -29h-515v57h342v22q0 169 -206 303l36 48q128 -84 179 -170t51 -199v-4z" />
<glyph unicode="&#x631;" horiz-adv-x="336" arabic-form="final" d="M204 57h132q20 0 20 -28q0 -29 -20 -29h-137v6q-27 -155 -191 -178l-12 56q79 13 114 55.5t35 129.5v332h60v-320q0 -19 -1 -24z" />
<glyph unicode="&#x632;" horiz-adv-x="336" arabic-form="final" d="M176 520q-26 0 -36.5 20.5t0 41t36.5 20.5q25 0 35 -20.5t0 -41t-35 -20.5zM204 57h132q20 0 20 -28q0 -29 -20 -29h-137v6q-27 -155 -191 -178l-12 56q79 13 114 55.5t35 129.5v332h60v-320q0 -19 -1 -24z" />
<glyph unicode="&#x633;" horiz-adv-x="1267" arabic-form="final" d="M1267 57q20 0 20 -28q0 -29 -20 -29q-118 0 -159 74q-42 -74 -147 -74q-104 0 -140 74q-40 -76 -145 -76q-74 0 -108 46q-10 -100 -79 -154t-184 -54q-122 0 -190.5 61.5t-68.5 164.5q0 78 41 177l53 -19q-33 -82 -33 -151q0 -86 52 -130t148 -44q202 0 202 195v238h60 v-171q0 -100 107 -100q56 0 84 31.5t28 102.5v137h60v-166q0 -105 112 -105q58 0 84.5 33t26.5 107v204h60v-217q0 -127 136 -127z" />
<glyph unicode="&#x633;" horiz-adv-x="818" arabic-form="initial" d="M697 197v204h60v-228q0 -82 -45 -127.5t-126 -45.5q-101 0 -139 74q-38 -74 -145 -74q-104 0 -134 70q-19 -32 -60 -51t-96 -19h-12v57h13q62 0 92 31.5t30 102.5v137h60v-167q0 -104 106 -104q58 0 85.5 31.5t27.5 102.5v137h60v-166q0 -105 112 -105q58 0 84.5 33.5 t26.5 106.5z" />
<glyph unicode="&#x633;" horiz-adv-x="893" arabic-form="medial" d="M893 57q20 0 20 -28q0 -29 -20 -29q-119 0 -159 75q-40 -75 -148 -75q-101 0 -139 74q-38 -74 -145 -74q-104 0 -134 70q-19 -32 -60 -51t-96 -19h-12v57h13q62 0 92 31.5t30 102.5v137h60v-167q0 -104 106 -104q58 0 85.5 31.5t27.5 102.5v137h60v-166q0 -105 112 -105 q58 0 84.5 33.5t26.5 106.5v204h60v-217q0 -127 136 -127z" />
<glyph unicode="&#x634;" horiz-adv-x="1267" arabic-form="final" d="M820 549q-18 0 -29.5 12t-11.5 30q0 17 11.5 29t29.5 12q17 0 28.5 -12t11.5 -29q0 -18 -11.5 -30t-28.5 -12zM751 450q-17 0 -29 11.5t-12 29.5q0 17 12 29t29 12q18 0 29.5 -12t11.5 -29q0 -18 -11.5 -29.5t-29.5 -11.5zM842 491q0 17 12 29t30 12q17 0 28.5 -12 t11.5 -29q0 -18 -11.5 -29.5t-28.5 -11.5q-18 0 -30 11.5t-12 29.5zM1267 57q20 0 20 -28q0 -29 -20 -29q-118 0 -159 74q-42 -74 -147 -74q-104 0 -140 74q-40 -76 -145 -76q-74 0 -108 46q-10 -100 -79 -154t-184 -54q-122 0 -190.5 61.5t-68.5 164.5q0 78 41 177l53 -19 q-33 -82 -33 -151q0 -86 52 -130t148 -44q202 0 202 195v238h60v-171q0 -100 107 -100q56 0 84 31.5t28 102.5v137h60v-166q0 -105 112 -105q58 0 84.5 33t26.5 107v204h60v-217q0 -127 136 -127z" />
<glyph unicode="&#x634;" horiz-adv-x="818" arabic-form="initial" d="M445 549q-18 0 -29.5 12t-11.5 30q0 17 11.5 29t29.5 12q17 0 28.5 -12t11.5 -29q0 -18 -11.5 -30t-28.5 -12zM376 450q-17 0 -29 11.5t-12 29.5q0 17 12 29t29 12q18 0 29.5 -12t11.5 -29q0 -18 -11.5 -29.5t-29.5 -11.5zM467 491q0 17 12 29t30 12q17 0 28.5 -12 t11.5 -29q0 -18 -11.5 -29.5t-28.5 -11.5q-18 0 -30 11.5t-12 29.5zM697 197v204h60v-228q0 -82 -45 -127.5t-126 -45.5q-101 0 -139 74q-38 -74 -145 -74q-104 0 -134 70q-19 -32 -60 -51t-96 -19h-12v57h13q62 0 92 31.5t30 102.5v137h60v-167q0 -104 106 -104 q58 0 85.5 31.5t27.5 102.5v137h60v-166q0 -105 112 -105q58 0 84.5 33.5t26.5 106.5z" />
<glyph unicode="&#x634;" horiz-adv-x="893" arabic-form="medial" d="M445 549q-18 0 -29.5 12t-11.5 30q0 17 11.5 29t29.5 12q17 0 28.5 -12t11.5 -29q0 -18 -11.5 -30t-28.5 -12zM376 450q-17 0 -29 11.5t-12 29.5q0 17 12 29t29 12q18 0 29.5 -12t11.5 -29q0 -18 -11.5 -29.5t-29.5 -11.5zM467 491q0 17 12 29t30 12q17 0 28.5 -12 t11.5 -29q0 -18 -11.5 -29.5t-28.5 -11.5q-18 0 -30 11.5t-12 29.5zM893 57q20 0 20 -28q0 -29 -20 -29q-119 0 -159 75q-40 -75 -148 -75q-101 0 -139 74q-38 -74 -145 -74q-104 0 -134 70q-19 -32 -60 -51t-96 -19h-12v57h13q62 0 92 31.5t30 102.5v137h60v-167 q0 -104 106 -104q58 0 85.5 31.5t27.5 102.5v137h60v-166q0 -105 112 -105q58 0 84.5 33.5t26.5 106.5v204h60v-217q0 -127 136 -127z" />
<glyph unicode="&#x635;" horiz-adv-x="1368" arabic-form="final" d="M1248 57h120q20 0 20 -28q0 -29 -20 -29h-689q-74 0 -112 35q-13 -96 -81.5 -147.5t-180.5 -51.5q-122 0 -190.5 61.5t-68.5 164.5q0 78 41 177l53 -19q-33 -82 -33 -151q0 -86 52 -130t148 -44q202 0 202 195v238h60v-185q0 -65 64 -81q108 202 225 282q100 67 191 67 q101 0 157 -65t56 -176q0 -49 -14 -113zM696 57h487q18 58 18 110q0 84 -42 135t-116 51q-87 0 -176.5 -74.5t-170.5 -221.5z" />
<glyph unicode="&#x635;" horiz-adv-x="928" arabic-form="initial" d="M649 411q101 0 157 -65t56 -176q0 -83 -31 -170h-552q-103 0 -135 68q-32 -68 -144 -68v57q57 0 83.5 32t26.5 102v143h60v-173q0 -77 64 -98q107 201 225 281q101 67 190 67zM296 57h487q18 54 18 110q0 84 -42 135t-116 51q-87 0 -176 -74t-171 -222z" />
<glyph unicode="&#x635;" horiz-adv-x="968" arabic-form="medial" d="M848 57h120q20 0 20 -28q0 -29 -20 -29h-689q-103 0 -135 68q-32 -68 -144 -68v57q57 0 83.5 32t26.5 102v143h60v-173q0 -77 64 -98q107 201 225 281q101 67 190 67q101 0 157 -65t56 -176q0 -49 -14 -113zM296 57h487q18 54 18 110q0 84 -42 135t-116 51 q-87 0 -176 -74t-171 -222z" />
<glyph unicode="&#x636;" horiz-adv-x="1368" arabic-form="final" d="M961 530q-26 0 -36.5 20.5t0 41t36.5 20.5q25 0 35 -20.5t0 -41t-35 -20.5zM1248 57h120q20 0 20 -28q0 -29 -20 -29h-689q-74 0 -112 35q-13 -96 -81.5 -147.5t-180.5 -51.5q-122 0 -190.5 61.5t-68.5 164.5q0 78 41 177l53 -19q-33 -82 -33 -151q0 -86 52 -130t148 -44 q202 0 202 195v238h60v-185q0 -65 64 -81q108 202 225 282q100 67 191 67q101 0 157 -65t56 -176q0 -49 -14 -113zM696 57h487q18 58 18 110q0 84 -42 135t-116 51q-87 0 -176.5 -74.5t-170.5 -221.5z" />
<glyph unicode="&#x636;" horiz-adv-x="928" arabic-form="initial" d="M561 530q-26 0 -36.5 20.5t0 41t36.5 20.5q25 0 35 -20.5t0 -41t-35 -20.5zM649 411q101 0 157 -65t56 -176q0 -83 -31 -170h-552q-103 0 -135 68q-32 -68 -144 -68v57q57 0 83.5 32t26.5 102v143h60v-173q0 -77 64 -98q107 201 225 281q101 67 190 67zM296 57h487 q18 54 18 110q0 84 -42 135t-116 51q-87 0 -176 -74t-171 -222z" />
<glyph unicode="&#x636;" horiz-adv-x="968" arabic-form="medial" d="M561 530q-26 0 -36.5 20.5t0 41t36.5 20.5q25 0 35 -20.5t0 -41t-35 -20.5zM848 57h120q20 0 20 -28q0 -29 -20 -29h-689q-103 0 -135 68q-32 -68 -144 -68v57q57 0 83.5 32t26.5 102v143h60v-173q0 -77 64 -98q107 201 225 281q101 67 190 67q101 0 157 -65t56 -176 q0 -49 -14 -113zM296 57h487q18 54 18 110q0 84 -42 135t-116 51q-87 0 -176 -74t-171 -222z" />
<glyph unicode="&#x637;" horiz-adv-x="892" arabic-form="final" d="M771 57h121q20 0 20 -28q0 -29 -20 -29h-846v57h113v699h60v-596q75 122 167.5 186.5t186.5 64.5q101 0 156.5 -65.5t55.5 -175.5q0 -55 -14 -113zM220 57h487q18 59 18 113q0 84 -41.5 133.5t-115.5 49.5q-87 0 -182 -77q-96 -78 -166 -219z" />
<glyph unicode="&#x637;" horiz-adv-x="798" arabic-form="initial" d="M520 411q101 0 156.5 -65.5t55.5 -175.5q0 -83 -30 -170h-702v57h106v699h60v-596q75 122 167.5 186.5t186.5 64.5zM167 57h487q18 59 18 113q0 84 -41.5 133.5t-115.5 49.5q-87 0 -182 -77q-96 -78 -166 -219z" />
<glyph unicode="&#x637;" horiz-adv-x="835" arabic-form="medial" d="M718 57h117q20 0 20 -28q0 -29 -20 -29h-835v57h106v699h60v-596q75 122 167.5 186.5t186.5 64.5q101 0 156.5 -65.5t55.5 -175.5q0 -55 -14 -113zM167 57h487q18 59 18 113q0 84 -41.5 133.5t-115.5 49.5q-87 0 -182 -77q-96 -78 -166 -219z" />
<glyph unicode="&#x638;" horiz-adv-x="892" arabic-form="final" d="M771 57h121q20 0 20 -28q0 -29 -20 -29h-846v57h113v699h60v-596q75 122 167.5 186.5t186.5 64.5q101 0 156.5 -65.5t55.5 -175.5q0 -55 -14 -113zM503 530q-26 0 -36.5 20.5t0 41t36.5 20.5q25 0 35 -20.5t0 -41t-35 -20.5zM220 57h487q18 59 18 113q0 84 -41.5 133.5 t-115.5 49.5q-87 0 -182 -77q-96 -78 -166 -219z" />
<glyph unicode="&#x638;" horiz-adv-x="798" arabic-form="initial" d="M520 411q101 0 156.5 -65.5t55.5 -175.5q0 -83 -30 -170h-702v57h106v699h60v-596q75 122 167.5 186.5t186.5 64.5zM450 530q-26 0 -36.5 20.5t0 41t36.5 20.5q25 0 35 -20.5t0 -41t-35 -20.5zM167 57h487q18 59 18 113q0 84 -41.5 133.5t-115.5 49.5q-87 0 -182 -77 q-96 -78 -166 -219z" />
<glyph unicode="&#x638;" horiz-adv-x="835" arabic-form="medial" d="M718 57h117q20 0 20 -28q0 -29 -20 -29h-835v57h106v699h60v-596q75 122 167.5 186.5t186.5 64.5q101 0 156.5 -65.5t55.5 -175.5q0 -55 -14 -113zM450 530q-26 0 -36.5 20.5t0 41t36.5 20.5q25 0 35 -20.5t0 -41t-35 -20.5zM167 57h487q18 59 18 113q0 84 -41.5 133.5 t-115.5 49.5q-87 0 -182 -77q-96 -78 -166 -219z" />
<glyph unicode="&#x639;" horiz-adv-x="575" arabic-form="final" d="M484 57h91q20 0 20 -28q0 -29 -20 -29h-87q-142 0 -221 43q-166 -57 -166 -147q0 -97 139 -97q46 0 91 12l11 -55q-51 -16 -103 -16q-94 0 -146.5 40t-52.5 115q0 124 186 193q-40 58 -153 186q5 43 13 65q101 72 215 72q84 0 134 -38t50 -104q0 -113 -144 -195 q57 -17 143 -17zM125 304l-1 -5q62 -54 162 -189q64 30 100.5 69.5t36.5 80.5q0 42 -34.5 67.5t-94.5 25.5q-86 0 -169 -49z" />
<glyph unicode="&#x639;" horiz-adv-x="480" arabic-form="initial" d="M212 57h234v-57h-446v57h141q-51 77 -51 156q0 91 59.5 144.5t165.5 53.5q53 0 109 -15l-12 -56q-51 13 -96 13q-77 0 -121 -38.5t-44 -102.5q0 -79 61 -155z" />
<glyph unicode="&#x639;" horiz-adv-x="582" arabic-form="medial" d="M506 57h76q20 0 20 -28q0 -29 -20 -29h-71q-145 0 -233 42q-101 -42 -247 -42h-31v57h36q117 0 195 28q-23 35 -91 113q-3 3 -32.5 34.5t-35.5 38.5q6 42 14 67q99 72 216 72q84 0 133 -38.5t49 -105.5q0 -108 -138 -189q71 -20 160 -20zM125 300l-1 -7q78 -67 165 -182 q134 65 134 147q0 41 -35.5 67t-97.5 26q-82 0 -165 -51z" />
<glyph unicode="&#x63a;" horiz-adv-x="575" arabic-form="final" d="M300 530q-26 0 -36.5 20.5t0 41t36.5 20.5q25 0 35 -20.5t0 -41t-35 -20.5zM484 57h91q20 0 20 -28q0 -29 -20 -29h-87q-142 0 -221 43q-166 -57 -166 -147q0 -97 139 -97q46 0 91 12l11 -55q-51 -16 -103 -16q-94 0 -146.5 40t-52.5 115q0 124 186 193q-40 58 -153 186 q5 43 13 65q101 72 215 72q84 0 134 -38t50 -104q0 -113 -144 -195q57 -17 143 -17zM125 304l-1 -5q62 -54 162 -189q64 30 100.5 69.5t36.5 80.5q0 42 -34.5 67.5t-94.5 25.5q-86 0 -169 -49z" />
<glyph unicode="&#x63a;" horiz-adv-x="480" arabic-form="initial" d="M315 530q-26 0 -36.5 20.5t0 41t36.5 20.5q25 0 35 -20.5t0 -41t-35 -20.5zM212 57h234v-57h-446v57h141q-51 77 -51 156q0 91 59.5 144.5t165.5 53.5q53 0 109 -15l-12 -56q-51 13 -96 13q-77 0 -121 -38.5t-44 -102.5q0 -79 61 -155z" />
<glyph unicode="&#x63a;" horiz-adv-x="582" arabic-form="medial" d="M296 529q-26 0 -36.5 20.5t0 41t36.5 20.5q25 0 35 -20.5t0 -41t-35 -20.5zM506 57h76q20 0 20 -28q0 -29 -20 -29h-71q-145 0 -233 42q-101 -42 -247 -42h-31v57h36q117 0 195 28q-23 35 -91 113q-3 3 -32.5 34.5t-35.5 38.5q6 42 14 67q99 72 216 72q84 0 133 -38.5 t49 -105.5q0 -108 -138 -189q71 -20 160 -20zM125 300l-1 -7q78 -67 165 -182q134 65 134 147q0 41 -35.5 67t-97.5 26q-82 0 -165 -51z" />
<glyph unicode="&#x641;" horiz-adv-x="1075" arabic-form="final" d="M787 530q-26 0 -36.5 20.5t0 41t36.5 20.5q25 0 35 -20.5t0 -41t-35 -20.5zM958 57h117q20 0 20 -28q0 -29 -20 -29h-112q-103 0 -178 21q-75 -21 -183 -21h-326q-108 0 -169 50t-61 138q0 68 32 156l56 -15q-27 -87 -27 -131q0 -141 177 -141h321q62 0 89 7 q-48 28 -76.5 73t-28.5 98q0 77 55 126q56 50 143 50t140 -49t53 -127q0 -111 -106 -172q38 -6 84 -6zM651 235q0 -53 37.5 -94.5t96.5 -60.5q54 16 94 58q39 42 39 98q0 53 -36.5 85t-95.5 32t-97 -33t-38 -85z" />
<glyph unicode="&#x641;" horiz-adv-x="552" arabic-form="initial" d="M299 530q-26 0 -36.5 20.5t0 41t36.5 20.5q25 0 35 -20.5t0 -41t-35 -20.5zM299 411q90 0 138.5 -58t48.5 -156q0 -85 -44 -197h-442v57h145q-56 59 -56 146q0 91 59 150q58 58 151 58zM214 57h186q24 76 24 137q0 75 -34 117t-96 42q-65 0 -104 -42t-39 -109 q0 -79 63 -145z" />
<glyph unicode="&#x641;" horiz-adv-x="575" arabic-form="medial" d="M287 530q-26 0 -36.5 20.5t0 41t36.5 20.5q25 0 35 -20.5t0 -41t-35 -20.5zM458 57h117q20 0 20 -28q0 -29 -20 -29h-112q-103 0 -178 21q-75 -21 -183 -21h-102v57h105q62 0 89 7q-48 28 -76.5 73t-28.5 98q0 77 55 126q56 50 143 50t140 -49t53 -127q0 -111 -106 -172 q38 -6 84 -6zM151 235q0 -53 37.5 -94.5t96.5 -60.5q54 16 94 58q39 42 39 98q0 53 -36.5 85t-95.5 32t-97 -33t-38 -85z" />
<glyph unicode="&#x642;" horiz-adv-x="825" arabic-form="final" d="M461 530q-17 0 -29 11.5t-12 29.5t12 29.5t29 11.5q25 2 35.5 -19.5t0 -43t-35.5 -19.5zM594 530q-26 -2 -36.5 19.5t0 43t36.5 19.5q24 2 34.5 -19.5t0 -43t-34.5 -19.5zM708 57h117q20 0 20 -28q0 -29 -20 -29h-120q-14 -89 -90 -126.5t-229 -37.5q-340 0 -340 232 q0 58 23 130l56 -15q-18 -55 -18 -107q0 -91 68 -136t211 -45q242 0 259 105h-81q-233 0 -233 201q0 86 53 148t145 62q83 0 131 -52t48 -145v-157zM572 57h76v144q0 73 -32 112.5t-92 39.5t-95.5 -41t-35.5 -110q0 -76 44 -110.5t135 -34.5z" />
<glyph unicode="&#x642;" horiz-adv-x="552" arabic-form="initial" d="M231 530q-17 0 -29 11.5t-12 29.5t12 29.5t29 11.5q25 2 35.5 -19.5t0 -43t-35.5 -19.5zM364 530q-26 -2 -36.5 19.5t0 43t36.5 19.5q24 2 34.5 -19.5t0 -43t-34.5 -19.5zM299 411q90 0 138.5 -58t48.5 -156q0 -85 -44 -197h-442v57h145q-56 59 -56 146q0 91 59 150 q58 58 151 58zM214 57h186q24 76 24 137q0 75 -34 117t-96 42q-65 0 -104 -42t-39 -109q0 -79 63 -145z" />
<glyph unicode="&#x642;" horiz-adv-x="575" arabic-form="medial" d="M219 530q-17 0 -29 11.5t-12 29.5t12 29.5t29 11.5q25 2 35.5 -19.5t0 -43t-35.5 -19.5zM352 530q-26 -2 -36.5 19.5t0 43t36.5 19.5q24 2 34.5 -19.5t0 -43t-34.5 -19.5zM458 57h117q20 0 20 -28q0 -29 -20 -29h-112q-103 0 -178 21q-75 -21 -183 -21h-102v57h105 q62 0 89 7q-48 28 -76.5 73t-28.5 98q0 77 55 126q56 50 143 50t140 -49t53 -127q0 -111 -106 -172q38 -6 84 -6zM151 235q0 -53 37.5 -94.5t96.5 -60.5q54 16 94 58q39 42 39 98q0 53 -36.5 85t-95.5 32t-97 -33t-38 -85z" />
<glyph unicode="&#x643;" horiz-adv-x="881" arabic-form="final" d="M881 57q20 0 20 -28q0 -29 -20 -29q-117 0 -158 74q-44 -74 -162 -74h-285q-108 0 -169 50t-61 138q0 68 32 156l56 -15q-27 -87 -27 -131q0 -141 177 -141h277q69 0 96.5 32t27.5 108v559h60v-572q0 -127 136 -127zM410 357h95v-39h-195v39h55q-19 28 -19 61q0 40 28 66 t72 26q21 0 48 -8l-8 -38q-20 7 -39 7q-28 0 -44.5 -15t-16.5 -41q0 -33 24 -58z" />
<glyph unicode="&#x643;" horiz-adv-x="466" arabic-form="initial" d="M360 700l-262 -253q170 -56 236 -140q66 -85 66 -214v-93h-400v57h342v46q0 113 -68 184q-68 68 -237 121v60l283 273z" />
<glyph unicode="&#x643;" horiz-adv-x="528" arabic-form="medial" d="M400 57h128q20 0 20 -28q0 -29 -20 -29h-528v57h342v46q0 113 -68 184q-68 68 -237 121v60l283 273l40 -41l-262 -253q170 -56 236 -140q66 -85 66 -214v-36z" />
<glyph unicode="&#x644;" horiz-adv-x="682" arabic-form="final" d="M568 57h114q20 0 20 -28q0 -29 -20 -29h-123q-23 -78 -90 -121t-167 -43q-118 0 -187 61t-69 165q0 78 41 177l53 -19q-33 -94 -33 -152q0 -86 51 -129.5t148 -43.5q203 0 203 198v663h60v-678q0 -16 -1 -21z" />
<glyph unicode="&#x644;" horiz-adv-x="265" arabic-form="initial" d="M0 0v57q69 0 96.5 32t27.5 108v559h60v-583q0 -173 -184 -173z" />
<glyph unicode="&#x644;" horiz-adv-x="320" arabic-form="medial" d="M320 57q20 0 20 -28q0 -29 -20 -29q-117 0 -158 74q-44 -74 -162 -74v57q69 0 96.5 32t27.5 108v559h60v-572q0 -127 136 -127z" />
<glyph unicode="&#x645;" horiz-adv-x="693" arabic-form="final" d="M587 57h106q20 0 20 -28q0 -29 -20 -29h-151q-60 -48 -166 -48h-53q-28 21 -49 48h-80q-95 0 -95 -99v-161h-59v161q0 74 40 115t113 41h46q-24 53 -24 108q0 88 59 147q58 57 147 57q94 0 142 -58q47 -59 47 -144q0 -61 -23 -110zM340 9h49q79 0 120 43.5t41 118.5 q0 64 -35.5 102.5t-97.5 38.5q-63 0 -102.5 -40.5t-39.5 -108.5q0 -92 65 -154z" />
<glyph unicode="&#x645;" horiz-adv-x="546" arabic-form="initial" d="M295 411q89 0 140 -58q50 -59 50 -150q0 -93 -56.5 -148t-164.5 -55h-264v57h140q-50 68 -50 146q0 92 58 150q57 58 147 58zM210 57h59q75 0 115 39.5t40 107.5t-37 108.5t-98 40.5q-62 0 -100 -40.5t-38 -108.5q0 -74 59 -147z" />
<glyph unicode="&#x645;" horiz-adv-x="568" arabic-form="medial" d="M461 57h107q20 0 20 -28q0 -29 -20 -29h-154q-62 -48 -163 -48h-53q-28 21 -49 48h-149v57h114q-24 53 -24 108q0 88 59 147q59 57 147 57q94 0 142 -58q47 -59 47 -144q0 -62 -24 -110zM215 9h49q79 0 120 43.5t41 118.5q0 64 -35.5 102.5t-97.5 38.5 q-63 0 -102.5 -40.5t-39.5 -108.5q0 -92 65 -154z" />
<glyph unicode="&#x646;" horiz-adv-x="696" arabic-form="final" d="M317 412q-26 0 -36.5 20.5t0 41t36.5 20.5q25 0 35 -20.5t0 -41t-35 -20.5zM569 57h127q20 0 20 -28q0 -29 -20 -29h-136q-21 -80 -87 -122t-168 -42q-122 0 -190.5 61.5t-68.5 164.5q0 78 41 177l53 -19q-33 -82 -33 -151q0 -86 52 -130t148 -44q202 0 202 195v238h60 v-253v-18z" />
<glyph unicode="&#x646;" horiz-adv-x="249" arabic-form="initial" d="M159 520q-26 0 -36.5 20.5t0 41t36.5 20.5q25 0 35 -20.5t0 -41t-35 -20.5zM0 0v57q69 0 98.5 32.5t29.5 107.5v204h60v-213q0 -97 -46.5 -142.5t-141.5 -45.5z" />
<glyph unicode="&#x646;" horiz-adv-x="324" arabic-form="medial" d="M159 520q-26 0 -36.5 20.5t0 41t36.5 20.5q25 0 35 -20.5t0 -41t-35 -20.5zM324 57q20 0 20 -28q0 -29 -20 -29q-120 0 -160 76q-42 -76 -164 -76v57q69 0 98.5 32.5t29.5 107.5v204h60v-213v-4q0 -127 136 -127z" />
<glyph unicode="&#x647;" horiz-adv-x="505" arabic-form="isolated" d="M242 -5q-95 0 -148.5 54.5t-53.5 143.5q0 92 54 155q53 63 148 63t149 -63q53 -65 53 -155t-54.5 -144t-147.5 -54zM244 54q67 0 103 36t36 105q0 73 -37 115.5t-104 42.5q-68 0 -104.5 -42.5t-36.5 -115.5q0 -70 37.5 -105.5t105.5 -35.5z" />
<glyph unicode="&#x647;" horiz-adv-x="549" arabic-form="final" d="M549 57q20 0 20 -28q0 -29 -20 -29q-141 0 -168 57q-71 -33 -140 -33q-94 0 -147.5 46t-53.5 129q0 93 61 147.5t168 54.5h159v-250q0 -54 26 -74t95 -20zM366 112v232h-108q-73 0 -115 -36t-42 -103q0 -60 37.5 -91t107.5 -31q68 0 120 29z" />
<glyph unicode="&#x647;" horiz-adv-x="619" arabic-form="initial" d="M77 370l9 53q115 -9 200 -29.5t148.5 -57t96 -93t32.5 -132.5q0 -52 -14 -111h-171q-81 0 -145 23q-60 -23 -146 -23h-87v57h87q38 0 76 8q-34 25 -54 65t-20 86q0 47 22.5 86.5t61.5 59.5q-18 3 -96 8zM144 218q0 -47 23.5 -83t63.5 -55q45 18 72.5 54t27.5 85 q0 50 -26.5 82t-66.5 32q-41 0 -67.5 -33t-26.5 -82zM366 57h135q6 29 6 60q0 141 -152 203q31 -43 31 -101q0 -48 -23.5 -89.5t-61.5 -66.5q35 -6 65 -6z" />
<glyph unicode="&#x647;" horiz-adv-x="506" arabic-form="medial" d="M375 57h131q20 0 20 -28q0 -29 -20 -29h-87q26 -50 26 -91q0 -68 -48.5 -108.5t-129.5 -40.5q-89 0 -134 46.5t-45 135.5v58h-88v57h88v132q0 103 46 161t134 58q81 0 126 -53q44 -55 44 -133q0 -105 -63 -165zM148 196v-139h91q62 0 100.5 45t38.5 115q0 60 -31.5 96 t-84.5 36q-54 0 -84 -39.5t-30 -113.5zM271 -181q55 0 83.5 25t28.5 70q0 42 -29 86h-206v-53q0 -65 30 -96.5t93 -31.5z" />
<glyph unicode="&#x648;" horiz-adv-x="533" arabic-form="final" d="M432 57h101q20 0 20 -28q0 -29 -20 -29h-103q-23 -173 -272 -173q-28 0 -41 1l-3 55q242 -14 256 117h-77q-118 0 -178 52t-60 147q0 90 55 151q54 62 141 62q84 0 132.5 -51t48.5 -140v-164zM116 206q0 -76 44.5 -112.5t139.5 -36.5h72v144q0 72 -32 112.5t-91 40.5 q-58 0 -95.5 -41.5t-37.5 -106.5z" />
<glyph unicode="&#x649;" horiz-adv-x="764" arabic-form="final" d="M653 57h111q20 0 20 -28q0 -29 -20 -29h-98q44 -29 44 -83q0 -73 -93 -126q-93 -51 -245 -51q-162 0 -244 58.5t-82 168.5q0 55 23 129l56 -15q-18 -66 -18 -107q0 -89 65 -132t204 -43q127 0 199 34q74 35 74 87q0 66 -128 98l-115 29l15 51l135 -32q38 -9 97 -9z" />
<glyph unicode="&#x64a;" horiz-adv-x="764" arabic-form="final" d="M653 57h111q20 0 20 -28q0 -29 -20 -29h-98q44 -29 44 -83q0 -73 -93 -126q-93 -51 -245 -51q-162 0 -244 58.5t-82 168.5q0 55 23 129l56 -15q-18 -66 -18 -107q0 -89 65 -132t204 -43q127 0 199 34q74 35 74 87q0 66 -128 98l-115 29l15 51l135 -32q38 -9 97 -9z M302 -350q25 2 35.5 -19.5t0 -43t-35.5 -19.5q-17 0 -29 11.5t-12 29.5t12 29.5t29 11.5zM435 -350q24 2 34.5 -19.5t0 -43t-34.5 -19.5q-26 -2 -36.5 19.5t0 43t36.5 19.5z" />
<glyph unicode="&#x64a;" horiz-adv-x="279" arabic-form="initial" d="M4 0h-4v57h6q64 0 93 33t29 107v204h60v-213q0 -188 -184 -188zM50 -172q-17 0 -29 11.5t-12 29.5t12 29.5t29 11.5q25 2 35.5 -19.5t0 -43t-35.5 -19.5zM183 -172q-26 -2 -36.5 19.5t0 43t36.5 19.5q24 2 34.5 -19.5t0 -43t-34.5 -19.5z" />
<glyph unicode="&#x64a;" horiz-adv-x="324" arabic-form="medial" d="M324 57q20 0 20 -28q0 -29 -20 -29q-120 0 -160 76q-42 -76 -160 -76h-4v57h6q64 0 93 33t29 107v204h60v-213v-4q0 -127 136 -127zM79 -90q25 2 35.5 -19.5t0 -43t-35.5 -19.5q-17 0 -29 11.5t-12 29.5t12 29.5t29 11.5zM212 -90q24 2 34.5 -19.5t0 -43t-34.5 -19.5 q-26 -2 -36.5 19.5t0 43t36.5 19.5z" />
<glyph />
<glyph />
<glyph unicode="&#xd;" horiz-adv-x="333" />
<glyph unicode=" "  horiz-adv-x="260" />
<glyph unicode="&#x09;" horiz-adv-x="260" />
<glyph unicode="&#xa0;" horiz-adv-x="260" />
<glyph unicode="!" horiz-adv-x="370" d="M155 186v522h60v-522h-60zM151 76q14 14 34 14t34 -14t14 -34t-14 -34t-34 -14t-34 14t-14 34t14 34z" />
<glyph unicode="&#x22;" horiz-adv-x="520" d="M161 480v228h60v-228h-60zM299 480v228h60v-228h-60z" />
<glyph unicode="#" horiz-adv-x="520" d="M157 481l30 227h52l-31 -227h139l31 227h52l-31 -227h108v-48h-114l-22 -156h108v-48h-115l-30 -229h-52l30 229h-139l-30 -229h-52l30 229h-108v48h115l22 156h-108v48h115zM202 433l-21 -156h138l21 156h-138z" />
<glyph unicode="$" horiz-adv-x="520" d="M233 720v67h48v-67q122 0 185 -89l-55 -40q-48 74 -130 75v-282l56 -19q142 -48 142 -184q0 -77 -55 -131q-54 -54 -143 -62v-67h-48v67q-60 0 -113.5 28.5t-86.5 76.5l57 39q53 -86 143 -90v290l-71 26q-54 21 -84.5 65.5t-30.5 102.5q0 74 54 130q53 55 132 64z M146 618q-33 -38 -33 -88q0 -51 28 -80q28 -31 92 -50v266q-55 -10 -87 -48zM281 314v-272q58 3 95 43.5t37 99.5q0 79 -92 114z" />
<glyph unicode="%" horiz-adv-x="815" d="M158 -6l456 748l46 -28l-457 -748zM210 720q70 0 122 -50q50 -50 50 -122t-50 -122q-52 -50 -122 -50q-72 0 -121 51q-51 50 -51 121q0 70 51 121t121 51zM127 632q-35 -35 -35 -84q0 -48 35 -83t83 -35q49 0 83.5 34t34.5 84q0 49 -34.5 83.5t-84.5 34.5q-48 0 -82 -34z M484 281q50 51 121 51q70 0 122 -50q50 -50 50 -122t-50 -122q-52 -50 -122 -50q-71 0 -121 51q-51 49 -51 121q0 70 51 121zM522 244q-35 -35 -35 -84q0 -48 35 -83t83 -35q49 0 83.5 34t34.5 84q0 49 -34.5 83.5t-84.5 34.5q-48 0 -82 -34z" />
<glyph unicode="&#x26;" horiz-adv-x="704" d="M473 576q0 -63 -37 -103q-36 -38 -121 -85l172 -182l102 184h68l-128 -226l161 -169h-89l-106 114q-50 -67 -102.5 -97t-117.5 -30q-93 0 -154 58q-62 57 -62 148q0 61 34 107q33 46 128 102q-33 41 -45 57q-14 19 -26 49q-15 31 -15 62q0 71 51 116q50 45 127 45 q67 0 113 -43q47 -44 47 -107zM277 429q67 33 98.5 65t31.5 77q0 41 -28 68t-72 27q-43 0 -74.5 -29t-31.5 -71q0 -52 76 -137zM285 42q97 0 170 109l-196 204q-69 -39 -101.5 -78t-32.5 -87q0 -66 46 -106q45 -42 114 -42z" />
<glyph unicode="'" horiz-adv-x="260" d="M100 480v228h60v-228h-60z" />
<glyph unicode="(" horiz-adv-x="260" d="M197 732l51 -32q-61 -76 -96 -190q-34 -111 -34 -222t31.5 -208.5t98.5 -205.5l-47 -30q-68 92 -105 211q-38 120 -38 233q0 118 37 235q35 117 102 209z" />
<glyph unicode=")" horiz-adv-x="260" d="M12 702l47 30q68 -92 105.5 -209.5t37.5 -234.5q0 -116 -36 -234q-37 -119 -103 -210l-51 32q61 76 96 191q34 111 34 221t-31.5 208t-98.5 206z" />
<glyph unicode="*" horiz-adv-x="444" d="M199 556v152h48v-152l144 48l15 -48l-144 -47l91 -122l-37 -29l-94 125l-89 -125l-40 29l91 122l-146 50l14 45z" />
<glyph unicode="+" horiz-adv-x="666" d="M309 327v231h48v-231h231v-48h-231v-231h-48v231h-231v48h231z" />
<glyph unicode="," horiz-adv-x="260" d="M116 90h70l-77 -228h-59z" />
<glyph unicode="-" horiz-adv-x="333" d="M43 264h247v-54h-247v54z" />
<glyph unicode="." horiz-adv-x="260" d="M96 76q14 14 34 14t34 -14t14 -34t-14 -34t-34 -14t-34 14t-14 34t14 34z" />
<glyph unicode="/" horiz-adv-x="370" d="M9 -18l304 762l52 -18l-303 -762z" />
<glyph unicode="0" horiz-adv-x="520" d="M86 626q58 94 174 94q115 0 175 -93q59 -95 59 -273t-59 -272q-60 -94 -175 -94q-116 0 -174 94q-60 94 -60 272t60 272zM135 586q-43 -80 -43 -232t43 -231q43 -81 125 -81q83 0 125.5 79.5t42.5 232.5q0 152 -43 232t-126 80q-80 0 -124 -80z" />
<glyph unicode="1" horiz-adv-x="520" d="M95 565l175 143h51v-708h-60v625l-129 -106z" />
<glyph unicode="2" horiz-adv-x="520" d="M270 720q87 0 146 -50q58 -51 58 -131q0 -79 -44 -141q-24 -34 -35 -46q-13 -15 -36 -39l-252 -259h372v-54h-438v70l297 314q70 73 70 150q0 59 -39.5 95.5t-101.5 36.5q-53 0 -91 -30.5t-51 -85.5l-70 7q17 78 73.5 120.5t141.5 42.5z" />
<glyph unicode="3" horiz-adv-x="520" d="M257 720q89 0 143 -49.5t54 -131.5q0 -61 -34 -106t-92 -59v-2q67 -12 109 -63t42 -118q0 -93 -59 -148t-160 -55q-165 0 -219 139l65 21q40 -106 149 -106q73 0 115.5 42.5t42.5 111.5q0 67 -51.5 106.5t-143.5 39.5h-18v60h21q80 0 123.5 35.5t43.5 98.5q0 56 -37 93 t-94 37q-43 0 -78.5 -22t-55.5 -61l-57 32q56 105 191 105z" />
<glyph unicode="4" horiz-adv-x="520" d="M306 708h83v-480h108v-54h-108v-174h-60v174h-306v71zM327 642l-250 -414h252v414h-2z" />
<glyph unicode="5" horiz-adv-x="520" d="M101 708h350v-54h-292l-3 -225q42 20 103 20q97 0 159 -68q61 -67 61 -166q0 -98 -64 -162q-65 -65 -163 -65q-148 0 -211 120l62 31q19 -42 61 -69.5t87 -27.5q67 0 115 50q47 50 47 119q0 76 -51 130t-127 54q-73 0 -140 -48z" />
<glyph unicode="6" horiz-adv-x="520" d="M285 708h76l-193 -312h2q15 13 46 21.5t59 8.5q92 0 155 -63q62 -64 62 -155q0 -95 -65 -157q-66 -63 -167 -63q-99 0 -166 62q-66 61 -66 158q0 66 34 128q20 35 37 63zM94 208q0 -73 46 -119.5t120 -46.5t120 46.5t46 119.5q0 68 -48 118q-50 48 -119 48 q-67 0 -116 -48q-49 -49 -49 -118z" />
<glyph unicode="7" horiz-adv-x="520" d="M41 708h402v-54l-282 -654h-67l287 654h-340v54z" />
<glyph unicode="8" horiz-adv-x="520" d="M121 668q55 52 139 52t139 -52t55 -131q0 -52 -31 -98q-31 -47 -84 -60q64 -13 102 -62.5t38 -119.5q0 -94 -62 -151q-61 -58 -157 -58t-157 58q-62 59 -62 151q0 69 38 119t101 63q-51 15 -82 61q-32 47 -32 97q0 79 55 131zM132 536q0 -55 36.5 -92.5t91.5 -37.5 t91.5 37.5t36.5 92.5q0 57 -36.5 93.5t-92.5 36.5q-55 0 -91 -37t-36 -93zM151 308q-44 -44 -44 -111q0 -68 43 -111q44 -44 110 -44t110 44q43 43 43 111t-43 111q-44 44 -111 44q-64 0 -108 -44z" />
<glyph unicode="9" horiz-adv-x="520" d="M94 658q67 62 166 62t166 -62q66 -63 66 -158q0 -65 -33 -124q-11 -21 -36 -63l-188 -313h-76l193 312h-2q-34 -30 -105 -30q-93 0 -155 63q-62 62 -62 155q0 96 66 158zM94 500q0 -68 49 -117q48 -49 117 -49t118 49q48 48 48 117q0 73 -46.5 119.5t-120.5 46.5 q-72 0 -119 -47q-46 -46 -46 -119z" />
<glyph unicode=":" horiz-adv-x="260" d="M96 454q14 14 34 14t34 -14t14 -34t-14 -34t-34 -14t-34 14t-14 34t14 34zM96 76q14 14 34 14t34 -14t14 -34t-14 -34t-34 -14t-34 14t-14 34t14 34z" />
<glyph unicode=";" horiz-adv-x="260" d="M96 454q14 14 34 14t34 -14t14 -34t-14 -34t-34 -14t-34 14t-14 34t14 34zM116 90h70l-77 -228h-59z" />
<glyph unicode="&#x3c;" horiz-adv-x="666" d="M82 327l502 234v-50l-448 -208l448 -208v-50l-502 234v48z" />
<glyph unicode="=" horiz-adv-x="666" d="M78 399h510v-48h-510v48zM78 255h510v-48h-510v48z" />
<glyph unicode="&#x3e;" horiz-adv-x="666" d="M82 511v50l502 -234v-48l-502 -234v50l448 208z" />
<glyph unicode="?" horiz-adv-x="463" d="M242 726q83 0 133.5 -47t50.5 -125q0 -94 -84 -165q-78 -67 -78 -136v-67h-60v86q0 68 78 139q78 70 78 140q0 54 -32 87.5t-85 33.5q-50 0 -85 -30.5t-46 -85.5l-65 8q14 75 67 118.5t128 43.5zM201 76q14 14 34 14t34 -14t14 -34t-14 -34t-34 -14t-34 14t-14 34t14 34z " />
<glyph unicode="@" horiz-adv-x="800" d="M414 726q140 0 241 -83q101 -84 101 -217q0 -122 -74 -208q-74 -87 -160 -87q-28 0 -45 17.5t-17 49.5h-2q-55 -67 -129 -67q-62 0 -98.5 40.5t-36.5 106.5q-4 108 65.5 199.5t170.5 90.5q80 0 106 -83h2l24 64h60l-99 -295q-9 -35 -9 -43q0 -26 26 -26q56 0 109 83 t53 158q0 109 -85 181q-86 71 -201 71q-134 0 -225 -96q-93 -96 -93 -227q0 -132 93 -228q93 -97 227 -97q72 0 143 36t111 96h58q-45 -83 -131 -131q-86 -49 -181 -49q-160 0 -267 108q-107 107 -107 265q0 153 108 263q106 108 262 108zM254 280q0 -42 23 -68.5t61 -26.5 q66 0 118 79q51 80 51 149q0 101 -82 101q-69 1 -121.5 -78.5t-49.5 -155.5z" />
<glyph unicode="A" horiz-adv-x="685" d="M314 708h68l298 -708h-74l-77 188h-375l-80 -188h-69zM345 636l-165 -388h325z" />
<glyph unicode="B" horiz-adv-x="630" d="M97 708h209q223 0 223 -187q0 -57 -33.5 -96t-93.5 -51v-2q71 -4 114.5 -52.5t43.5 -121.5q0 -94 -63 -146t-172 -52h-228v708zM163 402h141q73 0 116 31.5t43 87.5q0 127 -150 127h-150v-246zM163 60h156q83 0 129 36t46 100q0 69 -46 107.5t-122 38.5h-163v-282z" />
<glyph unicode="C" horiz-adv-x="704" d="M417 726q157 0 244 -111l-54 -45q-30 45 -80 70.5t-110 25.5q-135 0 -217 -88q-83 -89 -83 -224q0 -134 83 -223t217 -89q63 0 121 30t88 80l54 -41q-94 -129 -263 -129q-162 0 -264 106q-102 105 -102 266q0 164 103 268q102 104 263 104z" />
<glyph unicode="D" horiz-adv-x="741" d="M88 708h221q180 0 280 -97q101 -98 101 -262q0 -72 -28.5 -143t-89.5 -124q-94 -82 -259 -82h-225v708zM154 60h141q151 0 240 76q89 77 89 213q0 143 -88.5 221t-243.5 78h-138v-588z" />
<glyph unicode="E" horiz-adv-x="593" d="M97 708h433v-60h-367v-252h344v-60h-344v-276h383v-60h-449v708z" />
<glyph unicode="F" horiz-adv-x="556" d="M97 708h424v-60h-358v-252h333v-60h-333v-336h-66v708z" />
<glyph unicode="G" horiz-adv-x="778" d="M417 726q157 0 255 -98l-48 -50q-32 39 -92 64q-58 24 -115 24q-135 0 -217 -88q-83 -89 -83 -224t83 -224q82 -88 218 -88q126 0 197 42v238h-170v60h236v-336q-112 -64 -264 -64q-162 0 -264 106q-102 105 -102 266t103 267q102 105 263 105z" />
<glyph unicode="H" horiz-adv-x="722" d="M97 708h66v-312h396v312h66v-708h-66v336h-396v-336h-66v708z" />
<glyph unicode="I" horiz-adv-x="260" d="M97 708h66v-708h-66v708z" />
<glyph unicode="J" horiz-adv-x="482" d="M319 708h66v-507q0 -112 -48 -165.5t-146 -53.5q-73 0 -120.5 38t-63.5 107l66 12q24 -97 118 -97q63 0 95.5 38.5t32.5 107.5v520z" />
<glyph unicode="K" horiz-adv-x="611" d="M97 708h66v-312h6l343 312h91l-358 -324l378 -384h-95l-359 366h-6v-366h-66v708z" />
<glyph unicode="L" horiz-adv-x="500" d="M97 708h66v-648h330v-60h-396v708z" />
<glyph unicode="M" horiz-adv-x="889" d="M90 708h99l258 -594l258 594h94v-708h-66v624h-2l-270 -624h-29l-274 624h-2v-624h-66v708z" />
<glyph unicode="N" horiz-adv-x="778" d="M97 708h85l431 -620h2v620h66v-708h-85l-431 620h-2v-620h-66v708z" />
<glyph unicode="O" horiz-adv-x="834" d="M417 726q165 0 265 -105q101 -107 101 -267q0 -161 -102 -266q-103 -106 -264 -106t-263 106q-103 104 -103 266t102 267t264 105zM117 354q0 -134 83 -223t217 -89t217 89t83 223q0 136 -82 224t-219 88q-135 0 -217 -88t-82 -224z" />
<glyph unicode="P" horiz-adv-x="574" d="M97 708h202q108 0 169 -49t61 -138q0 -85 -59 -135t-150 -50h-157v-336h-66v708zM163 396h153q67 0 107 33t40 92t-42.5 93t-107.5 34h-150v-252z" />
<glyph unicode="Q" horiz-adv-x="834" d="M151 624q100 102 259 102q158 0 259 -102q100 -103 100 -261q2 -91 -48.5 -182.5t-128.5 -118.5v-2h221v-60h-392q-157 0 -263 105q-107 104 -107 258q0 158 100 261zM117 363q0 -129 88 -216q87 -87 216 -87q126 0 204 87t78 216q0 133 -80 219q-80 84 -214 84 q-133 0 -212 -85q-80 -86 -80 -218z" />
<glyph unicode="R" horiz-adv-x="593" d="M97 708h191q122 0 184.5 -47.5t62.5 -138.5q0 -158 -181 -182l206 -340h-75l-199 336h-123v-336h-66v708zM163 396h145q75 0 118 34t43 92t-43 92t-120 34h-143v-252z" />
<glyph unicode="S" horiz-adv-x="556" d="M299 726q122 0 193 -89l-57 -41q-51 70 -138 70q-71 0 -115 -36.5t-44 -97.5q0 -55 33.5 -88t114.5 -57q46 -14 60 -19q2 -1 20 -7.5t30 -11.5q32 -14 46 -26q66 -54 61 -142q0 -86 -62 -142q-61 -57 -158 -57q-153 0 -230 107l63 42q53 -89 162 -89q69 0 114 39t45 100 q0 62 -39 89q-39 26 -153 64q-3 1 -8.5 2.5t-7.5 2.5q-81 27 -119 73t-38 120q0 87 64 141q65 53 163 53z" />
<glyph unicode="T" horiz-adv-x="574" d="M12 708h550v-60h-242v-648h-66v648h-242v60z" />
<glyph unicode="U" horiz-adv-x="684" d="M84 708h66v-425q0 -117 48.5 -179t143.5 -62q192 0 192 251v415h66v-432q0 -140 -66.5 -217t-191.5 -77t-191.5 76t-66.5 213v437z" />
<glyph unicode="V" horiz-adv-x="593" d="M-3 708h71l228 -621l230 621h70l-269 -708h-66z" />
<glyph unicode="W" horiz-adv-x="944" d="M5 708h68l176 -627h2l179 627h84l179 -627h2l176 627h68l-206 -707l-1 -1h-80l-179 630h-2l-179 -630h-81z" />
<glyph unicode="X" horiz-adv-x="611" d="M25 708h78l204 -288l201 288h79l-240 -336l263 -372h-82l-224 320l-224 -320h-79l266 372z" />
<glyph unicode="Y" horiz-adv-x="574" d="M-6 708h79l214 -336l219 336h74l-260 -403v-305h-66v305z" />
<glyph unicode="Z" horiz-adv-x="556" d="M29 708h493v-54l-417 -594h428v-60h-510v52l414 596h-408v60z" />
<glyph unicode="[" horiz-adv-x="260" d="M74 732h150v-48h-90v-792h90v-48h-150v888z" />
<glyph unicode="\" horiz-adv-x="370" d="M5 726l52 18l304 -762l-53 -18z" />
<glyph unicode="]" horiz-adv-x="260" d="M36 732h150v-888h-150v48h90v792h-90v48z" />
<glyph unicode="^" horiz-adv-x="666" d="M82 256l228 452h46l228 -452h-56l-195 398l-194 -398h-57z" />
<glyph unicode="_" horiz-adv-x="500" d="M0 -75h500v-50h-500v50z" />
<glyph unicode="`" horiz-adv-x="240" d="M-6 708h80l104 -144h-50z" />
<glyph unicode="a" horiz-adv-x="519" d="M255 474q90 0 137 -42.5t47 -120.5v-137q0 -112 9 -174h-56q-6 32 -6 75h-2q-51 -87 -161 -87q-75 0 -119.5 37t-44.5 100q0 77 65 116t187 39h74v27q0 55 -34 84t-96 29q-80 0 -141 -52l-35 41q32 30 80 47.5t96 17.5zM119 128q0 -38 30 -62t76 -24q78 0 119 41.5 t41 116.5v32h-72q-88 0 -141 -26.5t-53 -77.5z" />
<glyph unicode="b" horiz-adv-x="611" d="M67 0v756h60v-375h2q25 42 76 67.5t109 25.5q104 0 174 -68q69 -69 69 -175q0 -104 -68 -174q-67 -69 -175 -69q-59 0 -110 25.5t-75 67.5h-2v-81h-60zM178 365q-57 -55 -57 -134q0 -77 57 -133q56 -56 136 -56q81 0 132 54t51 135q0 82 -51 136q-53 53 -133 53t-135 -55 z" />
<glyph unicode="c" horiz-adv-x="481" d="M297 474q101 0 172 -80l-48 -36q-59 62 -125 62q-79 0 -130 -54q-52 -53 -52 -135q0 -83 51 -135q51 -54 131 -54q74 0 125 64l46 -38q-68 -80 -170 -80q-107 0 -174 69q-69 69 -69 174q0 106 69 175q70 68 174 68z" />
<glyph unicode="d" horiz-adv-x="611" d="M484 381v375h60v-756h-60v81h-2q-26 -44 -76 -68.5t-109 -24.5q-107 0 -174 69q-69 69 -69 174q0 106 69 175q70 68 174 68q58 0 109 -25.5t76 -67.5h2zM114 231q0 -83 51 -135q51 -54 132 -54t137 55q56 56 56 134t-56 134q-56 55 -138 55q-79 0 -130 -54 q-52 -53 -52 -135z" />
<glyph unicode="e" horiz-adv-x="556" d="M285 474q95 0 156 -60q61 -61 61 -162v-36h-388q4 -77 51 -125.5t124 -48.5q47 0 90 22.5t65 59.5l44 -37q-66 -99 -200 -99q-104 0 -169 68t-65 176q0 101 65 172q64 70 166 70zM114 270h328q-1 64 -47 107t-114 43q-65 0 -112 -44t-55 -106z" />
<glyph unicode="f" horiz-adv-x="296" d="M252 768q42 0 69 -12l-12 -52q-19 10 -54 10q-81 0 -81 -119v-133h108v-54h-108v-408h-60v408h-96v54h96v155q0 69 38.5 110t99.5 41z" />
<glyph unicode="g" horiz-adv-x="611" d="M307 474q118 0 175 -90h2v78h60v-430q0 -132 -64.5 -202t-182.5 -70q-69 0 -131 25.5t-97 71.5l47 44q62 -87 182 -87q91 0 138.5 52.5t47.5 154.5v69h-2q-57 -90 -175 -90q-101 0 -174 70q-73 69 -73 167q0 97 74 168q73 69 173 69zM174 366q-54 -54 -54 -129 q0 -74 53 -129q53 -54 130 -54t130 54q53 55 53 129t-53 129q-54 54 -131 54q-76 0 -128 -54z" />
<glyph unicode="h" horiz-adv-x="556" d="M80 0v756h60v-375h2q20 42 63.5 67.5t94.5 25.5q176 0 176 -195v-279h-60v273q0 147 -116 147q-74 0 -117 -51t-43 -136v-233h-60z" />
<glyph unicode="i" horiz-adv-x="240" d="M88 677q13 13 32 13t32 -13t13 -32t-13 -32t-32 -13t-32 13t-13 32t13 32zM90 0v462h60v-462h-60z" />
<glyph unicode="j" horiz-adv-x="240" d="M88 677q13 13 32 13t32 -13t13 -32t-13 -32t-32 -13t-32 13t-13 32t13 32zM90 -90v552h60v-548q0 -80 -32 -117t-99 -37q-25 0 -49 9l9 53q21 -8 39 -8q37 0 54.5 23t17.5 73z" />
<glyph unicode="k" horiz-adv-x="481" d="M80 0v756h60v-504l229 210h88l-239 -212l266 -250h-91l-253 244v-244h-60z" />
<glyph unicode="l" horiz-adv-x="240" d="M90 0v756h60v-756h-60z" />
<glyph unicode="m" horiz-adv-x="852" d="M206 449q47 24 94.5 25t87 -26t51.5 -74q19 47 61.5 73.5t96.5 26.5q175 0 175 -196v-278h-60v275q0 145 -116 145q-67 0 -103.5 -44.5t-36.5 -120.5v-255h-60v281q0 64 -25 101.5t-72 37.5q-73 0 -116 -51t-43 -140v-229h-60v337q0 1 -0.5 8t-1 22.5t-0.5 32.5 q-3 58 -3 62h60q3 -78 4 -81h3q19 42 64 68z" />
<glyph unicode="n" horiz-adv-x="556" d="M300 474q176 0 176 -201v-273h-60v270q0 150 -116 150q-73 0 -116.5 -51t-43.5 -140v-229h-60v337q0 1 -0.5 8t-1 22.5t-0.5 32.5q-3 58 -3 62h60q3 -78 4 -81h3q20 42 63.5 67.5t94.5 25.5z" />
<glyph unicode="o" horiz-adv-x="594" d="M297 474q105 0 175 -68q68 -70 68 -175q0 -104 -68 -174q-68 -69 -175 -69t-174 69q-69 67 -69 174q0 105 68 175q68 68 175 68zM166 367q-52 -53 -52 -136t51 -135q51 -54 132 -54t132 54q51 52 51 135q0 82 -51 136q-53 53 -133 53q-79 0 -130 -53z" />
<glyph unicode="p" horiz-adv-x="611" d="M314 474q105 0 175 -68q68 -70 68 -175q0 -106 -67 -174q-68 -69 -176 -69q-60 0 -110.5 25.5t-74.5 67.5h-2v-309h-60v690h60v-81h2q24 43 75 68t110 25zM121 231q0 -77 56 -133t137 -56q82 0 133 54q50 55 50 135q0 82 -51 136q-51 53 -133 53q-81 0 -136 -55 q-56 -56 -56 -134z" />
<glyph unicode="q" horiz-adv-x="611" d="M297 474q59 0 110 -25t75 -68h2v81h60v-690h-60v309h-2q-24 -42 -74.5 -67.5t-110.5 -25.5q-107 0 -175 69q-68 70 -68 174q0 106 69 175q68 68 174 68zM490 231q0 78 -56 134q-55 55 -136 55q-82 0 -133 -53q-51 -54 -51 -136q0 -81 51 -135t132 -54t137 56t56 133z" />
<glyph unicode="r" horiz-adv-x="333" d="M286 474q17 0 35 -5l-7 -59q-9 4 -24 4q-71 0 -110.5 -43.5t-39.5 -118.5v-252h-60v337q0 1 -0.5 8t-1 22.5t-0.5 32.5q-3 58 -3 62h60q1 -62 4 -81q53 93 147 93z" />
<glyph unicode="s" horiz-adv-x="426" d="M206 474q117 0 162 -87l-54 -32q-35 65 -108 65q-39 0 -69 -21.5t-30 -52.5q0 -34 27 -51.5t85 -27.5q89 -16 125.5 -46t36.5 -90q0 -65 -46.5 -104t-121.5 -39q-131 0 -185 94l53 36q17 -34 54 -55t80 -21t74.5 24.5t31.5 60.5q0 43 -41 61q-34 15 -90 26 q-80 17 -111.5 47t-31.5 80q0 59 45 96t114 37z" />
<glyph unicode="t" horiz-adv-x="333" d="M114 462v133h60v-133h132v-54h-132v-302q0 -30 17 -47t47 -17q35 0 68 16l5 -54q-42 -16 -79 -16q-56 0 -87 31.5t-31 86.5v302h-100v54h100z" />
<glyph unicode="u" horiz-adv-x="556" d="M251 -12q-176 0 -176 201v273h60v-270q0 -150 116 -150q73 0 116.5 51t43.5 140v229h60v-337q0 -5 3 -63q0 -17 0.5 -32t1 -22t0.5 -8h-60q-3 78 -4 81h-3q-20 -42 -63.5 -67.5t-94.5 -25.5z" />
<glyph unicode="v" horiz-adv-x="463" d="M15 462h68l154 -397l150 397h61l-182 -462h-62z" />
<glyph unicode="w" horiz-adv-x="704" d="M15 462h66l112 -387h2l129 387h57l137 -387h2l109 387h60l-136 -462h-62l-138 378h-2l-129 -378h-62z" />
<glyph unicode="x" horiz-adv-x="481" d="M33 462h77l128 -175l127 175h75l-163 -212l198 -250h-78l-161 209l-158 -209h-72l192 250z" />
<glyph unicode="y" horiz-adv-x="463" d="M15 462h67l153 -389l149 389h64l-237 -603q-39 -99 -128 -99q-27 0 -59 9l6 56q36 -11 54 -11q47 0 76 74l43 110z" />
<glyph unicode="z" horiz-adv-x="426" d="M41 462h346v-36l-276 -372h288v-54h-372v36l277 372h-263v54z" />
<glyph unicode="{" horiz-adv-x="333" d="M274 732v-48h-22q-56 0 -56 -97v-144q0 -55 -20.5 -96t-49.5 -58v-2q32 -21 51 -61.5t19 -85.5v-155q0 -43 14 -68t40 -25h24v-48h-51q-40 0 -63.5 32t-23.5 88v155q0 70 -18 107.5t-52 37.5v48q70 0 70 149v148q0 62 24.5 92.5t65.5 30.5h48z" />
<glyph unicode="|" horiz-adv-x="222" d="M87 -250v1000h48v-1000h-48z" />
<glyph unicode="}" horiz-adv-x="333" d="M60 684l-1 48h49q39 0 64 -30.5t25 -92.5v-148q0 -149 70 -149v-48q-35 0 -52.5 -39.5t-17.5 -102.5v-158q0 -56 -23.5 -88t-63.5 -32h-51v48h24q26 0 40 25.5t14 68.5v154q0 47 19 88t51 59v2q-29 17 -49.5 58t-20.5 96v144q0 97 -56 97h-21z" />
<glyph unicode="~" horiz-adv-x="666" d="M228 364q36 0 111 -34q74 -34 102 -34q44 0 88 68l34 -32q-43 -90 -125 -90q-33 0 -110 34q-78 34 -103 34q-44 0 -88 -68l-34 32q47 90 125 90z" />
<glyph unicode="&#xa1;" horiz-adv-x="370" d="M151 478q14 14 34 14t34 -14t14 -34t-14 -34t-34 -14t-34 14t-14 34t14 34zM155 -222v522h60v-522h-60z" />
<glyph unicode="&#xa2;" horiz-adv-x="520" d="M256 471v72h48v-71q95 -2 164 -78l-48 -36q-49 55 -116 60v-376q68 3 116 64l46 -38q-63 -77 -162 -80v-69h-48v72q-93 14 -148 81q-56 68 -56 161q0 91 57 159q55 65 147 79zM112 233q0 -67 40 -119q38 -53 104 -67v370q-65 -11 -104.5 -62t-39.5 -122z" />
<glyph unicode="&#xa3;" horiz-adv-x="520" d="M373 720q78 0 143 -56l-40 -48q-50 50 -106 50q-63 0 -102 -43t-39 -107v-120h165v-54h-165v-288h245v-54h-416v54h105v288h-95v54h95v111q0 93 56 154q56 59 154 59z" />
<glyph unicode="&#xa4;" horiz-adv-x="520" d="M48 603l57 -56q68 53 155 53t155 -53l57 56l34 -37l-57 -55q60 -65 60 -157t-60 -157l57 -55l-34 -37l-57 56q-70 -53 -155 -53q-87 0 -155 53l-57 -56l-34 37l57 55q-60 65 -60 157t60 157l-57 55zM126 489q-55 -56 -55 -135q0 -77 56 -135q55 -57 133 -57t134 57 q55 56 55 135q0 80 -55 136q-56 56 -135 56q-77 0 -133 -57z" />
<glyph unicode="&#xa5;" horiz-adv-x="520" d="M0 708h68l192 -344l195 344h65l-191 -339h134v-48h-161l-9 -16v-77h170v-48h-170v-180h-66v180h-170v48h170v77l-9 16h-161v48h134z" />
<glyph unicode="&#xa6;" horiz-adv-x="222" d="M87 325v350h48v-350h-48zM87 -175v350h48v-350h-48z" />
<glyph unicode="&#xa7;" horiz-adv-x="520" d="M288 726q58 0 100.5 -24.5t59.5 -69.5l-58 -34q-29 68 -105 68q-51 0 -84 -26.5t-33 -70.5q0 -36 28 -60.5t96 -56.5q55 -27 58 -28q18 -10 49 -33q57 -42 57 -113q0 -84 -89 -132q75 -45 75 -124q0 -73 -53 -120q-53 -46 -133 -46q-68 0 -118.5 31t-73.5 89l61 30 q33 -90 130 -90q53 0 87 27t34 70q0 27 -19.5 52t-45.5 39q-4 2 -64 31q-41 18 -57 27q-56 30 -84 64.5t-28 86.5q0 84 106 129q-82 49 -82 127q0 71 54 114q53 43 132 43zM144 314q0 -52 60 -83l110 -56q76 42 76 96q0 56 -69 95l-80 44q-97 -31 -97 -96z" />
<glyph unicode="&#xa8;" horiz-adv-x="240" d="M-9 686q14 14 34 14t34 -14t14 -34t-14 -34t-34 -14t-34 14t-14 34t14 34zM181 686q14 14 34 14t34 -14t14 -34t-14 -34t-34 -14t-34 14t-14 34t14 34z" />
<glyph unicode="&#xa9;" horiz-adv-x="800" d="M400 726q154 0 263 -109t109 -263q0 -152 -108 -262q-110 -110 -264 -110q-155 0 -263 110q-109 109 -109 262t109 262q108 110 263 110zM175 579q-93 -95 -93 -225q0 -131 93 -224q93 -94 225 -94q133 0 226 94q92 94 92 224t-92 225q-93 93 -227 93q-133 0 -224 -93z M409 583q75 0 125.5 -41.5t59.5 -110.5h-54q-11 48 -47 76t-84 28q-71 0 -115 -51q-45 -52 -45 -130q0 -79 45 -130t116 -51q49 0 84.5 28.5t45.5 75.5h54q-9 -69 -59.5 -110.5t-125.5 -41.5q-97 0 -156 63q-58 62 -58 166q0 103 59 167q59 62 155 62z" />
<glyph unicode="&#xaa;" horiz-adv-x="337" d="M178 720q63 0 91.5 -26t28.5 -80v-96q0 -43 5 -88h-49q-1 2 -4 46h-2q-31 -52 -104 -52q-51 0 -80.5 21t-29.5 60q0 97 154 97h62v4q0 39 -19 55.5t-64 16.5q-50 0 -94 -35l-26 38q49 39 131 39zM82 507q0 -17 21.5 -29t50.5 -12q42 0 69 25.5t27 62.5v6h-39 q-129 0 -129 -53z" />
<glyph unicode="&#xab;" horiz-adv-x="481" d="M63 237l137 203l42 -29l-116 -174l118 -176l-44 -27zM229 237l137 203l42 -29l-116 -174l118 -176l-44 -27z" />
<glyph unicode="&#xac;" horiz-adv-x="666" d="M78 399h510v-265h-48v217h-462v48z" />
<glyph unicode="&#xad;" horiz-adv-x="333" d="M43 264h247v-54h-247v54z" />
<glyph unicode="&#xae;" horiz-adv-x="800" d="M400 726q154 0 263 -109t109 -263q0 -152 -108 -262q-110 -110 -264 -110q-155 0 -263 110q-109 109 -109 262t109 262q108 110 263 110zM175 579q-93 -95 -93 -225q0 -131 93 -224q93 -94 225 -94q133 0 226 94q92 94 92 224t-92 225q-93 93 -227 93q-133 0 -224 -93z M265 570h168q132 0 132 -119q0 -105 -108 -122l128 -188h-61l-128 188h-77v-188h-54v429zM319 377h79q62 0 87.5 17.5t25.5 56.5q0 71 -101 71h-91v-145z" />
<glyph unicode="&#xaf;" horiz-adv-x="240" d="M-12 654h264v-48h-264v48z" />
<glyph unicode="&#xb0;" horiz-adv-x="400" d="M98 678q40 42 102 42q61 0 103 -42q41 -43 41 -101q0 -59 -41 -102q-42 -43 -103 -43q-62 0 -102 43q-42 42 -42 102q0 59 42 101zM132 644q-22 -20 -26.5 -49.5t6 -55t34.5 -43t54 -16.5q40 0 68 28t28 68t-27.5 68t-68.5 28q-40 0 -68 -28z" />
<glyph unicode="&#xb1;" horiz-adv-x="666" d="M306 375v183h48v-183h234v-48h-234v-183h-48v183h-228v48h228zM82 96h502v-48h-502v48z" />
<glyph unicode="&#xb2;" horiz-adv-x="338" d="M179 720q60 0 97.5 -30t37.5 -79q0 -40 -20 -72t-72 -81l-127 -121h220v-48h-292v43l181 177q31 30 43.5 52t12.5 48q0 28 -22.5 45.5t-61.5 17.5q-66 0 -86 -59l-51 4q11 48 49.5 75.5t90.5 27.5z" />
<glyph unicode="&#xb3;" horiz-adv-x="338" d="M168 720q57 0 94 -30.5t37 -77.5q0 -33 -23 -60t-59 -39v-2q42 -5 68 -35t26 -72q0 -54 -40 -87.5t-105 -33.5q-104 0 -139 89l47 18q23 -59 92 -59q35 0 63 23.5t28 53.5q0 80 -117 80h-13v48h23q43 0 69 20.5t26 54.5q0 26 -21.5 43.5t-55.5 17.5q-58 0 -88 -50l-39 25 q46 73 127 73z" />
<glyph unicode="&#xb4;" horiz-adv-x="240" d="M166 708h80l-134 -144h-50z" />
<glyph unicode="&#xb5;" horiz-adv-x="556" d="M75 -228v690h60v-276q0 -144 116 -144q73 0 116.5 51t43.5 134v235h60v-337q0 -5 3 -63q0 -17 0.5 -32t1 -22t0.5 -8h-60q-1 50 -4 81h-3q-22 -44 -64.5 -68.5t-94.5 -24.5q-72 0 -116 38v-254h-59z" />
<glyph unicode="&#xb6;" horiz-adv-x="600" d="M279 708h231v-834h-60v786h-123v-786h-60v449q-88 0 -147 56q-60 56 -60 134q0 92 58.5 143.5t160.5 51.5z" />
<glyph unicode="&#xb7;" horiz-adv-x="260" d="M96 352q14 14 34 14t34 -14t14 -34t-14 -34t-34 -14t-34 14t-14 34t14 34z" />
<glyph unicode="&#xb8;" horiz-adv-x="240" d="M70 -88l63 88h38l-47 -64l2 -2q13 7 31 7q36 0 59.5 -19.5t23.5 -52.5q0 -38 -32 -61.5t-81 -23.5q-51 0 -94 21l14 32q31 -17 76 -17q27 0 45 12t18 31t-15.5 30.5t-41.5 11.5q-19 0 -43 -8z" />
<glyph unicode="&#xb9;" horiz-adv-x="338" d="M67 628l110 86h54v-425h-54v371l-85 -66z" />
<glyph unicode="&#xba;" horiz-adv-x="386" d="M78 679q44 41 114 41t116 -41q44 -41 44 -107q0 -65 -45 -106.5t-115 -41.5q-71 0 -114.5 41t-43.5 107q0 65 44 107zM114 647q-25 -22 -30 -54.5t7 -61t39.5 -48t61.5 -17.5q47 0 79.5 31t32.5 75q0 46 -31.5 76t-81.5 30q-46 0 -77 -31z" />
<glyph unicode="&#xbb;" horiz-adv-x="481" d="M71 413l44 27l137 -203l-137 -203l-42 29l116 174zM237 413l44 27l137 -203l-137 -203l-42 29l116 174z" />
<glyph unicode="&#xbc;" horiz-adv-x="778" d="M115 -6l456 748l46 -28l-457 -748zM36 628l110 86h54v-425h-54v371l-85 -66zM434 147l185 277h59v-274h64v-48h-64v-102h-54v102h-190v45zM622 352l-134 -202h136v202h-2z" />
<glyph unicode="&#xbd;" horiz-adv-x="778" d="M106 -6l456 748l46 -28l-458 -748zM28 628l110 86h54v-425h-54v371l-85 -66zM614 431q60 0 97.5 -30t37.5 -79q0 -40 -20 -72t-72 -81l-127 -121h220v-48h-292v43l181 177q31 30 43.5 52t12.5 48q0 28 -22.5 45.5t-61.5 17.5q-66 0 -86 -59l-51 4q11 48 49.5 75.5 t90.5 27.5z" />
<glyph unicode="&#xbe;" horiz-adv-x="778" d="M668 714l-457 -748l-45 28l456 748zM162 720q57 0 94 -30.5t37 -77.5q0 -33 -23 -60t-59 -39v-2q42 -5 68 -35t26 -72q0 -54 -40 -87.5t-105 -33.5q-105 0 -140 89l48 18q23 -59 92 -59q35 0 63 23.5t28 53.5q0 80 -117 80h-13v48h23q43 0 69 20.5t26 54.5 q0 26 -21.5 43.5t-55.5 17.5q-58 0 -88 -50l-39 25q46 73 127 73zM450 147l185 277h59v-274h64v-48h-64v-102h-54v102h-190v45zM638 352l-134 -202h136v202h-2z" />
<glyph unicode="&#xbf;" horiz-adv-x="463" d="M194 478q14 14 34 14t34 -14t14 -34t-14 -34t-34 -14t-34 14t-14 34t14 34zM221 -240q-83 0 -133.5 47t-50.5 125q0 94 84 165q78 67 78 136v67h60v-86q0 -68 -78 -139t-78 -140q0 -54 32 -87.5t85 -33.5q50 0 85 30.5t46 85.5l65 -8q-14 -75 -67 -118.5t-128 -43.5z" />
<glyph unicode="&#xc0;" horiz-adv-x="685" d="M217 896h80l104 -144h-50zM314 708h68l298 -708h-74l-77 188h-375l-80 -188h-69zM345 636l-165 -388h325z" />
<glyph unicode="&#xc1;" horiz-adv-x="685" d="M389 896h80l-134 -144h-50zM314 708h68l298 -708h-74l-77 188h-375l-80 -188h-69zM345 636l-165 -388h325z" />
<glyph unicode="&#xc2;" horiz-adv-x="685" d="M308 896h70l108 -144h-65l-81 108l-81 -108h-59zM314 708h68l298 -708h-74l-77 188h-375l-80 -188h-69zM345 636l-165 -388h325z" />
<glyph unicode="&#xc3;" horiz-adv-x="685" d="M277 871q26 0 74 -24q47 -24 64 -24q36 0 48 48h36q-5 -47 -28 -74.5t-56 -27.5q-27 0 -75 24t-66 24q-38 0 -51 -48h-36q7 45 31.5 73.5t58.5 28.5zM314 708h68l298 -708h-74l-77 188h-375l-80 -188h-69zM345 636l-165 -388h325z" />
<glyph unicode="&#xc4;" horiz-adv-x="685" d="M214 874q22 22 52 10t30 -44q0 -21 -14 -34.5t-34 -13.5q-21 0 -34.5 13.5t-13.5 34.5q0 20 14 34zM404 874q22 22 52 10t30 -44q0 -20 -14 -34t-34 -14q-21 0 -34.5 13.5t-13.5 34.5q0 20 14 34zM314 708h68l298 -708h-74l-77 188h-375l-80 -188h-69zM345 636l-165 -388 h325z" />
<glyph unicode="&#xc5;" horiz-adv-x="685" d="M344 932q37 0 64.5 -28.5t27.5 -67.5q0 -38 -27.5 -66t-64.5 -28q-38 0 -66 28t-28 67t28 67t66 28zM286 836q0 -24 16.5 -41t40.5 -17t40.5 17t16.5 42q0 26 -16.5 42.5t-40.5 16.5t-40.5 -17.5t-16.5 -42.5zM314 708h68l298 -708h-74l-77 188h-375l-80 -188h-69z M345 636l-165 -388h325z" />
<glyph unicode="&#xc6;" horiz-adv-x="926" d="M456 708h403v-60h-293v-252h276v-60h-276v-276h301v-60h-367v188h-312l-123 -188h-70zM500 648h-12l-261 -400h273v400z" />
<glyph unicode="&#xc7;" horiz-adv-x="704" d="M417 726q157 0 244 -111l-54 -45q-30 45 -80 70.5t-110 25.5q-135 0 -217 -88q-83 -89 -83 -224t82 -223q83 -89 217 -89q62 0 119.5 30t90.5 80l54 -41q-94 -129 -264 -129q-4 0 -14 0.5t-12 0.5l-34 -46l2 -3q13 7 31 7q36 0 59.5 -19.5t23.5 -52.5q0 -38 -32 -61.5 t-81 -23.5q-51 0 -94 21l14 32q31 -17 76 -17q27 0 45 12t18 31t-15.5 30.5t-41.5 11.5q-19 0 -43 -8l-16 15l53 75q-138 19 -221 121q-83 101 -83 246q0 164 103 268q102 104 263 104z" />
<glyph unicode="&#xc8;" horiz-adv-x="593" d="M171 896h80l104 -144h-50zM97 708h433v-60h-367v-252h344v-60h-344v-276h383v-60h-449v708z" />
<glyph unicode="&#xc9;" horiz-adv-x="593" d="M347 896h80l-134 -144h-50zM97 708h433v-60h-367v-252h344v-60h-344v-276h383v-60h-449v708z" />
<glyph unicode="&#xca;" horiz-adv-x="593" d="M278 896h70l108 -144h-65l-81 108l-81 -108h-59zM97 708h433v-60h-367v-252h344v-60h-344v-276h383v-60h-449v708z" />
<glyph unicode="&#xcb;" horiz-adv-x="593" d="M189 874q23 22 52.5 10t29.5 -44q0 -21 -14 -34.5t-34 -13.5q-21 0 -34.5 13.5t-13.5 34.5q0 20 14 34zM379 874q23 22 52.5 10t29.5 -44q0 -20 -14 -34t-34 -14q-21 0 -34.5 13.5t-13.5 34.5q0 20 14 34zM97 708h433v-60h-367v-252h344v-60h-344v-276h383v-60h-449v708z " />
<glyph unicode="&#xcc;" horiz-adv-x="260" d="M4 896h80l104 -144h-50zM97 708h66v-708h-66v708z" />
<glyph unicode="&#xcd;" horiz-adv-x="260" d="M176 896h80l-134 -144h-50zM97 708h66v-708h-66v708z" />
<glyph unicode="&#xce;" horiz-adv-x="260" d="M95 896h70l108 -144h-65l-81 108l-81 -108h-59zM97 708h66v-708h-66v708z" />
<glyph unicode="&#xcf;" horiz-adv-x="260" d="M1 874q23 22 52.5 10t29.5 -44q0 -21 -14 -34.5t-34 -13.5q-21 0 -34.5 13.5t-13.5 34.5q0 20 14 34zM191 874q23 22 52.5 10t29.5 -44q0 -20 -14 -34t-34 -14q-21 0 -34.5 13.5t-13.5 34.5q0 20 14 34zM97 708h66v-708h-66v708z" />
<glyph unicode="&#xd0;" horiz-adv-x="741" d="M10 396h78v312h221q195 0 293 -111q88 -101 88 -246q0 -72 -28.5 -143.5t-88.5 -124.5q-95 -83 -260 -83h-225v342h-78v54zM154 60h141q151 0 240 76q89 77 89 213q0 143 -88.5 221t-243.5 78h-138v-252h258v-54h-258v-282z" />
<glyph unicode="&#xd1;" horiz-adv-x="778" d="M334 871q26 0 74 -24q46 -24 64 -24q36 0 48 48h36q-5 -47 -28 -74.5t-56 -27.5q-26 0 -75 24t-66 24q-37 0 -51 -48h-36q7 45 31.5 73.5t58.5 28.5zM97 708h85l431 -620h2v620h66v-708h-85l-431 620h-2v-620h-66v708z" />
<glyph unicode="&#xd2;" horiz-adv-x="834" d="M291 896h80l104 -144h-50zM417 726q165 0 265 -105q101 -107 101 -267q0 -161 -102 -266q-103 -106 -264 -106t-263 106q-103 104 -103 266t102 267t264 105zM117 354q0 -134 83 -223t217 -89t217 89t83 223q0 136 -82 224t-219 88q-135 0 -217 -88t-82 -224z" />
<glyph unicode="&#xd3;" horiz-adv-x="834" d="M463 896h80l-134 -144h-50zM417 726q165 0 265 -105q101 -107 101 -267q0 -161 -102 -266q-103 -106 -264 -106t-263 106q-103 104 -103 266t102 267t264 105zM117 354q0 -134 83 -223t217 -89t217 89t83 223q0 136 -82 224t-219 88q-135 0 -217 -88t-82 -224z" />
<glyph unicode="&#xd4;" horiz-adv-x="834" d="M382 896h70l108 -144h-65l-81 108l-81 -108h-59zM417 726q165 0 265 -105q101 -107 101 -267q0 -161 -102 -266q-103 -106 -264 -106t-263 106q-103 104 -103 266t102 267t264 105zM117 354q0 -134 83 -223t217 -89t217 89t83 223q0 136 -82 224t-219 88q-135 0 -217 -88 t-82 -224z" />
<glyph unicode="&#xd5;" horiz-adv-x="834" d="M351 871q26 0 74 -24q46 -24 64 -24q36 0 48 48h36q-5 -47 -28 -74.5t-56 -27.5q-27 0 -75 24t-66 24q-38 0 -51 -48h-36q7 45 31.5 73.5t58.5 28.5zM417 726q165 0 265 -105q101 -107 101 -267q0 -161 -102 -266q-103 -106 -264 -106t-263 106q-103 104 -103 266 t102 267t264 105zM117 354q0 -134 83 -223t217 -89t217 89t83 223q0 136 -82 224t-219 88q-135 0 -217 -88t-82 -224z" />
<glyph unicode="&#xd6;" horiz-adv-x="834" d="M288 874q22 22 52 10t30 -44q0 -21 -14 -34.5t-34 -13.5q-21 0 -34.5 13.5t-13.5 34.5q0 20 14 34zM478 874q22 22 52 10t30 -44q0 -20 -14 -34t-34 -14q-21 0 -34.5 13.5t-13.5 34.5q0 20 14 34zM417 726q165 0 265 -105q101 -107 101 -267q0 -161 -102 -266 q-103 -106 -264 -106t-263 106q-103 104 -103 266t102 267t264 105zM117 354q0 -134 83 -223t217 -89t217 89t83 223q0 136 -82 224t-219 88q-135 0 -217 -88t-82 -224z" />
<glyph unicode="&#xd7;" horiz-adv-x="666" d="M102 501l34 34l198 -198l198 198l33 -34l-198 -198l198 -198l-34 -34l-198 199l-199 -200l-34 35l199 199z" />
<glyph unicode="&#xd8;" horiz-adv-x="834" d="M68 15l76 82q-93 103 -93 257q0 162 102 267t264 105q137 0 235 -78l74 80l34 -31l-74 -81q97 -103 97 -262q0 -161 -102 -266q-103 -106 -264 -106q-142 0 -240 83l-74 -81zM117 354q0 -125 70 -210l422 457q-80 65 -193 65q-135 0 -217 -88t-82 -224zM717 354 q0 130 -75 215l-422 -458q78 -69 197 -69q134 0 217 89t83 223z" />
<glyph unicode="&#xd9;" horiz-adv-x="684" d="M216 896h80l104 -144h-50zM84 708h66v-425q0 -117 48.5 -179t143.5 -62q192 0 192 251v415h66v-432q0 -140 -66.5 -217t-191.5 -77t-191.5 76t-66.5 213v437z" />
<glyph unicode="&#xda;" horiz-adv-x="684" d="M388 896h80l-134 -144h-50zM84 708h66v-425q0 -117 48.5 -179t143.5 -62q192 0 192 251v415h66v-432q0 -140 -66.5 -217t-191.5 -77t-191.5 76t-66.5 213v437z" />
<glyph unicode="&#xdb;" horiz-adv-x="684" d="M309 896h70l108 -144h-65l-81 108l-81 -108h-59zM84 708h66v-425q0 -117 48.5 -179t143.5 -62q192 0 192 251v415h66v-432q0 -140 -66.5 -217t-191.5 -77t-191.5 76t-66.5 213v437z" />
<glyph unicode="&#xdc;" horiz-adv-x="684" d="M217 874q23 22 52.5 10t29.5 -44q0 -21 -14 -34.5t-34 -13.5q-21 0 -34.5 13.5t-13.5 34.5q0 20 14 34zM407 874q23 22 52.5 10t29.5 -44q0 -20 -14 -34t-34 -14q-21 0 -34.5 13.5t-13.5 34.5q0 20 14 34zM84 708h66v-425q0 -117 48.5 -179t143.5 -62q192 0 192 251v415 h66v-432q0 -140 -66.5 -217t-191.5 -77t-191.5 76t-66.5 213v437z" />
<glyph unicode="&#xdd;" horiz-adv-x="574" d="M333 896h80l-134 -144h-50zM-6 708h79l214 -336l219 336h74l-260 -403v-305h-66v305z" />
<glyph unicode="&#xde;" horiz-adv-x="574" d="M97 708h66v-156h142q101 0 162.5 -49.5t61.5 -137.5q0 -86 -58.5 -135.5t-155.5 -49.5h-152v-180h-66v708zM163 240h153q67 0 107 33t40 92q0 58 -42.5 92.5t-107.5 34.5h-150v-252z" />
<glyph unicode="&#xdf;" horiz-adv-x="593" d="M291 768q83 0 134 -49t51 -130q0 -57 -26 -98t-73 -56v-2q159 -31 159 -211q0 -105 -67 -166q-68 -62 -180 -62q-22 0 -47 5v58q22 -9 53 -9q81 0 131 47.5t50 124.5q0 85 -52 134.5t-142 49.5h-16v54h11q65 0 102 34.5t37 94.5q0 58 -35.5 92.5t-94.5 34.5 q-71 0 -108.5 -49t-37.5 -137v-528h-60v536q0 105 56.5 168.5t154.5 63.5z" />
<glyph unicode="&#xe0;" horiz-adv-x="519" d="M153 708h80l104 -144h-50zM255 474q90 0 137 -42.5t47 -120.5v-137q0 -112 9 -174h-56q-6 32 -6 75h-2q-51 -87 -161 -87q-75 0 -119.5 37t-44.5 100q0 77 65 116t187 39h74v27q0 55 -34 84t-96 29q-80 0 -141 -52l-35 41q32 30 80 47.5t96 17.5zM119 128q0 -38 30 -62 t76 -24q78 0 119 41.5t41 116.5v32h-72q-88 0 -141 -26.5t-53 -77.5z" />
<glyph unicode="&#xe1;" horiz-adv-x="519" d="M309 708h80l-134 -144h-50zM255 474q90 0 137 -42.5t47 -120.5v-137q0 -112 9 -174h-56q-6 32 -6 75h-2q-51 -87 -161 -87q-75 0 -119.5 37t-44.5 100q0 77 65 116t187 39h74v27q0 55 -34 84t-96 29q-80 0 -141 -52l-35 41q32 30 80 47.5t96 17.5zM119 128q0 -38 30 -62 t76 -24q78 0 119 41.5t41 116.5v32h-72q-88 0 -141 -26.5t-53 -77.5z" />
<glyph unicode="&#xe2;" horiz-adv-x="519" d="M235 708h70l108 -144h-65l-81 108l-81 -108h-59zM255 474q90 0 137 -42.5t47 -120.5v-137q0 -112 9 -174h-56q-6 32 -6 75h-2q-51 -87 -161 -87q-75 0 -119.5 37t-44.5 100q0 77 65 116t187 39h74v27q0 55 -34 84t-96 29q-80 0 -141 -52l-35 41q32 30 80 47.5t96 17.5z M119 128q0 -38 30 -62t76 -24q78 0 119 41.5t41 116.5v32h-72q-88 0 -141 -26.5t-53 -77.5z" />
<glyph unicode="&#xe3;" horiz-adv-x="519" d="M194 683q28 0 74 -24t64 -24q36 0 48 48h36q-7 -49 -29 -75.5t-55 -26.5q-27 0 -75 24t-66 24q-39 0 -51 -48h-36q5 43 31 72.5t59 29.5zM255 474q90 0 137 -42.5t47 -120.5v-137q0 -112 9 -174h-56q-6 32 -6 75h-2q-51 -87 -161 -87q-75 0 -119.5 37t-44.5 100 q0 77 65 116t187 39h74v27q0 55 -34 84t-96 29q-80 0 -141 -52l-35 41q32 30 80 47.5t96 17.5zM119 128q0 -38 30 -62t76 -24q78 0 119 41.5t41 116.5v32h-72q-88 0 -141 -26.5t-53 -77.5z" />
<glyph unicode="&#xe4;" horiz-adv-x="519" d="M131 686q14 14 34 14t34 -14t14 -34t-14 -34t-34 -14t-34 14t-14 34t14 34zM321 686q14 14 34 14t34 -14t14 -34t-14 -34t-34 -14t-34 14t-14 34t14 34zM255 474q90 0 137 -42.5t47 -120.5v-137q0 -112 9 -174h-56q-6 32 -6 75h-2q-51 -87 -161 -87q-75 0 -119.5 37 t-44.5 100q0 77 65 116t187 39h74v27q0 55 -34 84t-96 29q-80 0 -141 -52l-35 41q32 30 80 47.5t96 17.5zM119 128q0 -38 30 -62t76 -24q78 0 119 41.5t41 116.5v32h-72q-88 0 -141 -26.5t-53 -77.5z" />
<glyph unicode="&#xe5;" horiz-adv-x="519" d="M261 744q37 0 64.5 -28.5t27.5 -67.5q0 -38 -27.5 -66t-64.5 -28q-38 0 -66 28t-28 67t28 67t66 28zM203 648q0 -24 16.5 -41t40.5 -17t40.5 17t16.5 42q0 26 -16.5 42.5t-40.5 16.5t-40.5 -17.5t-16.5 -42.5zM255 474q90 0 137 -42.5t47 -120.5v-137q0 -112 9 -174h-56 q-6 32 -6 75h-2q-51 -87 -161 -87q-75 0 -119.5 37t-44.5 100q0 77 65 116t187 39h74v27q0 55 -34 84t-96 29q-80 0 -141 -52l-35 41q32 30 80 47.5t96 17.5zM119 128q0 -38 30 -62t76 -24q78 0 119 41.5t41 116.5v32h-72q-88 0 -141 -26.5t-53 -77.5z" />
<glyph unicode="&#xe6;" horiz-adv-x="852" d="M250 474q71 0 113.5 -23.5t66.5 -72.5q24 44 71 70t99 26q98 0 153 -60t55 -165v-33h-356v-9q0 -75 44 -120t116 -45q86 0 133 74l47 -34q-40 -51 -83 -72.5t-106 -21.5q-137 0 -183 114q-54 -114 -203 -114q-74 0 -118.5 37.5t-44.5 99.5q0 69 57 107t161 38h120v8 q0 142 -142 142q-80 0 -141 -52l-35 41q30 30 79 47.5t97 17.5zM452 270h296q-1 72 -40 111t-108 39q-64 0 -105.5 -41.5t-42.5 -108.5zM114 127q0 -37 30.5 -61t75.5 -24q81 0 126.5 45.5t45.5 128.5h-121q-76 0 -116.5 -24.5t-40.5 -64.5z" />
<glyph unicode="&#xe7;" horiz-adv-x="481" d="M191 -88l57 81q-87 15 -140 80q-54 65 -54 158q0 106 69 175q68 68 174 68q101 0 172 -80l-48 -36q-59 62 -125 62q-80 0 -131 -53q-51 -54 -51 -136q0 -83 51 -135q51 -54 131 -54q73 0 125 64l46 -38q-66 -80 -166 -80q-14 0 -18 1l-38 -52l2 -3q13 7 31 7 q36 0 59.5 -19.5t23.5 -52.5q0 -38 -32 -61.5t-81 -23.5q-50 0 -94 21l14 32q31 -17 76 -17q27 0 45 12t18 31t-15.5 30.5t-41.5 11.5q-19 0 -43 -8z" />
<glyph unicode="&#xe8;" horiz-adv-x="556" d="M152 708h80l104 -144h-50zM285 474q95 0 156 -60q61 -61 61 -162v-36h-388q4 -77 51 -125.5t124 -48.5q47 0 90 22.5t65 59.5l44 -37q-66 -99 -200 -99q-104 0 -169 68t-65 176q0 101 65 172q64 70 166 70zM114 270h328q-1 64 -47 107t-114 43q-65 0 -112 -44t-55 -106z " />
<glyph unicode="&#xe9;" horiz-adv-x="556" d="M324 708h80l-134 -144h-50zM285 474q95 0 156 -60q61 -61 61 -162v-36h-388q4 -77 51 -125.5t124 -48.5q47 0 90 22.5t65 59.5l44 -37q-66 -99 -200 -99q-104 0 -169 68t-65 176q0 101 65 172q64 70 166 70zM114 270h328q-1 64 -47 107t-114 43q-65 0 -112 -44t-55 -106z " />
<glyph unicode="&#xea;" horiz-adv-x="556" d="M243 708h70l108 -144h-65l-81 108l-81 -108h-59zM285 474q95 0 156 -60q61 -61 61 -162v-36h-388q4 -77 51 -125.5t124 -48.5q47 0 90 22.5t65 59.5l44 -37q-66 -99 -200 -99q-104 0 -169 68t-65 176q0 101 65 172q64 70 166 70zM114 270h328q-1 64 -47 107t-114 43 q-65 0 -112 -44t-55 -106z" />
<glyph unicode="&#xeb;" horiz-adv-x="556" d="M149 686q14 14 34 14t34 -14t14 -34t-14 -34t-34 -14t-34 14t-14 34t14 34zM339 686q14 14 34 14t34 -14t14 -34t-14 -34t-34 -14t-34 14t-14 34t14 34zM285 474q95 0 156 -60q61 -61 61 -162v-36h-388q4 -77 51 -125.5t124 -48.5q47 0 90 22.5t65 59.5l44 -37 q-66 -99 -200 -99q-104 0 -169 68t-65 176q0 101 65 172q64 70 166 70zM114 270h328q-1 64 -47 107t-114 43q-65 0 -112 -44t-55 -106z" />
<glyph unicode="&#xec;" horiz-adv-x="240" d="M-6 708h80l104 -144h-50zM90 0v462h60v-462h-60z" />
<glyph unicode="&#xed;" horiz-adv-x="240" d="M166 708h80l-134 -144h-50zM90 0v462h60v-462h-60z" />
<glyph unicode="&#xee;" horiz-adv-x="240" d="M85 708h70l108 -144h-65l-81 108l-81 -108h-59zM90 0v462h60v-462h-60z" />
<glyph unicode="&#xef;" horiz-adv-x="240" d="M-9 686q14 14 34 14t34 -14t14 -34t-14 -34t-34 -14t-34 14t-14 34t14 34zM181 686q14 14 34 14t34 -14t14 -34t-14 -34t-34 -14t-34 14t-14 34t14 34zM90 0v462h60v-462h-60z" />
<glyph unicode="&#xf0;" horiz-adv-x="594" d="M159 738l52 30q55 -37 95 -80l104 56l36 -30l-106 -57q200 -182 200 -401q0 -121 -67 -194q-68 -74 -176 -74q-107 0 -174 69q-69 69 -69 174q0 106 69 175q68 68 174 68q88 0 149 -55l2 2q-75 129 -161 207l-107 -57l-31 33l104 56q-45 40 -94 78zM165 367 q-51 -54 -51 -136q0 -83 51 -135q51 -54 132 -54t132 54q51 52 51 135q0 82 -51 136q-53 53 -133 53t-131 -53z" />
<glyph unicode="&#xf1;" horiz-adv-x="556" d="M212 683q27 0 74 -24t64 -24q36 0 48 48h36q-7 -49 -29 -75.5t-55 -26.5q-27 0 -75 24t-66 24q-39 0 -51 -48h-36q5 43 31 72.5t59 29.5zM300 474q176 0 176 -201v-273h-60v270q0 150 -116 150q-73 0 -116.5 -51t-43.5 -140v-229h-60v337q0 1 -0.5 8t-1 22.5t-0.5 32.5 q-3 58 -3 62h60q3 -78 4 -81h3q20 42 63.5 67.5t94.5 25.5z" />
<glyph unicode="&#xf2;" horiz-adv-x="594" d="M171 708h80l104 -144h-50zM297 474q105 0 175 -68q68 -70 68 -175q0 -104 -68 -174q-68 -69 -175 -69t-174 69q-69 67 -69 174q0 105 68 175q68 68 175 68zM166 367q-52 -53 -52 -136t51 -135q51 -54 132 -54t132 54q51 52 51 135q0 82 -51 136q-53 53 -133 53 q-79 0 -130 -53z" />
<glyph unicode="&#xf3;" horiz-adv-x="594" d="M343 708h80l-134 -144h-50zM297 474q105 0 175 -68q68 -70 68 -175q0 -104 -68 -174q-68 -69 -175 -69t-174 69q-69 67 -69 174q0 105 68 175q68 68 175 68zM166 367q-52 -53 -52 -136t51 -135q51 -54 132 -54t132 54q51 52 51 135q0 82 -51 136q-53 53 -133 53 q-79 0 -130 -53z" />
<glyph unicode="&#xf4;" horiz-adv-x="594" d="M262 708h70l108 -144h-65l-81 108l-81 -108h-59zM297 474q105 0 175 -68q68 -70 68 -175q0 -104 -68 -174q-68 -69 -175 -69t-174 69q-69 67 -69 174q0 105 68 175q68 68 175 68zM166 367q-52 -53 -52 -136t51 -135q51 -54 132 -54t132 54q51 52 51 135q0 82 -51 136 q-53 53 -133 53q-79 0 -130 -53z" />
<glyph unicode="&#xf5;" horiz-adv-x="594" d="M231 683q27 0 73 -24t65 -24q36 0 48 48h36q-7 -49 -29 -75.5t-55 -26.5q-27 0 -75 24t-66 24q-39 0 -51 -48h-36q5 43 31 72.5t59 29.5zM297 474q105 0 175 -68q68 -70 68 -175q0 -104 -68 -174q-68 -69 -175 -69t-174 69q-69 67 -69 174q0 105 68 175q68 68 175 68z M166 367q-52 -53 -52 -136t51 -135q51 -54 132 -54t132 54q51 52 51 135q0 82 -51 136q-53 53 -133 53q-79 0 -130 -53z" />
<glyph unicode="&#xf6;" horiz-adv-x="594" d="M168 686q14 14 34 14t34 -14t14 -34t-14 -34t-34 -14t-34 14t-14 34t14 34zM358 686q14 14 34 14t34 -14t14 -34t-14 -34t-34 -14t-34 14t-14 34t14 34zM297 474q105 0 175 -68q68 -70 68 -175q0 -104 -68 -174q-68 -69 -175 -69t-174 69q-69 67 -69 174q0 105 68 175 q68 68 175 68zM166 367q-52 -53 -52 -136t51 -135q51 -54 132 -54t132 54q51 52 51 135q0 82 -51 136q-53 53 -133 53q-79 0 -130 -53z" />
<glyph unicode="&#xf7;" horiz-adv-x="666" d="M297 493q15 15 36 15t36 -15t15 -36t-15 -36q-16 -15 -36 -15t-35 15q-16 15 -16 36t15 36zM78 327h510v-48h-510v48zM333 200q33 0 46.5 -31.5t-10.5 -55.5t-55.5 -11t-31.5 47q0 21 16 36t35 15z" />
<glyph unicode="&#xf8;" horiz-adv-x="594" d="M454 421l69 70l32 -29l-71 -71q56 -62 56 -160q0 -104 -68 -174q-68 -69 -175 -69q-97 0 -158 54l-68 -69l-32 29l70 71q-55 65 -55 158q0 105 68 175q68 68 175 68q90 0 157 -53zM114 231q0 -69 36 -116l263 265q-46 40 -117 40q-80 0 -131 -53q-51 -54 -51 -136z M443 349l-263 -266q47 -41 117 -41q81 0 132 54q51 52 51 135q0 72 -37 118z" />
<glyph unicode="&#xf9;" horiz-adv-x="556" d="M152 708h80l104 -144h-50zM251 -12q-176 0 -176 201v273h60v-270q0 -150 116 -150q73 0 116.5 51t43.5 140v229h60v-337q0 -5 3 -63q0 -17 0.5 -32t1 -22t0.5 -8h-60q-3 78 -4 81h-3q-20 -42 -63.5 -67.5t-94.5 -25.5z" />
<glyph unicode="&#xfa;" horiz-adv-x="556" d="M324 708h80l-134 -144h-50zM251 -12q-176 0 -176 201v273h60v-270q0 -150 116 -150q73 0 116.5 51t43.5 140v229h60v-337q0 -5 3 -63q0 -17 0.5 -32t1 -22t0.5 -8h-60q-3 78 -4 81h-3q-20 -42 -63.5 -67.5t-94.5 -25.5z" />
<glyph unicode="&#xfb;" horiz-adv-x="556" d="M243 708h70l108 -144h-65l-81 108l-81 -108h-59zM251 -12q-176 0 -176 201v273h60v-270q0 -150 116 -150q73 0 116.5 51t43.5 140v229h60v-337q0 -5 3 -63q0 -17 0.5 -32t1 -22t0.5 -8h-60q-3 78 -4 81h-3q-20 -42 -63.5 -67.5t-94.5 -25.5z" />
<glyph unicode="&#xfc;" horiz-adv-x="556" d="M149 686q14 14 34 14t34 -14t14 -34t-14 -34t-34 -14t-34 14t-14 34t14 34zM339 686q14 14 34 14t34 -14t14 -34t-14 -34t-34 -14t-34 14t-14 34t14 34zM251 -12q-176 0 -176 201v273h60v-270q0 -150 116 -150q73 0 116.5 51t43.5 140v229h60v-337q0 -5 3 -63 q0 -17 0.5 -32t1 -22t0.5 -8h-60q-3 78 -4 81h-3q-20 -42 -63.5 -67.5t-94.5 -25.5z" />
<glyph unicode="&#xfd;" horiz-adv-x="463" d="M280 708h80l-134 -144h-50zM15 462h67l153 -389l149 389h64l-237 -603q-39 -99 -128 -99q-27 0 -59 9l6 56q36 -11 54 -11q47 0 76 74l43 110z" />
<glyph unicode="&#xfe;" horiz-adv-x="611" d="M67 -228v984h60v-375h2q24 42 75 67.5t110 25.5q104 0 174 -68q69 -69 69 -175t-67 -174q-68 -69 -176 -69q-58 0 -109 25.5t-76 67.5h-2v-309h-60zM121 231q0 -77 56 -133t137 -56t132 54t51 135q0 83 -51 136q-53 53 -133 53t-135 -55q-57 -55 -57 -134z" />
<glyph unicode="&#xff;" horiz-adv-x="463" d="M103 686q14 14 34 14t34 -14t14 -34t-14 -34t-34 -14t-34 14t-14 34t14 34zM293 686q14 14 34 14t34 -14t14 -34t-14 -34t-34 -14t-34 14t-14 34t14 34zM15 462h67l153 -389l149 389h64l-237 -603q-39 -99 -128 -99q-27 0 -59 9l6 56q36 -11 54 -11q47 0 76 74l43 110z " />
<glyph unicode="&#x131;" horiz-adv-x="240" d="M90 0v462h60v-462h-60z" />
<glyph unicode="&#x141;" horiz-adv-x="500" d="M97 708h66v-358l216 189v-62l-216 -189v-228h330v-60h-396v231l-72 -64v65l72 63v413z" />
<glyph unicode="&#x142;" horiz-adv-x="240" d="M90 391v365h60v-305l84 86v-67l-84 -85v-385h-60v324l-84 -85v67z" />
<glyph unicode="&#x152;" horiz-adv-x="944" d="M444 708h433v-60h-296v-252h279v-60h-279v-276h304v-60h-471q-152 0 -253 101q-102 101 -102 253q0 162 111 258t274 96zM125 354q0 -135 92 -215q91 -79 222 -79h76v588h-77q-129 0 -221 -80t-92 -214z" />
<glyph unicode="&#x153;" horiz-adv-x="907" d="M274 474q138 0 199 -115q24 55 71.5 85t109.5 30q97 0 153 -58.5t56 -165.5v-34h-356v-9q0 -75 44 -120t116 -45q86 0 133 74l47 -34q-39 -51 -82.5 -72.5t-106.5 -21.5q-138 0 -183 114h-2q-59 -114 -199 -114q-102 0 -166 70t-64 173t64 173t166 70zM153 366 q-49 -55 -49 -135q0 -81 49 -134q49 -55 123 -55q76 0 124 54q47 53 47 135q0 83 -48 136t-124 53q-73 0 -122 -54zM507 270h296q-1 72 -40 111t-108 39q-63 0 -105 -42t-43 -108z" />
<glyph unicode="&#x160;" horiz-adv-x="556" d="M241 752l-109 144h62l83 -114l86 114h54l-106 -144h-70zM299 726q122 0 193 -89l-57 -41q-51 70 -138 70q-71 0 -115 -36.5t-44 -97.5q0 -55 33.5 -88t114.5 -57q46 -14 60 -19q2 -1 20 -7.5t30 -11.5q32 -14 46 -26q66 -54 61 -142q0 -86 -62 -142q-61 -57 -158 -57 q-153 0 -230 107l63 42q53 -89 162 -89q69 0 114 39t45 100q0 62 -39 89q-39 26 -153 64q-3 1 -8.5 2.5t-7.5 2.5q-81 27 -119 73t-38 120q0 87 64 141q65 53 163 53z" />
<glyph unicode="&#x161;" horiz-adv-x="426" d="M176 564l-109 144h62l83 -114l86 114h54l-106 -144h-70zM206 474q117 0 162 -87l-54 -32q-35 65 -108 65q-39 0 -69 -21.5t-30 -52.5q0 -34 27 -51.5t85 -27.5q89 -16 125.5 -46t36.5 -90q0 -65 -46.5 -104t-121.5 -39q-131 0 -185 94l53 36q17 -34 54 -55t80 -21 t74.5 24.5t31.5 60.5q0 43 -41 61q-34 15 -90 26q-80 17 -111.5 47t-31.5 80q0 59 45 96t114 37z" />
<glyph unicode="&#x178;" horiz-adv-x="574" d="M158 874q22 22 52 10t30 -44q0 -21 -14 -34.5t-34 -13.5q-21 0 -34.5 13.5t-13.5 34.5q0 20 14 34zM348 874q22 22 52 10t30 -44q0 -20 -14 -34t-34 -14q-21 0 -34.5 13.5t-13.5 34.5q0 20 14 34zM-6 708h79l214 -336l219 336h74l-260 -403v-305h-66v305z" />
<glyph unicode="&#x17d;" horiz-adv-x="556" d="M241 752l-109 144h62l83 -114l86 114h54l-106 -144h-70zM29 708h493v-54l-417 -594h428v-60h-510v52l414 596h-408v60z" />
<glyph unicode="&#x17e;" horiz-adv-x="426" d="M176 564l-109 144h62l83 -114l86 114h54l-106 -144h-70zM41 462h346v-36l-276 -372h288v-54h-372v36l277 372h-263v54z" />
<glyph unicode="&#x192;" horiz-adv-x="520" d="M399 720q47 0 90 -30l-32 -45q-32 21 -58 21q-66 0 -84 -94l-28 -153h108v-48h-117l-72 -390q-23 -125 -143 -125q-50 0 -79 24l30 47q22 -17 53 -17q37 0 57 26t31 89l63 346h-108v48h117l29 155q13 72 49.5 109t93.5 37z" />
<glyph unicode="&#x2c6;" horiz-adv-x="240" d="M85 708h70l108 -144h-65l-81 108l-81 -108h-59z" />
<glyph unicode="&#x2c7;" horiz-adv-x="240" d="M83 564l-109 144h62l83 -114l86 114h54l-106 -144h-70z" />
<glyph unicode="&#x2c9;" horiz-adv-x="240" d="M-12 654h264v-48h-264v48z" />
<glyph unicode="&#x2d8;" horiz-adv-x="240" d="M-24 708h42q5 -37 31.5 -57.5t69.5 -20.5q48 0 71 18t32 60h42q-7 -60 -46 -93t-100 -33q-63 0 -101 33.5t-41 92.5z" />
<glyph unicode="&#x2d9;" horiz-adv-x="240" d="M89 686q23 22 52.5 10t29.5 -44q0 -21 -13.5 -34.5t-34.5 -13.5q-20 0 -34 13.5t-14 34.5q0 20 14 34z" />
<glyph unicode="&#x2da;" horiz-adv-x="240" d="M121 744q37 0 64.5 -28.5t27.5 -67.5q0 -38 -27.5 -66t-64.5 -28q-38 0 -66 28t-28 67t28 67t66 28zM63 648q0 -24 16.5 -41t40.5 -17t40.5 17t16.5 42q0 26 -16.5 42.5t-40.5 16.5t-40.5 -17.5t-16.5 -42.5z" />
<glyph unicode="&#x2db;" horiz-adv-x="240" d="M98 0h45q-31 -22 -52 -56.5t-21 -64.5q0 -47 43 -47q34 0 55 23l19 -38q-37 -33 -85 -33q-42 0 -67 22.5t-25 59.5q0 64 88 134z" />
<glyph unicode="&#x2dc;" horiz-adv-x="240" d="M54 683q28 0 74 -24t64 -24q36 0 48 48h36q-7 -49 -29 -75.5t-55 -26.5q-27 0 -75 24t-66 24q-39 0 -51 -48h-36q5 43 31 72.5t59 29.5z" />
<glyph unicode="&#x2dd;" horiz-adv-x="240" d="M93 708h80l-134 -144h-50zM239 708h80l-134 -144h-50z" />
<glyph unicode="&#x394;" horiz-adv-x="670" d="M296 712h74l287 -712h-642zM332 645l-226 -583h455z" />
<glyph unicode="&#x3a9;" horiz-adv-x="744" d="M367 721q133 0 226 -87q92 -89 92 -217q0 -100 -52 -176q-52 -75 -145 -101v-82h197v-58h-251v181q87 16 135.5 78t48.5 156q0 105 -72 175q-71 70 -180 70q-106 0 -179 -70t-73 -175q0 -94 49 -157t135 -77v-181h-251v58h197v82q-91 25 -144 103q-53 77 -53 173 q0 130 93 218q93 87 227 87z" />
<glyph unicode="&#x3bc;" horiz-adv-x="556" d="M75 -228v690h60v-276q0 -144 116 -144q73 0 116.5 51t43.5 134v235h60v-337q0 -5 3 -63q0 -17 0.5 -32t1 -22t0.5 -8h-60q-1 50 -4 81h-3q-22 -44 -64.5 -68.5t-94.5 -24.5q-72 0 -116 38v-254h-59z" />
<glyph unicode="&#x3c0;" horiz-adv-x="563" d="M38 462h482v-47h-76v-321q0 -32 10 -44t34 -12q16 0 36 7v-36q-35 -15 -58 -15q-41 0 -57.5 22.5t-16.5 82.5v316h-232v-415h-52v415h-70v47z" />
<glyph unicode="&#x60c;" horiz-adv-x="260" d="M137 0h-70l77 228h59z" />
<glyph unicode="&#x615;" d="M46 697q38 0 60 -25t22 -67q0 -25 -9 -52h-247v33h51v168h33v-107q38 50 90 50zM44 664q-27 0 -51 -20.5t-38 -57.5h139q2 18 2 19q0 27 -14 43t-38 16z" />
<glyph unicode="&#x61b;" horiz-adv-x="260" d="M140 186h-70l77 228h59zM140 8q-14 -14 -34 -14t-34 14t-14 34t14 34t34 14t34 -14t14 -34t-14 -34z" />
<glyph unicode="&#x61f;" horiz-adv-x="463" d="M269 186h-60v64q0 42 -19 73t-62 69q-81 70 -81 162q0 78 51 125t133 47q76 0 128.5 -43.5t66.5 -118.5l-65 -8q-12 54 -46 85t-85 31q-54 0 -85.5 -33t-31.5 -88q0 -70 78 -140q78 -71 78 -141v-84zM272 8q-14 -14 -34 -14t-34 14t-14 34t14 34t34 14t34 -14t14 -34 t-14 -34z" />
<glyph unicode="&#x621;" horiz-adv-x="472" d="M219 53h203v-53h-366v53h99q-48 55 -48 131t55 128t140 52q52 0 99 -16l-12 -52q-42 12 -79 12q-67 0 -107 -34.5t-40 -94.5q0 -62 56 -126z" />
<glyph unicode="&#x622;" horiz-adv-x="222" d="M171 820q-25 0 -76 14q-48 13 -65 13q-24 0 -49 -19l-22 26q37 33 73 33q19 0 67 -13q51 -14 69 -14q27 0 56 26l25 -24q-29 -42 -78 -42zM141 0h-60v756h60v-756z" />
<glyph unicode="&#x623;" horiz-adv-x="222" d="M106 843h87v-32h-160v32h39q-16 26 -16 53q0 34 23 54.5t59 20.5q20 0 46 -6l-6 -32q-18 5 -35 5q-37 0 -49 -27.5t12 -67.5zM141 0h-60v756h60v-756z" />
<glyph unicode="&#x624;" horiz-adv-x="493" d="M233 579h113v-40h-206v40h50q-21 33 -21 70q0 42 28.5 67.5t74.5 25.5q31 0 62 -7l-8 -39q-35 5 -46 5q-31 0 -50 -15t-19 -43q0 -30 22 -64zM251 412q86 0 133.5 -51.5t47.5 -139.5v-176q0 -218 -275 -218q-28 0 -40 1l-3 55q252 -13 256 138q-51 -21 -114 -21 q-93 0 -147 52t-54 144t54 154q53 62 142 62zM372 77v124q0 75 -32 114t-92 39q-58 0 -95 -41.5t-37 -110.5t39 -106t109 -37q60 0 108 18z" />
<glyph unicode="&#x625;" horiz-adv-x="222" d="M81 756h60v-756h-60v756zM104 -218h87v-32h-160v32h38q-15 24 -15 52q0 34 22.5 55t58.5 21q25 0 47 -7l-6 -31q-18 5 -35 5q-24 0 -38.5 -13t-14.5 -34q0 -26 16 -48z" />
<glyph unicode="&#x626;" horiz-adv-x="754" d="M163 308h113v-40h-206v40h50q-21 33 -21 70q0 42 28.5 67.5t74.5 25.5q31 0 62 -7l-8 -39q-37 5 -46 5q-31 0 -50 -15t-19 -43q0 -30 22 -64zM439 262q0 -14 4.5 -26t15.5 -23.5t20.5 -20t27.5 -18.5t29 -15.5l33 -16.5t31 -15q39 -20 63 -51t24 -68q0 -78 -86 -125 q-88 -47 -232 -47q-323 0 -323 207q0 55 23 129l56 -15q-18 -67 -18 -107q0 -80 64.5 -117.5t197.5 -37.5q120 0 188.5 29t68.5 77q0 16 -9 30.5t-28 28t-35.5 23t-45 24.5t-43.5 23q-88 50 -88 129q0 67 52.5 110t140.5 43q46 0 107 -15l-11 -57q-56 14 -98 14 q-59 0 -94 -25t-35 -67z" />
<glyph unicode="&#x627;" horiz-adv-x="222" d="M141 0h-60v756h60v-756z" />
<glyph unicode="&#x628;" horiz-adv-x="923" d="M802 197v204h60v-228q0 -79 -50.5 -126t-141.5 -47h-394q-108 0 -169 50t-61 138q0 68 32 156l56 -15q-27 -87 -27 -131q0 -141 177 -141h379q71 0 105 33.5t34 106.5zM440 -90q25 0 35 -20.5t0 -41t-35 -20.5q-26 0 -36.5 20.5t0 41t36.5 20.5z" />
<glyph unicode="&#x629;" horiz-adv-x="505" d="M174 530q-17 0 -29 11.5t-12 29.5t12 29.5t29 11.5q25 2 35.5 -19.5t0 -43t-35.5 -19.5zM307 530q-26 -2 -36.5 19.5t0 43t36.5 19.5q24 2 34.5 -19.5t0 -43t-34.5 -19.5zM242 -5q-95 0 -148.5 54.5t-53.5 143.5q0 92 54 155q53 63 148 63t149 -63q53 -65 53 -155 t-54.5 -144t-147.5 -54zM244 54q67 0 103 36t36 105q0 73 -37 115.5t-104 42.5q-68 0 -104.5 -42.5t-36.5 -115.5q0 -70 37.5 -105.5t105.5 -35.5z" />
<glyph unicode="&#x62a;" horiz-adv-x="923" d="M382 432q-17 0 -29 11.5t-12 29.5t12 29.5t29 11.5q25 2 35.5 -19.5t0 -43t-35.5 -19.5zM515 432q-26 -2 -36.5 19.5t0 43t36.5 19.5q24 2 34.5 -19.5t0 -43t-34.5 -19.5zM802 197v204h60v-228q0 -79 -50.5 -126t-141.5 -47h-394q-108 0 -169 50t-61 138q0 68 32 156 l56 -15q-27 -87 -27 -131q0 -141 177 -141h379q71 0 105 33.5t34 106.5z" />
<glyph unicode="&#x62b;" horiz-adv-x="923" d="M451 534q-18 0 -29.5 12t-11.5 30q0 17 11.5 29t29.5 12q17 0 28.5 -12t11.5 -29q0 -18 -11.5 -30t-28.5 -12zM382 435q-17 0 -29 11.5t-12 29.5q0 17 12 29t29 12q18 0 29.5 -12t11.5 -29q0 -18 -11.5 -29.5t-29.5 -11.5zM473 476q0 17 12 29t30 12q17 0 28.5 -12 t11.5 -29q0 -18 -11.5 -29.5t-28.5 -11.5q-18 0 -30 11.5t-12 29.5zM802 197v204h60v-228q0 -79 -50.5 -126t-141.5 -47h-394q-108 0 -169 50t-61 138q0 68 32 156l56 -15q-27 -87 -27 -131q0 -141 177 -141h379q71 0 105 33.5t34 106.5z" />
<glyph unicode="&#x62c;" horiz-adv-x="610" d="M293 411q121 0 186 -69.5t65 -192.5q0 -69 -21 -149h-309q-54 0 -83.5 -25.5t-29.5 -72.5q0 -50 35 -76.5t99 -26.5q32 0 63 7l12 -57q-34 -9 -82 -9q-85 0 -136.5 43.5t-51.5 117.5q0 72 45.5 114t122.5 42h266q12 45 12 88q0 97 -52.5 152.5t-149.5 55.5 q-48 0 -114 -20l-15 54q65 24 138 24zM257 -68q19 18 42 8t23 -35q0 -17 -10.5 -27.5t-26.5 -10.5q-26 0 -36.5 23.5t8.5 41.5z" />
<glyph unicode="&#x62d;" horiz-adv-x="610" d="M523 0h-309q-54 0 -83.5 -25.5t-29.5 -72.5q0 -50 35 -76.5t99 -26.5q39 0 93 14l11 -55q-57 -18 -111 -18q-85 0 -136.5 43.5t-51.5 117.5q0 72 45.5 114t122.5 42h266q12 45 12 88q0 97 -52.5 152.5t-149.5 55.5q-48 0 -114 -20l-15 54q65 24 138 24q121 0 186 -69.5 t65 -192.5q0 -69 -21 -149z" />
<glyph unicode="&#x62e;" horiz-adv-x="610" d="M293 530q-26 0 -36.5 20.5t0 41t36.5 20.5q25 0 35 -20.5t0 -41t-35 -20.5zM523 0h-309q-54 0 -83.5 -25.5t-29.5 -72.5q0 -50 35 -76.5t99 -26.5q39 0 93 14l11 -55q-57 -18 -111 -18q-85 0 -136.5 43.5t-51.5 117.5q0 72 45.5 114t122.5 42h266q12 45 12 88 q0 97 -52.5 152.5t-149.5 55.5q-48 0 -114 -20l-15 54q65 24 138 24q121 0 186 -69.5t65 -192.5q0 -69 -21 -149z" />
<glyph unicode="&#x62f;" horiz-adv-x="508" d="M442 0h-402v57h342v22q0 169 -206 303l36 48q128 -84 179 -170t51 -199v-61z" />
<glyph unicode="&#x630;" horiz-adv-x="508" d="M192 526q-26 0 -36.5 20.5t0 41t36.5 20.5q25 0 35 -20.5t0 -41t-35 -20.5zM442 0h-402v57h342v22q0 169 -206 303l36 48q128 -84 179 -170t51 -199v-61z" />
<glyph unicode="&#x631;" horiz-adv-x="286" d="M8 -172l-12 56q79 13 114 55.5t35 129.5v332h60v-320q0 -227 -197 -253z" />
<glyph unicode="&#x632;" horiz-adv-x="286" d="M176 520q-26 0 -36.5 20.5t0 41t36.5 20.5q25 0 35 -20.5t0 -41t-35 -20.5zM8 -172l-12 56q79 13 114 55.5t35 129.5v332h60v-320q0 -227 -197 -253z" />
<glyph unicode="&#x633;" horiz-adv-x="1192" d="M1071 197v204h60v-228q0 -82 -44.5 -127.5t-125.5 -45.5q-104 0 -140 74q-40 -76 -145 -76q-74 0 -108 46q-10 -100 -79 -154t-184 -54q-122 0 -190.5 61.5t-68.5 164.5q0 78 41 177l53 -19q-33 -82 -33 -151q0 -86 52 -130t148 -44q202 0 202 195v238h60v-171 q0 -100 107 -100q56 0 84 31.5t28 102.5v137h60v-166q0 -105 112 -105q58 0 84.5 33t26.5 107z" />
<glyph unicode="&#x634;" horiz-adv-x="1192" d="M820 549q-18 0 -29.5 12t-11.5 30q0 17 11.5 29t29.5 12q17 0 28.5 -12t11.5 -29q0 -18 -11.5 -30t-28.5 -12zM751 450q-17 0 -29 11.5t-12 29.5q0 17 12 29t29 12q18 0 29.5 -12t11.5 -29q0 -18 -11.5 -29.5t-29.5 -11.5zM842 491q0 17 12 29t30 12q17 0 28.5 -12 t11.5 -29q0 -18 -11.5 -29.5t-28.5 -11.5q-18 0 -30 11.5t-12 29.5zM1071 197v204h60v-228q0 -82 -44.5 -127.5t-125.5 -45.5q-104 0 -140 74q-40 -76 -145 -76q-74 0 -108 46q-10 -100 -79 -154t-184 -54q-122 0 -190.5 61.5t-68.5 164.5q0 78 41 177l53 -19 q-33 -82 -33 -151q0 -86 52 -130t148 -44q202 0 202 195v238h60v-171q0 -100 107 -100q56 0 84 31.5t28 102.5v137h60v-166q0 -105 112 -105q58 0 84.5 33t26.5 107z" />
<glyph unicode="&#x635;" horiz-adv-x="1328" d="M1049 411q101 0 157 -65t56 -176q0 -83 -31 -170h-552q-74 0 -112 35q-13 -96 -81.5 -147.5t-180.5 -51.5q-122 0 -190.5 61.5t-68.5 164.5q0 78 41 177l53 -19q-33 -82 -33 -151q0 -86 52 -130t148 -44q202 0 202 195v238h60v-185q0 -65 64 -81q108 202 225 282 q100 67 191 67zM696 57h487q18 58 18 110q0 84 -42 135t-116 51q-87 0 -176.5 -74.5t-170.5 -221.5z" />
<glyph unicode="&#x636;" horiz-adv-x="1328" d="M961 530q-26 0 -36.5 20.5t0 41t36.5 20.5q25 0 35 -20.5t0 -41t-35 -20.5zM1049 411q101 0 157 -65t56 -176q0 -83 -31 -170h-552q-74 0 -112 35q-13 -96 -81.5 -147.5t-180.5 -51.5q-122 0 -190.5 61.5t-68.5 164.5q0 78 41 177l53 -19q-33 -82 -33 -151q0 -86 52 -130 t148 -44q202 0 202 195v238h60v-185q0 -65 64 -81q108 202 225 282q100 67 191 67zM696 57h487q18 58 18 110q0 84 -42 135t-116 51q-87 0 -176.5 -74.5t-170.5 -221.5z" />
<glyph unicode="&#x637;" horiz-adv-x="851" d="M573 411q101 0 156.5 -65.5t55.5 -175.5q0 -83 -30 -170h-709v57h113v699h60v-596q75 122 167.5 186.5t186.5 64.5zM220 57h487q18 59 18 113q0 84 -41.5 133.5t-115.5 49.5q-87 0 -182 -77q-96 -78 -166 -219z" />
<glyph unicode="&#x638;" horiz-adv-x="851" d="M573 411q101 0 156.5 -65.5t55.5 -175.5q0 -83 -30 -170h-709v57h113v699h60v-596q75 122 167.5 186.5t186.5 64.5zM503 530q-26 0 -36.5 20.5t0 41t36.5 20.5q25 0 35 -20.5t0 -41t-35 -20.5zM220 57h487q18 59 18 113q0 84 -41.5 133.5t-115.5 49.5q-87 0 -182 -77 q-96 -78 -166 -219z" />
<glyph unicode="&#x639;" horiz-adv-x="510" d="M476 0h-251q-58 0 -91 -25.5t-33 -71.5q0 -51 36.5 -77.5t101.5 -26.5q45 0 89 12l11 -55q-49 -16 -102 -16q-93 0 -145 42.5t-52 119.5q0 62 39 102.5t105 50.5q-62 77 -62 163t60 140q59 53 163 53q53 0 108 -15l-12 -57q-58 14 -97 14q-74 0 -116.5 -38t-42.5 -101 q0 -84 69 -157h222v-57z" />
<glyph unicode="&#x63a;" horiz-adv-x="510" d="M345 530q-26 0 -36.5 20.5t0 41t36.5 20.5q25 0 35 -20.5t0 -41t-35 -20.5zM476 0h-251q-58 0 -91 -25.5t-33 -71.5q0 -51 36.5 -77.5t101.5 -26.5q45 0 89 12l11 -55q-49 -16 -102 -16q-93 0 -145 42.5t-52 119.5q0 62 39 102.5t105 50.5q-62 77 -62 163t60 140 q59 53 163 53q53 0 108 -15l-12 -57q-58 14 -97 14q-74 0 -116.5 -38t-42.5 -101q0 -84 69 -157h222v-57z" />
<glyph unicode="&#x640;" horiz-adv-x="52" d="M52 0h-52v57h52q20 0 20 -28q0 -29 -20 -29z" />
<glyph unicode="&#x641;" horiz-adv-x="1034" d="M786 530q-26 0 -36.5 20.5t0 41t36.5 20.5q25 0 35 -20.5t0 -41t-35 -20.5zM786 411q90 0 138.5 -58t48.5 -156q0 -85 -44 -197h-653q-108 0 -169 50t-61 138q0 68 32 156l56 -15q-27 -87 -27 -131q0 -141 177 -141h348q-56 59 -56 146q0 91 59 150q58 58 151 58zM701 57 h186q24 76 24 137q0 75 -34 117t-96 42q-65 0 -104 -42t-39 -109q0 -79 63 -145z" />
<glyph unicode="&#x642;" horiz-adv-x="769" d="M460 530q-17 0 -29 11.5t-12 29.5t12 29.5t29 11.5q25 2 35.5 -19.5t0 -43t-35.5 -19.5zM593 530q-26 -2 -36.5 19.5t0 43t36.5 19.5q24 2 34.5 -19.5t0 -43t-34.5 -19.5zM386 -164q-340 0 -340 232q0 58 23 130l56 -15q-18 -55 -18 -107q0 -91 68 -136t211 -45 q254 0 261 126q-53 -21 -115 -21q-93 0 -147 52t-54 144t54 154q52 61 143 61q85 0 132.5 -55t47.5 -147v-153q0 -112 -78.5 -166t-243.5 -54zM540 59q62 0 108 18v117q0 76 -31 117.5t-92 41.5q-59 0 -95.5 -41t-36.5 -110t38.5 -106t108.5 -37z" />
<glyph unicode="&#x643;" horiz-adv-x="826" d="M685 197v559h60v-583q0 -173 -184 -173h-285q-108 0 -169 50t-61 138q0 68 32 156l56 -15q-27 -87 -27 -131q0 -141 177 -141h277q69 0 96.5 32t27.5 108zM410 357h95v-39h-195v39h55q-19 28 -19 61q0 40 28 66t72 26q21 0 48 -8l-8 -38q-20 7 -39 7q-28 0 -44.5 -15 t-16.5 -41q0 -33 24 -58z" />
<glyph unicode="&#x644;" horiz-adv-x="650" d="M302 -164q-118 0 -187 61t-69 165q0 78 41 177l53 -19q-33 -94 -33 -152q0 -86 51 -129.5t148 -43.5q203 0 203 198v663h60v-678q0 -113 -71.5 -177.5t-195.5 -64.5z" />
<glyph unicode="&#x645;" horiz-adv-x="633" d="M382 411q89 0 140 -58q50 -59 50 -150q0 -93 -56.5 -148t-164.5 -55h-157q-95 0 -95 -99v-161h-59v161q0 74 40 115t113 41h30q-46 73 -46 146q0 92 58 150q57 58 147 58zM291 57h65q75 0 115 39.5t40 107.5t-37 108.5t-98 40.5q-62 0 -100 -40.5t-38 -108.5 q0 -67 53 -147z" />
<glyph unicode="&#x646;" horiz-adv-x="650" d="M317 412q-26 0 -36.5 20.5t0 41t36.5 20.5q25 0 35 -20.5t0 -41t-35 -20.5zM305 -164q-122 0 -190.5 61.5t-68.5 164.5q0 78 41 177l53 -19q-33 -82 -33 -151q0 -86 52 -130t148 -44q202 0 202 195v238h60v-253q0 -115 -70 -177t-194 -62z" />
<glyph unicode="&#x647;" horiz-adv-x="505" d="M242 -5q-95 0 -148.5 54.5t-53.5 143.5q0 92 54 155q53 63 148 63t149 -63q53 -65 53 -155t-54.5 -144t-147.5 -54zM244 54q67 0 103 36t36 105q0 73 -37 115.5t-104 42.5q-68 0 -104.5 -42.5t-36.5 -115.5q0 -70 37.5 -105.5t105.5 -35.5z" />
<glyph unicode="&#x648;" horiz-adv-x="493" d="M117 -172l-3 55q252 -13 256 138q-51 -21 -114 -21q-93 0 -147 52t-54 144t54 154q53 62 142 62q86 0 133.5 -51.5t47.5 -139.5v-176q0 -218 -275 -218q-28 0 -40 1zM264 59q60 0 108 18v124q0 75 -32 114t-92 39q-58 0 -95 -41.5t-37 -110.5t39 -106t109 -37z" />
<glyph unicode="&#x649;" horiz-adv-x="754" d="M369 -164q-323 0 -323 207q0 55 23 129l56 -15q-18 -67 -18 -107q0 -80 64.5 -117.5t197.5 -37.5q120 0 188.5 29t68.5 77q0 16 -9 30.5t-28 28t-35.5 23t-45 24.5t-43.5 23q-88 50 -88 129q0 67 52.5 110t140.5 43q46 0 107 -15l-11 -57q-56 14 -98 14q-59 0 -94 -25 t-35 -67q0 -14 4.5 -26t15.5 -23.5t20.5 -20t27.5 -18.5t29 -15.5l33 -16.5t31 -15q39 -20 63 -51t24 -68q0 -78 -86 -125q-88 -47 -232 -47z" />
<glyph unicode="&#x64a;" horiz-adv-x="754" d="M369 -164q-323 0 -323 207q0 55 23 129l56 -15q-18 -67 -18 -107q0 -80 64.5 -117.5t197.5 -37.5q120 0 188.5 29t68.5 77q0 16 -9 30.5t-28 28t-35.5 23t-45 24.5t-43.5 23q-88 50 -88 129q0 67 52.5 110t140.5 43q46 0 107 -15l-11 -57q-56 14 -98 14q-59 0 -94 -25 t-35 -67q0 -14 4.5 -26t15.5 -23.5t20.5 -20t27.5 -18.5t29 -15.5l33 -16.5t31 -15q39 -20 63 -51t24 -68q0 -78 -86 -125q-88 -47 -232 -47zM298 -336q-17 0 -29 11.5t-12 29.5t12 29.5t29 11.5q25 2 35.5 -19.5t0 -43t-35.5 -19.5zM431 -336q-26 -2 -36.5 19.5t0 43 t36.5 19.5q24 2 34.5 -19.5t0 -43t-34.5 -19.5z" />
<glyph unicode="&#x64b;" d="M111 669l-224 -34l-3 1l5 32l224 34l3 -1zM111 578l-224 -34l-3 1l5 32l224 34l3 -1z" />
<glyph unicode="&#x64c;" d="M28 742q21 21 46 22t44 -24.5t17 -63.5q0 -53 -30.5 -89.5t-71.5 -36.5q-22 0 -43 18t-37 36t-24 18q-18 0 -43 -34l-21 19q31 46 66 46q23 0 53 -35q32 -36 51 -36q43 0 62 51q-16 -2 -20 -2q-31 0 -50 15.5t-19 43.5q0 29 20 52zM83 662q3 0 21 2q1 3 1 12q0 56 -33 56 q-15 0 -25 -11.5t-10 -27.5q0 -31 46 -31z" />
<glyph unicode="&#x64d;" d="M110 -125l-224 -34l-3 1l5 32l224 34l3 -1zM110 -205l-224 -34l-3 1l5 32l224 34l3 -1z" />
<glyph unicode="&#x64e;" d="M111 578l-224 -34l-3 1l5 32l224 34l3 -1z" />
<glyph unicode="&#x64f;" d="M-28 742q15 17 34.5 20.5t36.5 -5.5t28 -30.5t9 -50.5q0 -58 -30 -92t-74 -34q-31 0 -56 15l14 28q20 -11 42 -11q46 0 66 51q-16 -2 -20 -2q-31 0 -50 15.5t-19 43.5q0 30 19 52zM28 662q3 0 21 2q1 3 1 12q0 24 -9.5 40t-24.5 16t-24.5 -11.5t-9.5 -27.5q0 -31 46 -31z " />
<glyph unicode="&#x650;" d="M111 -125l-224 -34l-3 1l5 32l224 34l3 -1z" />
<glyph unicode="&#x651;" d="M75 675l24 10q24 -43 10.5 -83.5t-55.5 -40.5q-31 0 -48 17q-16 -28 -53 -28q-31 0 -48.5 17.5t-17.5 46.5q0 24 10 47l24 -7q-5 -15 -5 -30q0 -39 37 -39q33 0 33 39q0 11 -3 23l25 6q6 -21 6 -38v-5q13 -16 38 -16q32 0 32 35q0 22 -9 46z" />
<glyph unicode="&#x652;" d="M49 565q-18 -17 -49 -17t-49 17q-17 17 -17 48t18 55q19 24 48 24t48 -24q18 -24 18 -55t-17 -48zM0 580q33 0 33 35q0 18 -9 31t-24 13t-24.5 -12.5t-9.5 -31.5q0 -35 34 -35z" />
<glyph unicode="&#x653;" d="M67 553q-24 0 -77 14q-48 13 -64 13q-24 0 -49 -19l-22 26q37 33 73 33q19 0 67 -13q51 -14 69 -14q27 0 56 26l25 -24q-29 -42 -78 -42z" />
<glyph unicode="&#x654;" d="M-7 576h87v-32h-160v32h39q-16 26 -16 53q0 34 23 54.5t59 20.5q21 0 46 -6l-6 -32q-18 5 -35 5q-37 0 -49 -27.5t12 -67.5z" />
<glyph unicode="&#x655;" d="M-7 -218h87v-32h-160v32h38q-15 24 -15 52q0 34 22.5 55t58.5 21q23 0 47 -7l-6 -31q-18 5 -35 5q-24 0 -38.5 -13t-14.5 -34q0 -26 16 -48z" />
<glyph unicode="&#x656;" d="M-11 -277h-5v175h32v-165z" />
<glyph unicode="&#x658;" d="M-61 665l29 -10q-11 -30 -11 -48q0 -40 45 -40q41 0 41 48v51h33v-51q0 -38 -19.5 -59.5t-54.5 -21.5q-36 0 -57 18.5t-21 51.5q0 30 15 61z" />
<glyph unicode="&#x660;" horiz-adv-x="540" d="M333 294l-63 -63l-64 64l64 61z" />
<glyph unicode="&#x661;" horiz-adv-x="540" d="M300 0h-60v653h60v-653z" />
<glyph unicode="&#x662;" horiz-adv-x="540" d="M395 649l60 4q8 -120 -31 -176t-134 -56q-62 0 -134 31v-452h-60v653h60v-144q74 -33 135 -33q64 0 88 41t16 132z" />
<glyph unicode="&#x663;" horiz-adv-x="540" d="M452 649l60 4q18 -217 -124 -217q-52 0 -116 26q-32 -26 -77 -26q-47 0 -89 16v-452h-60v653h60v-149q42 -14 77 -14q47 0 65.5 38t10.5 121l60 4q8 -97 -16 -149q44 -14 74 -14q91 0 75 159z" />
<glyph unicode="&#x664;" horiz-adv-x="540" d="M455 57l3 -55q-83 -8 -123 -8q-243 0 -243 153q0 61 41.5 110t116.5 78q-57 18 -91 53.5t-34 84.5q0 86 74.5 134t201.5 48q15 0 23 -1v-56q-110 5 -174 -27.5t-64 -98.5q0 -57 59 -84.5t163 -16.5v-57q-122 -11 -188.5 -53.5t-66.5 -103.5q0 -106 190 -106q40 0 112 6z " />
<glyph unicode="&#x665;" horiz-adv-x="540" d="M483 266q0 -274 -213 -274t-213 274q0 191 64 289q63 99 149 99q87 0 150 -99t63 -289zM119 268q0 -218 151 -218t151 218q0 152 -45 240q-46 88 -106 88t-105 -88q-46 -88 -46 -240z" />
<glyph unicode="&#x666;" horiz-adv-x="540" d="M423 0h-60v597h-315v56h375v-653z" />
<glyph unicode="&#x667;" horiz-adv-x="540" d="M270 86l189 573l64 -20l-219 -639h-67l-220 641l63 18z" />
<glyph unicode="&#x668;" horiz-adv-x="540" d="M302 652l221 -641l-64 -18l-189 570l-190 -570l-63 19l219 640h66z" />
<glyph unicode="&#x669;" horiz-adv-x="540" d="M282 653h150v-653h-60v282q-136 -12 -219 32t-83 143q0 91 57 143.5t155 52.5zM131 457q0 -74 70 -102q70 -30 171 -17v259h-77q-77 0 -120.5 -37t-43.5 -103z" />
<glyph unicode="&#x66a;" horiz-adv-x="569" d="M217 592l-67 -66l-67 67l67 66zM446 642l-291 -660l-45 17l291 660zM488 66l-67 -66l-66 67l66 65z" />
<glyph unicode="&#x66b;" horiz-adv-x="230" d="M101 74h70l-77 -228h-59z" />
<glyph unicode="&#x66c;" horiz-adv-x="197" d="M81 129h57l-53 -159h-50z" />
<glyph unicode="&#x66d;" horiz-adv-x="842" d="M426 100l-223 -198l-24 20l113 266l-251 150l8 37l299 -37l63 288h30l59 -288l299 37l11 -37l-261 -149l122 -267l-27 -20z" />
<glyph unicode="&#x66e;" horiz-adv-x="923" d="M802 197v204h60v-228q0 -79 -50.5 -126t-141.5 -47h-394q-108 0 -169 50t-61 138q0 68 32 156l56 -15q-27 -87 -27 -131q0 -141 177 -141h379q71 0 105 33.5t34 106.5z" />
<glyph unicode="&#x66f;" horiz-adv-x="769" d="M386 -164q-340 0 -340 232q0 58 23 130l56 -15q-18 -55 -18 -107q0 -91 68 -136t211 -45q254 0 261 126q-53 -21 -115 -21q-93 0 -147 52t-54 144t54 154q52 61 143 61q85 0 132.5 -55t47.5 -147v-153q0 -112 -78.5 -166t-243.5 -54zM540 59q62 0 108 18v117 q0 76 -31 117.5t-92 41.5q-59 0 -95.5 -41t-36.5 -110t38.5 -106t108.5 -37z" />
<glyph unicode="&#x670;" d="M-11 556h-5v175h32v-165z" />
<glyph unicode="&#x671;" horiz-adv-x="222" d="M142 948q35 0 55.5 -23t20.5 -61q0 -29 -9 -53h-239v32h51v99h32v-46q34 52 89 52zM139 915q-27 0 -51 -19.5t-38 -52.5h134q3 12 3 22q0 23 -13.5 36.5t-34.5 13.5zM141 0h-60v756h60v-756z" />
<glyph unicode="&#x679;" horiz-adv-x="923" d="M570 488q0 -25 -9 -52h-247v33h51v168h33v-107q38 50 90 50q38 0 60 -25t22 -67zM486 547q-27 0 -51 -20.5t-38 -57.5h139q2 18 2 19q0 27 -14 43t-38 16zM802 197v204h60v-228q0 -79 -50.5 -126t-141.5 -47h-394q-108 0 -169 50t-61 138q0 68 32 156l56 -15 q-27 -87 -27 -131q0 -141 177 -141h379q71 0 105 33.5t34 106.5z" />
<glyph unicode="&#x67e;" horiz-adv-x="923" d="M802 197v204h60v-228q0 -79 -50.5 -126t-141.5 -47h-394q-108 0 -169 50t-61 138q0 68 32 156l56 -15q-27 -87 -27 -131q0 -141 177 -141h379q71 0 105 33.5t34 106.5zM412 -131q0 -19 -11.5 -30.5t-29.5 -11.5q-17 0 -29 11.5t-12 30.5q0 17 12 28.5t29 11.5 q18 0 29.5 -11.5t11.5 -28.5zM504 -91q17 0 28.5 -11.5t11.5 -28.5q0 -19 -11.5 -30.5t-28.5 -11.5q-18 0 -30 11.5t-12 30.5q0 17 12 28.5t30 11.5zM410 -201q19 19 44.5 8.5t25.5 -37.5q0 -17 -11.5 -29t-29.5 -12t-29.5 12t-11.5 29q0 18 12 29z" />
<glyph unicode="&#x686;" horiz-adv-x="610" d="M293 411q121 0 186 -69.5t65 -192.5q0 -69 -21 -149h-309q-54 0 -83.5 -25.5t-29.5 -72.5q0 -50 35 -76.5t99 -26.5q32 0 63 7l12 -57q-34 -9 -82 -9q-85 0 -136.5 43.5t-51.5 117.5q0 72 45.5 114t122.5 42h266q12 45 12 88q0 97 -52.5 152.5t-149.5 55.5 q-48 0 -114 -20l-15 54q65 24 138 24zM288 -60q13 0 21 -8t8 -20q0 -13 -8 -21t-21 -8q-12 0 -20.5 8t-8.5 21q0 12 8.5 20t20.5 8zM381 -60q12 0 20 -8t8 -20q0 -13 -8 -21t-20 -8q-13 0 -21 8t-8 21q0 12 8 20t21 8zM335 -128q13 0 21 -8t8 -21q0 -12 -8 -20.5t-21 -8.5 q-12 0 -20 8.5t-8 20.5q0 13 8 21t20 8z" />
<glyph unicode="&#x688;" horiz-adv-x="508" d="M312 582q0 -25 -9 -52h-247v33h51v168h33v-107q38 50 90 50q38 0 60 -25t22 -67zM228 641q-27 0 -51 -20.5t-38 -57.5h139q2 18 2 19q0 27 -14 43t-38 16zM176 382l36 48q128 -84 179 -170t51 -199v-61h-402v57h342v22q0 169 -206 303z" />
<glyph unicode="&#x691;" horiz-adv-x="286" d="M214 668q38 0 60 -25t22 -67q0 -25 -9 -52h-247v33h51v168h33v-107q38 50 90 50zM212 635q-27 0 -51 -20.5t-38 -57.5h139q2 18 2 19q0 27 -14 43t-38 16zM145 69v332h60v-320q0 -227 -197 -253l-12 56q79 13 114 55.5t35 129.5z" />
<glyph unicode="&#x698;" horiz-adv-x="286" d="M177 622q-18 0 -29.5 12t-11.5 30q0 17 11.5 29t29.5 12q17 0 28.5 -12t11.5 -29q0 -18 -11.5 -30t-28.5 -12zM108 523q-17 0 -29 11.5t-12 29.5q0 17 12 29t29 12q18 0 29.5 -12t11.5 -29q0 -18 -11.5 -29.5t-29.5 -11.5zM241 523q-18 0 -30 11.5t-12 29.5q0 17 12 29 t30 12q17 0 28.5 -12t11.5 -29q0 -18 -11.5 -29.5t-28.5 -11.5zM8 -172l-12 56q79 13 114 55.5t35 129.5v332h60v-320q0 -227 -197 -253z" />
<glyph unicode="&#x6a1;" horiz-adv-x="1034" d="M786 411q90 0 138.5 -58t48.5 -156q0 -85 -44 -197h-653q-108 0 -169 50t-61 138q0 68 32 156l56 -15q-27 -87 -27 -131q0 -141 177 -141h348q-56 59 -56 146q0 91 59 150q58 58 151 58zM701 57h186q24 76 24 137q0 75 -34 117t-96 42q-65 0 -104 -42t-39 -109 q0 -79 63 -145z" />
<glyph unicode="&#x6a4;" horiz-adv-x="1034" d="M787 632q-18 0 -29.5 12t-11.5 30q0 17 11.5 29t29.5 12q17 0 28.5 -12t11.5 -29q0 -18 -11.5 -30t-28.5 -12zM718 533q-17 0 -29 11.5t-12 29.5q0 17 12 29t29 12q18 0 29.5 -12t11.5 -29q0 -18 -11.5 -29.5t-29.5 -11.5zM809 574q0 17 12 29t30 12q17 0 28.5 -12 t11.5 -29q0 -18 -11.5 -29.5t-28.5 -11.5q-18 0 -30 11.5t-12 29.5zM786 411q90 0 138.5 -58t48.5 -156q0 -85 -44 -197h-653q-108 0 -169 50t-61 138q0 68 32 156l56 -15q-27 -87 -27 -131q0 -141 177 -141h348q-56 59 -56 146q0 91 59 150q58 58 151 58zM701 57h186 q24 76 24 137q0 75 -34 117t-96 42q-65 0 -104 -42t-39 -109q0 -79 63 -145z" />
<glyph unicode="&#x6a9;" horiz-adv-x="848" d="M742 700l-262 -253q170 -56 236 -140q66 -85 66 -214v-93h-506q-108 0 -169 50t-61 138q0 68 32 156l56 -15q-27 -87 -27 -131q0 -141 177 -141h440v46q0 113 -68 184q-68 68 -237 121v60l283 273z" />
<glyph unicode="&#x6af;" horiz-adv-x="848" d="M626 818l40 -40l-253 -242l-41 41zM742 700l-262 -253q170 -56 236 -140q66 -85 66 -214v-93h-506q-108 0 -169 50t-61 138q0 68 32 156l56 -15q-27 -87 -27 -131q0 -141 177 -141h440v46q0 113 -68 184q-68 68 -237 121v60l283 273z" />
<glyph unicode="&#x6ba;" horiz-adv-x="650" d="M305 -164q-122 0 -190.5 61.5t-68.5 164.5q0 78 41 177l53 -19q-33 -82 -33 -151q0 -86 52 -130t148 -44q202 0 202 195v238h60v-253q0 -115 -70 -177t-194 -62z" />
<glyph unicode="&#x6be;" horiz-adv-x="722" d="M180 370l9 53q115 -9 200 -29.5t148.5 -57t96 -93t32.5 -132.5q0 -52 -14 -111h-171q-81 0 -145 23q-60 -23 -140 -23q-89 0 -156 29l18 54q63 -26 138 -26q38 0 70 7q-33 26 -53.5 66t-20.5 86q0 47 22.5 86.5t61.5 59.5q-18 3 -96 8zM247 218q0 -95 88 -138 q44 16 71.5 53t27.5 86q0 50 -26.5 82t-66.5 32q-41 0 -67.5 -33t-26.5 -82zM469 57h135q6 29 6 60q0 141 -152 203q31 -43 31 -101q0 -48 -23.5 -89.5t-61.5 -66.5q34 -6 65 -6z" />
<glyph unicode="&#x6c1;" horiz-adv-x="505" d="M242 -5q-95 0 -148.5 54.5t-53.5 143.5q0 92 54 155q53 63 148 63t149 -63q53 -65 53 -155t-54.5 -144t-147.5 -54zM244 54q67 0 103 36t36 105q0 73 -37 115.5t-104 42.5q-68 0 -104.5 -42.5t-36.5 -115.5q0 -70 37.5 -105.5t105.5 -35.5z" />
<glyph unicode="&#x6c2;" horiz-adv-x="505" d="M224 578h113v-40h-206v40h50q-21 33 -21 70q0 42 28.5 67.5t74.5 25.5q31 0 62 -7l-8 -39q-37 5 -46 5q-31 0 -50 -15t-19 -43q0 -30 22 -64zM94 348q53 63 148 63t149 -63q53 -65 53 -155t-54.5 -144t-147.5 -54q-95 0 -148.5 54.5t-53.5 143.5q0 92 54 155zM244 54 q67 0 103 36t36 105q0 73 -37 115.5t-104 42.5q-68 0 -104.5 -42.5t-36.5 -115.5q0 -70 37.5 -105.5t105.5 -35.5z" />
<glyph unicode="&#x6c3;" horiz-adv-x="505" d="M174 530q-17 0 -29 11.5t-12 29.5t12 29.5t29 11.5q25 2 35.5 -19.5t0 -43t-35.5 -19.5zM307 530q-26 -2 -36.5 19.5t0 43t36.5 19.5q24 2 34.5 -19.5t0 -43t-34.5 -19.5zM242 -5q-95 0 -148.5 54.5t-53.5 143.5q0 92 54 155q53 63 148 63t149 -63q53 -65 53 -155 t-54.5 -144t-147.5 -54zM244 54q67 0 103 36t36 105q0 73 -37 115.5t-104 42.5q-68 0 -104.5 -42.5t-36.5 -115.5q0 -70 37.5 -105.5t105.5 -35.5z" />
<glyph unicode="&#x6cc;" horiz-adv-x="754" d="M369 -164q-323 0 -323 207q0 55 23 129l56 -15q-18 -67 -18 -107q0 -80 64.5 -117.5t197.5 -37.5q120 0 188.5 29t68.5 77q0 16 -9 30.5t-28 28t-35.5 23t-45 24.5t-43.5 23q-88 50 -88 129q0 67 52.5 110t140.5 43q46 0 107 -15l-11 -57q-56 14 -98 14q-59 0 -94 -25 t-35 -67q0 -14 4.5 -26t15.5 -23.5t20.5 -20t27.5 -18.5t29 -15.5l33 -16.5t31 -15q39 -20 63 -51t24 -68q0 -78 -86 -125q-88 -47 -232 -47z" />
<glyph unicode="&#x6d2;" horiz-adv-x="734" d="M348 -9q-168 0 -240 32q-71 32 -71 101q0 39 20.5 70t49.5 50.5t58 37.5t49.5 41.5t20.5 52.5v31h57v-33q0 -38 -20.5 -67.5t-49.5 -49t-58 -37t-49.5 -40t-20.5 -50.5q0 -45 61.5 -63t206.5 -18q156 0 367 36l4 -57q-222 -37 -385 -37z" />
<glyph unicode="&#x6d3;" horiz-adv-x="734" d="M246 573h113v-40h-206v40h50q-21 33 -21 70q0 42 28.5 67.5t74.5 25.5q31 0 62 -7l-8 -39q-35 5 -46 5q-31 0 -50 -15t-19 -43q0 -30 22 -64zM729 85l4 -57q-222 -37 -385 -37q-168 0 -240 32q-71 32 -71 101q0 39 20.5 70t49.5 50.5t58 37.5t49.5 41.5t20.5 52.5v31h57 v-33q0 -38 -20.5 -67.5t-49.5 -49t-58 -37t-49.5 -40t-20.5 -50.5q0 -45 61.5 -63t206.5 -18q156 0 367 36z" />
<glyph unicode="&#x6d4;" horiz-adv-x="345" d="M30 44l23 47q37 -34 107 -34h155v-57h-155q-83 0 -130 44z" />
<glyph unicode="&#x6d5;" horiz-adv-x="505" d="M242 -5q-95 0 -148.5 54.5t-53.5 143.5q0 92 54 155q53 63 148 63t149 -63q53 -65 53 -155t-54.5 -144t-147.5 -54zM244 54q67 0 103 36t36 105q0 73 -37 115.5t-104 42.5q-68 0 -104.5 -42.5t-36.5 -115.5q0 -70 37.5 -105.5t105.5 -35.5z" />
<glyph unicode="&#x6f0;" horiz-adv-x="540" d="M333 294l-63 -63l-64 64l64 61z" />
<glyph unicode="&#x6f1;" horiz-adv-x="540" d="M300 0h-60v653h60v-653z" />
<glyph unicode="&#x6f2;" horiz-adv-x="540" d="M395 649l60 4q8 -120 -31 -176t-134 -56q-62 0 -134 31v-452h-60v653h60v-144q74 -33 135 -33q64 0 88 41t16 132z" />
<glyph unicode="&#x6f3;" horiz-adv-x="540" d="M452 649l60 4q18 -217 -124 -217q-52 0 -116 26q-32 -26 -77 -26q-47 0 -89 16v-452h-60v653h60v-149q42 -14 77 -14q47 0 65.5 38t10.5 121l60 4q8 -97 -16 -149q44 -14 74 -14q91 0 75 159z" />
<glyph unicode="&#x6f4;" horiz-adv-x="540" d="M500 474l8 -54q-90 -18 -185 -18q-112 0 -205 34v-436h-60v653h60v-161q57 -20 143 -31q-15 42 -15 78q0 121 131 121q43 0 89 -12l-14 -55q-35 11 -70 11q-82 0 -82 -78q0 -30 15 -68h9q96 0 176 16z" />
<glyph unicode="&#x6f5;" horiz-adv-x="540" d="M193 -6q-141 0 -141 259q0 94 21 174.5t56 129.5q68 97 144 97q84 0 150 -103q65 -104 65 -298q0 -123 -35.5 -191t-93.5 -68q-43 0 -87 39q-39 -39 -79 -39zM201 51q7 0 15 2.5t16.5 7t14.5 8t14 9t10 6.5q1 0 8 -5.5t14 -9.5t16.5 -9t19 -7.5t17.5 -1.5q36 0 58 54.5 t22 148.5q0 157 -47 251q-47 92 -106 92t-108 -96q-51 -96 -51 -245q0 -98 24.5 -151.5t62.5 -53.5z" />
<glyph unicode="&#x6f6;" horiz-adv-x="540" d="M368 360l64 74l47 -40l-352 -412l-48 39l243 284q-98 10 -153.5 54t-55.5 114q0 84 72.5 132.5t203.5 48.5h24v-56q-115 5 -176.5 -28.5t-61.5 -97.5q0 -50 50.5 -79t142.5 -33z" />
<glyph unicode="&#x6f7;" horiz-adv-x="540" d="M270 86l189 573l64 -20l-219 -639h-67l-220 641l63 18z" />
<glyph unicode="&#x6f8;" horiz-adv-x="540" d="M302 652l221 -641l-64 -18l-189 570l-190 -570l-63 19l219 640h66z" />
<glyph unicode="&#x6f9;" horiz-adv-x="540" d="M282 653h150v-653h-60v282q-136 -12 -219 32t-83 143q0 91 57 143.5t155 52.5zM131 457q0 -74 70 -102q70 -30 171 -17v259h-77q-77 0 -120.5 -37t-43.5 -103z" />
<glyph unicode="&#x1e9e;" horiz-adv-x="668" d="M547 716v-59q-90 0 -142.5 -35.5t-52.5 -97.5q0 -50 39 -86q34 -32 88 -66q71 -44 104 -92t33 -112q0 -83 -55 -134q-55 -52 -140 -52q-129 0 -193 93l58 43q21 -36 59 -56t80 -20q56 0 89.5 34t35.5 91q1 50 -24.5 83.5t-91.5 73.5q-78 48 -113 92.5t-35 106.5 q0 96 98 146h-19q-105 0 -153 -36q-49 -37 -49 -139v-494h-66v507q0 119 60 169t194 50q83 0 196 -10z" />
<glyph unicode="&#x2002;" horiz-adv-x="572" />
<glyph unicode="&#x2003;" horiz-adv-x="1143" />
<glyph unicode="&#x2009;" horiz-adv-x="114" />
<glyph unicode="&#x200a;" horiz-adv-x="23" />
<glyph unicode="&#x200c;" d="M-78 958l-60 -60l-18 20l59 59l-59 59l18 20l60 -61l59 60l18 -19l-58 -59l58 -59l-18 -19z" />
<glyph unicode="&#x200d;" d="M-87 912h-26v79h227v-79h-26v53h-175v-53z" />
<glyph unicode="&#x200e;" d="M109 977l-79 -79l-19 20l47 47h-144v26h144l-47 45l19 20z" />
<glyph unicode="&#x200f;" d="M-11 918l-19 -19l-79 78l79 79l19 -18l-47 -47h145v-26h-144z" />
<glyph unicode="&#x2011;" horiz-adv-x="333" d="M43 264h247v-54h-247v54z" />
<glyph unicode="&#x2013;" horiz-adv-x="500" d="M0 264h500v-54h-500v54z" />
<glyph unicode="&#x2014;" horiz-adv-x="1000" d="M0 264h1000v-54h-1000v54z" />
<glyph unicode="&#x2018;" horiz-adv-x="260" d="M62 480l76 228h60l-64 -228h-72z" />
<glyph unicode="&#x2019;" horiz-adv-x="260" d="M125 708h73l-77 -228h-59z" />
<glyph unicode="&#x201a;" horiz-adv-x="260" d="M125 90h73l-77 -228h-59z" />
<glyph unicode="&#x201c;" horiz-adv-x="520" d="M105 480l77 228h59l-63 -228h-73zM279 480l77 228h59l-63 -228h-73z" />
<glyph unicode="&#x201d;" horiz-adv-x="520" d="M168 708h73l-77 -228h-59zM342 708h73l-77 -228h-59z" />
<glyph unicode="&#x201e;" horiz-adv-x="520" d="M168 90h73l-77 -228h-59zM342 90h73l-77 -228h-59z" />
<glyph unicode="&#x2020;" horiz-adv-x="520" d="M230 509v199h60v-199h192v-48h-192v-587h-60v587h-192v48h192z" />
<glyph unicode="&#x2021;" horiz-adv-x="520" d="M230 509v199h60v-199h192v-48h-192v-340h192v-48h-192v-199h-60v199h-192v48h192v340h-192v48h192z" />
<glyph unicode="&#x2022;" horiz-adv-x="500" d="M126 479q52 52 124 52q73 0 125 -52t52 -125t-52 -125t-125 -52t-125 52q-52 51 -52 125q0 72 53 125z" />
<glyph unicode="&#x2026;" horiz-adv-x="1000" d="M133 76q14 14 34 14t34 -14t14 -34t-14 -34t-34 -14t-34 14t-14 34t14 34zM466 76q14 14 34 14t34 -14t14 -34t-14 -34t-34 -14t-34 14t-14 34t14 34zM799 76q14 14 34 14t34 -14t14 -34t-14 -34t-34 -14t-34 14t-14 34t14 34z" />
<glyph unicode="&#x202a;" d="M109 977l-79 -79l-19 20l47 47h-57v26h57l-47 45l19 20zM-32 965h-65v26h65v-26z" />
<glyph unicode="&#x202b;" d="M-11 918l-19 -19l-79 78l79 79l19 -18l-47 -47h57v-26h-56zM97 965h-65v26h65v-26z" />
<glyph unicode="&#x202c;" d="M13 897h-27v116l-45 -46l-19 19l78 78l78 -78l-19 -19l-46 46v-116z" />
<glyph unicode="&#x202d;" d="M55 977l-79 -79l-18 20l47 47h-123v26h122l-46 45l18 20zM129 977l-79 -79l-18 20l61 59l-61 59l18 20z" />
<glyph unicode="&#x202e;" d="M-32 945l-18 -19l-79 79l79 79l18 -19l-60 -60zM43 945l-19 -19l-78 79l78 79l19 -19l-47 -48h123v-25h-123z" />
<glyph unicode="&#x2030;" horiz-adv-x="981" d="M66 -6l456 748l46 -28l-458 -748zM71 675q43 45 108 45q64 0 109 -45q44 -46 44 -108q0 -61 -44 -107q-45 -46 -109 -46q-66 0 -109 46q-44 46 -44 107t45 108zM106 641q-25 -22 -30 -54t6.5 -60t37.5 -47.5t59 -17.5q44 0 74.5 31t30.5 74t-31 74t-74 31q-42 0 -73 -31z M351 249q43 45 108 45q64 0 109 -45q44 -46 44 -108q0 -61 -44 -107q-45 -46 -109 -46q-66 0 -109 46q-44 46 -44 107t45 108zM694 249q44 45 108 45t109 -45q44 -46 44 -108q0 -61 -44 -107q-45 -46 -109 -46q-66 0 -109 46q-44 46 -44 107t45 108zM386 215 q-25 -22 -30 -54t6.5 -60t37.5 -47.5t59 -17.5q44 0 74.5 31t30.5 74t-31 74t-74 31q-42 0 -73 -31zM729 215q-25 -22 -30 -54t6.5 -60t37.5 -47.5t59 -17.5q44 0 74.5 31t30.5 74t-31 74t-74 31q-42 0 -73 -31z" />
<glyph unicode="&#x2039;" horiz-adv-x="315" d="M63 237l137 203l42 -29l-116 -174l118 -176l-44 -27z" />
<glyph unicode="&#x203a;" horiz-adv-x="315" d="M71 413l44 27l137 -203l-137 -203l-42 29l116 174z" />
<glyph unicode="&#x2044;" horiz-adv-x="168" d="M-167 -6l456 748l46 -28l-458 -748z" />
<glyph unicode="&#x20ac;" horiz-adv-x="470" d="M337 724q59 0 104 -20l-16 -55q-37 18 -86 18q-70 0 -116 -52.5t-63 -153.5h223l-13 -48h-218q-4 -23 -4 -62q0 -32 2 -54h200l-11 -48h-183q12 -96 59 -151t117 -55q54 0 97 27l12 -57q-44 -29 -116 -29q-102 0 -161 74q-59 73 -76 191h-63l12 48h48q-3 13 -3 48 q0 43 4 68h-59l11 48h52q47 263 247 263z" />
<glyph unicode="&#x20b9;" horiz-adv-x="520" d="M72 708h430v-48h-176q56 -40 60 -111h116v-48h-116q-21 -162 -231 -162l234 -339h-80l-237 347v43h76q156 0 172 111h-248v48h248q-14 111 -168 111h-80v48z" />
<glyph unicode="&#x20ba;" horiz-adv-x="520" d="M175 708v-143l210 92v-57l-210 -92v-107l210 92v-57l-210 -92v-296q24 -2 32 -2q122 0 176.5 82.5t54.5 243.5h65q0 -380 -284 -380q-78 0 -104 8v314l-96 -40v57l96 40v107l-96 -40v57l96 40v173h60z" />
<glyph unicode="&#x2113;" horiz-adv-x="500" d="M287 715q48 0 76 -33.5t28 -88.5q0 -141 -171 -316v-155q0 -42 21 -66t60 -24q44 0 87 34l19 -24q-56 -50 -122 -50q-58 0 -89.5 31.5t-31.5 87.5v132l-63 -68l-21 28l84 82v263q0 75 34 121t89 46zM220 559v-241q126 148 126 270q0 42 -16.5 66.5t-42.5 24.5 q-30 0 -48.5 -33t-18.5 -87z" />
<glyph unicode="&#x2122;" horiz-adv-x="990" d="M84 708h320v-48h-133v-364h-54v364h-133v48zM478 708h86l130 -328l129 328h83v-412h-54v361h-2l-142 -361h-32l-142 361h-2v-361h-54v412z" />
<glyph unicode="&#x2126;" horiz-adv-x="744" d="M367 721q133 0 226 -87q92 -89 92 -217q0 -100 -52 -176q-52 -75 -145 -101v-82h197v-58h-251v181q87 16 135.5 78t48.5 156q0 105 -72 175q-71 70 -180 70q-106 0 -179 -70t-73 -175q0 -94 49 -157t135 -77v-181h-251v58h197v82q-91 25 -144 103q-53 77 -53 173 q0 130 93 218q93 87 227 87z" />
<glyph unicode="&#x212e;" horiz-adv-x="976" d="M900 341h-667q-6 0 -6 -6v-190q0 -20 8 -30q85 -108 251 -108q79 0 142.5 29t126.5 89h72q-62 -75 -138 -110q-75 -34 -200 -34q-190 0 -302 105t-112 257q0 150 110 263q52 54 131.5 85.5t170.5 31.5q92 0 164.5 -23t118 -60.5t76 -88.5t42.5 -102.5t12 -107.5zM749 368 v194q0 14 -12 28q-45 55 -112.5 81t-141.5 26q-144 0 -246 -105q-10 -11 -10 -29v-195q0 -6 6 -6h510q6 0 6 6z" />
<glyph unicode="&#x2202;" horiz-adv-x="496" d="M210 721q117 0 182 -98q63 -97 63 -261q0 -180 -58 -277t-167 -97q-87 0 -143 65t-56 159q0 93 53 154q53 59 141 59q99 0 166 -84q1 11 1 53q0 111 -45 192q-47 80 -134 80q-53 0 -112 -46l-36 43q28 28 74 45q33 13 71 13zM94 210q0 -70 38 -120q37 -49 99 -49 q66 0 106.5 61.5t48.5 175.5q-67 91 -156 91q-60 0 -98 -44.5t-38 -114.5z" />
<glyph unicode="&#x2206;" horiz-adv-x="670" d="M296 712h74l287 -712h-642zM332 645l-226 -583h455z" />
<glyph unicode="&#x220f;" horiz-adv-x="711" d="M71 786h570v-1000h-66v938h-438v-938h-66v1000z" />
<glyph unicode="&#x2211;" horiz-adv-x="604" d="M39 786h527v-62h-442l309 -435l-328 -442h473v-61h-553v55l329 448l-315 441v56z" />
<glyph unicode="&#x2212;" horiz-adv-x="666" d="M78 327h510v-48h-510v48z" />
<glyph unicode="&#x2215;" horiz-adv-x="168" d="M-167 -6l456 748l46 -28l-458 -748z" />
<glyph unicode="&#x2219;" horiz-adv-x="260" d="M96 352q14 14 34 14t34 -14t14 -34t-14 -34t-34 -14t-34 14t-14 34t14 34z" />
<glyph unicode="&#x221a;" horiz-adv-x="493" d="M439 786h63l-210 -1000h-66l-164 340l-46 -22l-24 50l100 48l158 -332z" />
<glyph unicode="&#x221e;" horiz-adv-x="741" d="M700 252q0 -64 -39.5 -106t-100.5 -42q-44 0 -88 25t-101 82q-71 -62 -109 -85q-37 -22 -78 -22q-64 0 -103.5 40t-39.5 105q0 64 39 106t99 42q39 0 82 -23q42 -22 110 -89q67 70 106 91q40 22 81 22q63 0 102.5 -41.5t39.5 -104.5zM409 248q94 -86 154 -86 q37 0 58.5 24t21.5 63q0 42 -22 67t-61 25q-52 0 -151 -93zM182 162q62 0 151 87q-101 91 -155 91q-35 0 -57.5 -25.5t-22.5 -64.5q0 -40 23 -64t61 -24z" />
<glyph unicode="&#x222b;" horiz-adv-x="543" d="M335 786q31 0 51 -13.5t20 -36.5q0 -34 -37 -34q-18 0 -32 20t-20 20q-36 0 -36 -116q0 -15 1 -33t1 -40v-519q0 -113 -19 -166q-28 -81 -102 -81q-27 0 -44 12.5t-17 34.5q0 14 9.5 23t23.5 9q18 0 31 -19t19 -19q32 0 32 153q0 4 0.5 27.5t0.5 30.5v471q0 7 -0.5 38.5 t-0.5 42.5q0 195 119 195z" />
<glyph unicode="&#x2248;" horiz-adv-x="666" d="M557 397h32q-8 -60 -38.5 -93t-78.5 -33q-42 0 -140 37q-100 36 -137 36q-31 0 -53.5 -21.5t-30.5 -58.5h-33q23 128 116 128q42 0 141 -36q98 -37 139 -37q62 0 83 78zM557 226h32q-8 -60 -38.5 -93t-78.5 -33q-41 0 -139 37q-101 36 -138 36q-32 0 -54 -21.5t-30 -58.5 h-33q20 128 116 128q42 0 143 -36q98 -37 137 -37q62 0 83 78z" />
<glyph unicode="&#x2260;" horiz-adv-x="666" d="M367 364l77 145l41 -22l-65 -123h158v-48h-183l-76 -142h259v-48h-284l-75 -142l-42 21l64 121h-153v48h178l75 142h-253v48h279z" />
<glyph unicode="&#x2264;" horiz-adv-x="666" d="M88 357l490 184v-52l-431 -161l431 -160v-51l-490 184v56zM88 59h490v-47h-490v47z" />
<glyph unicode="&#x2265;" horiz-adv-x="666" d="M88 489v52l490 -184v-56l-490 -184v51l432 160zM88 59h490v-47h-490v47z" />
<glyph unicode="&#x2400;" />
<glyph unicode="&#x25ca;" horiz-adv-x="593" d="M264 747h63l171 -391l-171 -391h-63l-169 391zM296 681l-136 -325l136 -325l137 325z" />
<glyph unicode="&#x25cc;" horiz-adv-x="460" d="M257 370q0 -28 -27 -28t-27 28q0 27 27 27t27 -27zM143 320q-26 0 -26 29q0 26 26 26q29 0 29 -26q0 -29 -29 -29zM316 320q-29 0 -29 29q0 26 29 26q26 0 26 -26q0 -29 -26 -29zM80 257q-26 0 -26 28q0 27 26 27q28 0 28 -27q0 -28 -28 -28zM406 285q0 -28 -27 -28 t-27 28q0 27 27 27t27 -27zM58 172q-26 0 -26 27t26 27q28 0 28 -27t-28 -27zM428 199q0 -27 -27 -27t-27 27t27 27t27 -27zM80 86q-26 0 -26 27t26 27q28 0 28 -27t-28 -27zM406 113q0 -27 -27 -27t-27 27t27 27t27 -27zM143 23q-26 0 -26 27t26 27q29 0 29 -27t-29 -27z M316 23q-29 0 -29 27t29 27q26 0 26 -27t-26 -27zM257 28q0 -27 -27 -27t-27 27q0 28 27 28t27 -28z" />
<glyph unicode="&#x25fc;" horiz-adv-x="460" d="M0 460h460v-460h-460v460z" />
<glyph unicode="&#x274a;" horiz-adv-x="634" d="M318 208l-94 -200l-47 23l99 196l-211 -48l-11 49l212 43l-174 136l35 41l167 -141l-2 220h53l-4 -220l170 139l32 -41l-174 -135l211 -45l-11 -49l-210 52l96 -198l-46 -23z" />
<glyph unicode="&#xfb01;" horiz-adv-x="519" d="M252 768q42 0 69 -12l-12 -52q-19 10 -54 10q-81 0 -81 -119v-133h108v-54h-108v-408h-60v408h-96v54h96v155q0 69 38.5 110t99.5 41zM367 677q13 13 32 13t32 -13t13 -32t-13 -32t-32 -13t-32 13t-13 32t13 32zM369 0v462h60v-462h-60z" />
<glyph unicode="&#xfb02;" horiz-adv-x="519" d="M252 768q42 0 69 -12l-12 -52q-19 10 -54 10q-81 0 -81 -119v-133h108v-54h-108v-408h-60v408h-96v54h96v155q0 69 38.5 110t99.5 41zM369 0v756h60v-756h-60z" />
<glyph unicode="&#xfbb2;" d="M1 549q-26 0 -36.5 20.5t0 41t36.5 20.5q25 0 35 -20.5t0 -41t-35 -20.5z" />
<glyph unicode="&#xfbb3;" d="M1 -172q-26 0 -36.5 20.5t0 41t36.5 20.5q25 0 35 -20.5t0 -41t-35 -20.5z" />
<glyph unicode="&#xfbb4;" d="M-66 549q-17 0 -29 11.5t-12 29.5t12 29.5t29 11.5q25 2 35.5 -19.5t0 -43t-35.5 -19.5zM67 549q-26 -2 -36.5 19.5t0 43t36.5 19.5q24 2 34.5 -19.5t0 -43t-34.5 -19.5z" />
<glyph unicode="&#xfbb5;" d="M-66 -172q-17 0 -29 11.5t-12 29.5t12 29.5t29 11.5q25 2 35.5 -19.5t0 -43t-35.5 -19.5zM67 -172q-26 -2 -36.5 19.5t0 43t36.5 19.5q24 2 34.5 -19.5t0 -43t-34.5 -19.5z" />
<glyph unicode="&#xfbb6;" d="M3 651q-18 0 -29.5 12t-11.5 30q0 17 11.5 29t29.5 12q17 0 28.5 -12t11.5 -29q0 -18 -11.5 -30t-28.5 -12zM-66 552q-17 0 -29 11.5t-12 29.5q0 17 12 29t29 12q18 0 29.5 -12t11.5 -29q0 -18 -11.5 -29.5t-29.5 -11.5zM67 552q-18 0 -30 11.5t-12 29.5q0 17 12 29 t30 12q17 0 28.5 -12t11.5 -29q0 -18 -11.5 -29.5t-28.5 -11.5z" />
<glyph unicode="&#xfbb9;" d="M-37 -162q-19 -19 -44.5 -8t-25.5 39q0 17 12 28.5t29 11.5q18 0 29.5 -11.5t11.5 -28.5q0 -19 -12 -31zM67 -173q-18 0 -30 11.5t-12 30.5q0 17 12 28.5t30 11.5q17 0 28.5 -11.5t11.5 -28.5q0 -19 -11.5 -30.5t-28.5 -11.5zM32 -259q-20 -20 -45.5 -9t-25.5 38 q-2 25 19.5 35.5t43 0t19.5 -35.5q0 -16 -11 -29z" />
<glyph unicode="&#xfd3e;" horiz-adv-x="512" d="M464 -97q-20 0 -70 45q-52 48 -100 114q-51 68 -65 121l-68 -11q-10 -2 -14 6t3 17l57 79q8 8 8 17q0 8 -12 8q-7 0 -14 -7l-72 -64q-8 -8 -14 -8q-14 0 -14 19v56q-59 29 -59 49q0 19 59 48v55q0 20 14 20q2 0 14 -9l72 -64q10 -7 14 -7q12 0 12 9t-8 17l-57 79 q-6 9 -2.5 16.5t13.5 6.5l68 -11q13 52 65 122q49 66 100 113q50 45 70 45q18 0 2 -18q-74 -89 -110 -150t-42 -114l48 6q14 2 18.5 -4t-4.5 -14l-63 -74q-11 -14 -11 -17q0 -7 10 -7q8 0 14 3l74 54q25 18 25 -2v-55q60 -22 60 -48t-60 -49v-56q0 -20 -25 -2l-74 55 q-6 3 -14 3q-10 0 -10 -8q0 -1 11 -18l63 -72q9 -8 4.5 -14t-18.5 -4l-48 6q13 -124 152 -264q5 -4 6.5 -8.5t-1 -7t-7.5 -2.5zM182 491l47 -68v27h22l20 32v-32h18v-26l63 64l-67 -13q5 37 33 105v42q-24 -24 -45 -65.5t-30 -80.5zM112 313v-53l72 56h-44v17q-20 5 -28 11 q10 6 28 10v16h44l-72 57v-53q-57 -20 -57 -30q0 -12 57 -31zM334 314l70 -53v52q24 5 40.5 14t16.5 17q0 6 -17 15.5t-40 14.5v52l-70 -53h40v-18q17 -2 31 -11q-15 -11 -31 -12v-18h-40zM259 295q21 0 34.5 14t13.5 35q0 20 -13.5 34t-34.5 14q-19 0 -33 -15t-14 -33 q0 -19 14 -34t33 -15zM318 64v43q-28 64 -33 104l67 -13l-63 65v-28h-18v-31l-20 31h-22v28l-47 -67l61 14q24 -94 75 -146z" />
<glyph unicode="&#xfd3f;" horiz-adv-x="512" d="M51 -97q-8 0 -9 5.5t7 12.5q139 140 152 264l-48 -6q-14 -2 -18.5 4t4.5 14l63 72q11 17 11 18q0 8 -10 8q-8 0 -14 -3l-74 -55q-25 -18 -25 2v56q-60 23 -60 49t60 48v55q0 20 25 2l74 -54q6 -3 14 -3q10 0 10 7q0 3 -11 17l-63 74q-9 8 -4.5 14t18.5 4l48 -6 q-6 53 -42 114t-110 150q-16 18 2 18q21 0 70 -45q50 -45 101 -113q51 -71 64 -122l68 11q10 1 13.5 -6.5t-2.5 -16.5l-57 -79q-8 -8 -8 -17t12 -9q4 0 14 7l72 64q12 9 14 9q14 0 14 -20v-55q59 -29 59 -48q0 -20 -59 -49v-56q0 -19 -14 -19q-6 0 -14 8l-72 64q-7 7 -14 7 q-12 0 -12 -8q0 -9 8 -17l57 -79q7 -9 3 -17t-14 -6l-68 11q-13 -52 -64 -121q-50 -68 -101 -114q-49 -45 -70 -45zM286 450v-27l47 68l-61 -15q-9 39 -30 80.5t-45 65.5v-42q29 -68 33 -105l-67 13l63 -64v26h18v32l20 -32h22zM331 316l72 -56v53q57 19 57 31q0 10 -57 30 v53l-72 -57h44v-16q18 -4 28 -10q-8 -6 -28 -11v-17h-44zM111 313v-52l70 53h-40v18q-16 1 -31 12q14 9 31 11v18h40l-70 53v-52q-23 -5 -40 -14.5t-17 -15.5q0 -8 16.5 -17t40.5 -14zM256 295q19 0 33 15t14 34q0 18 -14.5 33t-32.5 15q-21 0 -34.5 -14t-13.5 -34 q0 -21 13.5 -35t34.5 -14zM197 107v-43q51 52 75 146l61 -14l-47 67v-28h-22l-20 -31v31h-18v28l-63 -65l67 13q-5 -40 -33 -104z" />
<glyph unicode="&#xfeff;" />
<glyph horiz-adv-x="324" d="M324 57q20 0 20 -28q0 -29 -20 -29q-120 0 -160 76q-42 -76 -160 -76h-4v57h6q64 0 93 33t29 107v204h60v-213v-4q0 -127 136 -127z" />
<glyph horiz-adv-x="279" d="M4 0h-4v57h6q64 0 93 33t29 107v204h60v-213q0 -188 -184 -188z" />
<glyph horiz-adv-x="767" d="M344 -260q-160 0 -235.5 39.5t-75.5 123.5q0 74 55.5 114t156.5 40h522q20 0 20 -28q0 -29 -20 -29h-528q-149 0 -149 -95q0 -57 61.5 -81.5t206.5 -24.5q164 0 367 36l3 -58q-221 -37 -384 -37z" />
<glyph horiz-adv-x="767" d="M217 203h87v-32h-160v32h39q-16 26 -16 53q0 34 23 54.5t59 20.5q21 0 46 -6l-6 -32q-18 5 -35 5q-37 0 -49 -27.5t12 -67.5zM245 57h522q20 0 20 -28q0 -29 -20 -29h-528q-149 0 -149 -95q0 -57 61.5 -81.5t206.5 -24.5q164 0 367 36l3 -58q-221 -37 -384 -37 q-160 0 -235.5 39.5t-75.5 123.5q0 74 55.5 114t156.5 40z" />
<glyph horiz-adv-x="227" d="M177 294l-63 -63l-64 64l64 61z" />
<glyph horiz-adv-x="280" d="M170 0h-60v653h60v-653z" />
<glyph horiz-adv-x="515" d="M409 649l60 4q8 -120 -31 -176t-134 -56q-62 0 -134 31v-452h-60v653h60v-144q74 -33 135 -33q64 0 88 41t16 132z" />
<glyph horiz-adv-x="623" d="M516 649l60 4q18 -217 -124 -217q-52 0 -116 26q-32 -26 -77 -26q-47 0 -89 16v-452h-60v653h60v-149q42 -14 77 -14q47 0 65.5 38t10.5 121l60 4q8 -97 -16 -149q44 -14 74 -14q91 0 75 159z" />
<glyph horiz-adv-x="501" d="M438 57l3 -55q-83 -8 -123 -8q-243 0 -243 153q0 61 41.5 110t116.5 78q-57 18 -91 53.5t-34 84.5q0 86 74.5 134t201.5 48q15 0 23 -1v-56q-110 5 -174 -27.5t-64 -98.5q0 -57 59 -84.5t163 -16.5v-57q-122 -11 -188.5 -53.5t-66.5 -103.5q0 -106 190 -106q40 0 112 6z " />
<glyph horiz-adv-x="585" d="M506 266q0 -274 -213 -274t-213 274q0 191 64 289q63 99 149 99q87 0 150 -99t63 -289zM142 268q0 -218 151 -218t151 218q0 152 -45 240q-46 88 -106 88t-105 -88q-46 -88 -46 -240z" />
<glyph horiz-adv-x="520" d="M410 0h-60v597h-315v56h375v-653z" />
<glyph horiz-adv-x="596" d="M298 86l189 573l64 -20l-219 -639h-67l-220 641l63 18z" />
<glyph horiz-adv-x="596" d="M330 652l221 -641l-64 -18l-189 570l-190 -570l-63 19l219 640h66z" />
<glyph horiz-adv-x="537" d="M277 653h150v-653h-60v282q-136 -12 -219 32t-83 143q0 91 57 143.5t155 52.5zM126 457q0 -74 70 -102q70 -30 171 -17v259h-77q-77 0 -120.5 -37t-43.5 -103z" />
<glyph horiz-adv-x="227" d="M177 294l-63 -63l-64 64l64 61z" />
<glyph horiz-adv-x="280" d="M170 0h-60v653h60v-653z" />
<glyph horiz-adv-x="515" d="M409 649l60 4q8 -120 -31 -176t-134 -56q-62 0 -134 31v-452h-60v653h60v-144q74 -33 135 -33q64 0 88 41t16 132z" />
<glyph horiz-adv-x="623" d="M516 649l60 4q18 -217 -124 -217q-52 0 -116 26q-32 -26 -77 -26q-47 0 -89 16v-452h-60v653h60v-149q42 -14 77 -14q47 0 65.5 38t10.5 121l60 4q8 -97 -16 -149q44 -14 74 -14q91 0 75 159z" />
<glyph horiz-adv-x="605" d="M552 474l8 -54q-90 -18 -185 -18q-112 0 -205 34v-436h-60v653h60v-161q57 -20 143 -31q-15 42 -15 78q0 121 131 121q43 0 89 -12l-14 -55q-35 11 -70 11q-82 0 -82 -78q0 -30 15 -68h9q96 0 176 16z" />
<glyph horiz-adv-x="595" d="M221 -6q-141 0 -141 259q0 94 21 174.5t56 129.5q68 97 144 97q84 0 150 -103q65 -104 65 -298q0 -123 -35.5 -191t-93.5 -68q-43 0 -87 39q-39 -39 -79 -39zM229 51q7 0 15 2.5t16.5 7t14.5 8t14 9t10 6.5q1 0 8 -5.5t14 -9.5t16.5 -9t19 -7.5t17.5 -1.5q36 0 58 54.5 t22 148.5q0 157 -47 251q-47 92 -106 92t-108 -96q-51 -96 -51 -245q0 -98 24.5 -151.5t62.5 -53.5z" />
<glyph horiz-adv-x="501" d="M341 360l64 74l47 -40l-352 -412l-48 39l243 284q-98 10 -153.5 54t-55.5 114q0 84 72.5 132.5t203.5 48.5h24v-56q-115 5 -176.5 -28.5t-61.5 -97.5q0 -50 50.5 -79t142.5 -33z" />
<glyph horiz-adv-x="596" d="M298 86l189 573l64 -20l-219 -639h-67l-220 641l63 18z" />
<glyph horiz-adv-x="596" d="M330 652l221 -641l-64 -18l-189 570l-190 -570l-63 19l219 640h66z" />
<glyph horiz-adv-x="537" d="M277 653h150v-653h-60v282q-136 -12 -219 32t-83 143q0 91 57 143.5t155 52.5zM126 457q0 -74 70 -102q70 -30 171 -17v259h-77q-77 0 -120.5 -37t-43.5 -103z" />
<glyph horiz-adv-x="540" d="M399 473h-49q-41 122 -108 122q-31 0 -49.5 -26.5t-18.5 -73.5v-495h-60v495q0 79 33 121t90 42q87 0 142 -120q33 47 100 110l40 -41q-69 -65 -120 -134z" />
<glyph horiz-adv-x="540" d="M474 0h-369l-37 57l283 594l59 -26l-273 -568h337v-57z" />
<glyph horiz-adv-x="495" d="M375 473h-49q-41 122 -108 122q-31 0 -49.5 -26.5t-18.5 -73.5v-495h-60v495q0 79 33 121t90 42q87 0 142 -120q33 47 100 110l40 -41q-69 -65 -120 -134z" />
<glyph horiz-adv-x="476" d="M446 0h-369l-37 57l283 594l59 -26l-273 -568h337v-57z" />
<glyph horiz-adv-x="240" d="M166 896h80l-134 -144h-50z" />
<glyph horiz-adv-x="240" d="M-24 881h42q5 -37 31.5 -57.5t69.5 -20.5q48 0 71 18t32 60h42q-7 -60 -46 -93t-100 -33q-63 0 -101 34t-41 92z" />
<glyph horiz-adv-x="240" d="M83 752l-109 144h62l83 -114l86 114h54l-106 -144h-70z" />
<glyph horiz-adv-x="240" d="M85 896h70l108 -144h-65l-81 108l-81 -108h-59z" />
<glyph horiz-adv-x="240" d="M-9 874q23 22 52.5 10t29.5 -44q0 -21 -14 -34.5t-34 -13.5q-21 0 -34.5 13.5t-13.5 34.5q0 20 14 34zM181 874q23 22 52.5 10t29.5 -44q0 -20 -14 -34t-34 -14q-21 0 -34.5 13.5t-13.5 34.5q0 20 14 34z" />
<glyph horiz-adv-x="240" d="M89 874q23 22 52.5 10t29.5 -44q0 -21 -13.5 -34.5t-34.5 -13.5q-20 0 -34 13.5t-14 34.5q0 20 14 34z" />
<glyph horiz-adv-x="240" d="M-6 896h80l104 -144h-50z" />
<glyph horiz-adv-x="240" d="M93 896h80l-134 -144h-50zM239 896h80l-134 -144h-50z" />
<glyph horiz-adv-x="240" d="M-12 847h264v-48h-264v48z" />
<glyph horiz-adv-x="240" d="M121 932q37 0 64.5 -28.5t27.5 -67.5q0 -38 -27.5 -66t-64.5 -28q-38 0 -66 28t-28 67t28 67t66 28zM63 836q0 -24 16.5 -41t40.5 -17t40.5 17t16.5 42q0 26 -16.5 42.5t-40.5 16.5t-40.5 -17.5t-16.5 -42.5z" />
<glyph horiz-adv-x="240" d="M54 871q26 0 74 -24q46 -24 64 -24q36 0 48 48h36q-5 -47 -28 -74.5t-56 -27.5q-27 0 -75 24q-49 24 -66 24q-37 0 -51 -48h-36q7 45 31.5 73.5t58.5 28.5z" />
<glyph d="M48 681q35 0 55.5 -23t20.5 -61q0 -29 -9 -53h-239v32h51v99h32v-46q34 52 89 52zM45 648q-27 0 -51 -19.5t-38 -52.5h134q3 12 3 22q0 24 -13.5 37t-34.5 13z" />
<glyph d="M147 635l-253 -242l-41 41l254 241z" />
<glyph d="M-10 597h113v-40h-206v40h50q-21 33 -21 70q0 42 28.5 67.5t74.5 25.5q31 0 62 -7l-8 -39q-37 5 -46 5q-31 0 -50 -15t-19 -43q0 -30 22 -64z" />
<glyph d="M83 884q0 -58 -30 -92t-74 -34q-31 0 -56 15l14 28q20 -11 42 -11q47 0 66 51q-16 -2 -20 -2q-31 0 -50 15.5t-19 43.5q0 30 19.5 52t46.5 22t44 -24.5t17 -63.5zM31 870q3 0 21 2q1 3 1 12q0 24 -9.5 40t-24.5 16t-24.5 -11.5t-9.5 -27.5q0 -31 46 -31zM-8 659 q-32 -27 1 -83h87v-32h-160v32h39q-16 26 -16 53q0 34 23 54.5t59 20.5q21 0 46 -6l-6 -32q-18 5 -35 5q-23 0 -38 -12z" />
<glyph d="M11 758q-22 0 -43 18t-37 36t-24 18q-18 0 -43 -34l-21 19q31 46 66 46q23 0 53 -35q32 -36 51 -36q43 0 62 51q-16 -2 -20 -2q-31 0 -50 15.5t-19 43.5q0 30 19.5 52t46.5 22t44 -24.5t17 -63.5q0 -53 -30.5 -89.5t-71.5 -36.5zM61 870q3 0 21 2q1 3 1 12q0 56 -33 56 q-15 0 -25 -11.5t-10 -27.5q0 -31 46 -31zM-8 659q-32 -27 1 -83h87v-32h-160v32h39q-16 26 -16 53q0 34 23 54.5t59 20.5q21 0 46 -6l-6 -32q-18 5 -35 5q-23 0 -38 -12z" />
<glyph d="M-106 785l224 34l3 -1l-5 -32l-224 -34l-3 1zM-8 659q-32 -27 1 -83h87v-32h-160v32h39q-16 26 -16 53q0 34 23 54.5t59 20.5q21 0 46 -6l-6 -32q-18 5 -35 5q-23 0 -38 -12z" />
<glyph d="M121 909l-5 -32l-224 -34l-3 1l5 32l224 34zM-111 753l5 32l224 34l3 -1l-5 -32l-224 -34zM-8 659q-32 -27 1 -83h87v-32h-160v32h39q-16 26 -16 53q0 34 23 54.5t59 20.5q21 0 46 -6l-6 -32q-18 5 -35 5q-23 0 -38 -12z" />
<glyph d="M61 773q-18 -17 -49 -17t-49 17q-17 17 -17 48t18 55q19 24 48 24t48 -24q18 -24 18 -55t-17 -48zM36 854q-15 21 -36.5 9.5t-21.5 -40.5q0 -35 34 -35q33 0 33 35q0 17 -9 31zM-7 576h87v-32h-160v32h39q-16 26 -16 53q0 34 23 54.5t59 20.5q21 0 46 -6l-6 -32 q-18 5 -35 5q-37 0 -49 -27.5t12 -67.5z" />
<glyph d="M-7 -218h87v-32h-160v32h38q-15 24 -15 52q0 34 22.5 55t58.5 21q23 0 47 -7l-6 -31q-18 5 -35 5q-24 0 -38.5 -13t-14.5 -34q0 -26 16 -48zM-107 -345l224 34l3 -1l-5 -32l-224 -34l-3 1z" />
<glyph d="M-7 -218h87v-32h-160v32h38q-15 24 -15 52q0 34 22.5 55t58.5 21q23 0 47 -7l-6 -31q-18 5 -35 5q-24 0 -38.5 -13t-14.5 -34q0 -26 16 -48zM120 -312l-5 -32l-224 -34l-3 1l5 32l224 34zM-112 -457l5 32l224 34l3 -1l-5 -32l-224 -34z" />
<glyph d="M10 882v-165l-27 -10h-5v175h32zM75 675l24 10q24 -43 10.5 -83.5t-55.5 -40.5q-31 0 -48 17q-16 -28 -53 -28q-31 0 -48.5 17.5t-17.5 46.5q0 24 10 47l24 -7q-5 -15 -5 -30q0 -39 37 -39q33 0 33 39q0 11 -3 23l25 6q6 -21 6 -38v-5q13 -16 38 -16q32 0 32 35 q0 22 -9 46z" />
<glyph d="M73 827q0 -58 -30 -92t-74 -34q-31 0 -56 15l14 28q20 -11 42 -11q47 0 66 51q-16 -2 -20 -2q-31 0 -50 15.5t-19 43.5q0 30 19.5 52t46.5 22t44 -24.5t17 -63.5zM21 813q3 0 21 2q1 3 1 12q0 24 -9.5 40t-24.5 16t-24.5 -11.5t-9.5 -27.5q0 -31 46 -31zM75 675l24 10 q24 -43 10.5 -83.5t-55.5 -40.5q-31 0 -48 17q-16 -28 -53 -28q-31 0 -48.5 17.5t-17.5 46.5q0 24 10 47l24 -7q-5 -15 -5 -30q0 -39 37 -39q33 0 33 39q0 11 -3 23l25 6q6 -21 6 -38v-5q13 -16 38 -16q32 0 32 35q0 22 -9 46z" />
<glyph d="M1 701q-22 0 -43 18t-37 36t-24 18q-18 0 -43 -34l-21 19q31 46 66 46q23 0 53 -35q32 -36 51 -36q43 0 62 51q-16 -2 -20 -2q-31 0 -50 15.5t-19 43.5q0 30 19.5 52t46.5 22t44 -24.5t17 -63.5q0 -53 -30.5 -89.5t-71.5 -36.5zM51 813q3 0 21 2q1 3 1 12q0 56 -33 56 q-15 0 -25 -11.5t-10 -27.5q0 -31 46 -31zM75 675l24 10q24 -43 10.5 -83.5t-55.5 -40.5q-31 0 -48 17q-16 -28 -53 -28q-31 0 -48.5 17.5t-17.5 46.5q0 24 10 47l24 -7q-5 -15 -5 -30q0 -39 37 -39q33 0 33 39q0 11 -3 23l25 6q6 -21 6 -38v-5q13 -16 38 -16q32 0 32 35 q0 22 -9 46z" />
<glyph d="M108 762l3 -1l-5 -32l-224 -34l-3 1l5 32zM75 675l24 10q24 -43 10.5 -83.5t-55.5 -40.5q-31 0 -48 17q-16 -28 -53 -28q-31 0 -48.5 17.5t-17.5 46.5q0 24 10 47l24 -7q-5 -15 -5 -30q0 -39 37 -39q33 0 33 39q0 11 -3 23l25 6q6 -21 6 -38v-5q13 -16 38 -16q32 0 32 35 q0 22 -9 46z" />
<glyph d="M111 852l-5 -32l-224 -34l-3 1l5 32l224 34zM108 762l3 -1l-5 -32l-224 -34l-3 1l5 32zM75 675l24 10q24 -43 10.5 -83.5t-55.5 -40.5q-31 0 -48 17q-16 -28 -53 -28q-31 0 -48.5 17.5t-17.5 46.5q0 24 10 47l24 -7q-5 -15 -5 -30q0 -39 37 -39q33 0 33 39q0 11 -3 23 l25 6q6 -21 6 -38v-5q13 -16 38 -16q32 0 32 35q0 22 -9 46z" />
<glyph d="M-42 641q-31 0 -48.5 17.5t-17.5 46.5q0 24 10 47l24 -7q-5 -15 -5 -30q0 -39 37 -39q33 0 33 39q0 11 -3 23l25 6q6 -21 6 -38v-5q13 -16 38 -16q32 0 32 35q0 22 -9 46l24 10q24 -43 10.5 -83.5t-55.5 -40.5q-31 0 -48 17q-16 -28 -53 -28zM-116 545l5 32l224 34l3 -1 l-5 -32l-224 -34z" />
<glyph d="M-42 732q-31 0 -48.5 17.5t-17.5 46.5q0 24 10 47l24 -7q-5 -15 -5 -30q0 -39 37 -39q33 0 33 39q0 11 -3 23l25 6q6 -21 6 -38v-5q13 -16 38 -16q32 0 32 35q0 22 -9 46l24 10q24 -43 10.5 -83.5t-55.5 -40.5q-31 0 -48 17q-16 -28 -53 -28zM-116 636l5 32l224 34l3 -1 l-5 -32l-224 -34zM-116 545l5 32l224 34l3 -1l-5 -32l-224 -34z" />
</font>
</defs>
</svg>
